Bellota-Light.ufo
<glyph name="exclam" format="2">
	<advance width="242"/>
	<unicode hex="0021"/>
	<outline>
		<contour>
			<point x="108" y="143" type="line"/>
			<point x="147" y="143" type="line"/>
			<point x="156" y="705" type="line"/>
			<point x="99" y="705" type="line"/>
		</contour>
		<component base="period" xOffset="-5" yOffset="-16"/>
	</outline>
</glyph>
<glyph name="quotedbl" format="2">
	<advance width="360"/>
	<unicode hex="0022"/>
	<outline>
		<contour>
			<point x="207" y="685" type="line"/>
			<point x="216" y="503" type="line"/>
			<point x="256" y="503" type="line"/>
			<point x="265" y="685" type="line"/>
		</contour>
		<contour>
			<point x="95" y="685" type="line"/>
			<point x="104" y="503" type="line"/>
			<point x="143" y="503" type="line"/>
			<point x="153" y="685" type="line"/>
		</contour>
	</outline>
</glyph>
<glyph name="numbersign" format="1">
  <advance width="588"/>
  <unicode hex="0023"/>
  <outline>
    <contour>
      <point x="186" y="32" type="line"/>
      <point x="186" y="189" type="line"/>
      <point x="373" y="189" type="line"/>
      <point x="373" y="32" type="line"/>
      <point x="413" y="32" type="line"/>
      <point x="413" y="189" type="line"/>
      <point x="530" y="189" type="line"/>
      <point x="530" y="228" type="line"/>
      <point x="413" y="228" type="line"/>
      <point x="413" y="442" type="line"/>
      <point x="530" y="442" type="line"/>
      <point x="530" y="481" type="line"/>
      <point x="413" y="481" type="line"/>
      <point x="413" y="637" type="line"/>
      <point x="370" y="637" type="line"/>
      <point x="370" y="481" type="line"/>
      <point x="186" y="481" type="line"/>
      <point x="186" y="637" type="line"/>
      <point x="143" y="637" type="line"/>
      <point x="143" y="481" type="line"/>
      <point x="27" y="481" type="line"/>
      <point x="27" y="442" type="line"/>
      <point x="143" y="442" type="line"/>
      <point x="143" y="228" type="line"/>
      <point x="27" y="228" type="line"/>
      <point x="27" y="189" type="line"/>
      <point x="145" y="189" type="line"/>
      <point x="145" y="32" type="line"/>
    </contour>
    <contour>
      <point x="186" y="442" type="line"/>
      <point x="370" y="442" type="line"/>
      <point x="370" y="228" type="line"/>
      <point x="186" y="228" type="line"/>
    </contour>
  </outline>
</glyph>
<glyph name="dollar" format="1">
  <advance width="533"/>
  <unicode hex="0024"/>
  <outline>
    <contour>
      <point x="275" y="-70" type="line"/>
      <point x="275" y="-8" type="line"/>
      <point x="328" y="-4"/>
      <point x="379" y="9"/>
      <point x="417" y="39" type="curve" smooth="yes"/>
      <point x="456" y="71"/>
      <point x="476" y="112"/>
      <point x="476" y="168" type="curve" smooth="yes"/>
      <point x="476" y="225"/>
      <point x="457" y="265"/>
      <point x="414" y="298" type="curve" smooth="yes"/>
      <point x="377" y="327"/>
      <point x="343" y="339"/>
      <point x="275" y="360" type="curve"/>
      <point x="275" y="620" type="line"/>
      <point x="323" y="614"/>
      <point x="343" y="607"/>
      <point x="377" y="592" type="curve" smooth="yes"/>
      <point x="403" y="581"/>
      <point x="425" y="569"/>
      <point x="445" y="556" type="curve"/>
      <point x="471" y="594" type="line"/>
      <point x="446" y="611"/>
      <point x="416" y="626"/>
      <point x="388" y="637" type="curve" smooth="yes"/>
      <point x="355" y="650"/>
      <point x="322" y="659"/>
      <point x="275" y="663" type="curve"/>
      <point x="275" y="752" type="line"/>
      <point x="230" y="752" type="line"/>
      <point x="230" y="663" type="line"/>
      <point x="183" y="658"/>
      <point x="138" y="644"/>
      <point x="103" y="612" type="curve" smooth="yes"/>
      <point x="74" y="585"/>
      <point x="59" y="553"/>
      <point x="59" y="507" type="curve" smooth="yes"/>
      <point x="59" y="462"/>
      <point x="74" y="422"/>
      <point x="109" y="389" type="curve" smooth="yes"/>
      <point x="142" y="358"/>
      <point x="180" y="343"/>
      <point x="230" y="328" type="curve"/>
      <point x="230" y="34" type="line"/>
      <point x="164" y="40"/>
      <point x="107" y="65"/>
      <point x="52" y="99" type="curve"/>
      <point x="26" y="61" type="line"/>
      <point x="83" y="19"/>
      <point x="154" y="-4"/>
      <point x="230" y="-9" type="curve"/>
      <point x="230" y="-70" type="line"/>
    </contour>
    <contour>
      <point x="275" y="313" type="line"/>
      <point x="307" y="303"/>
      <point x="356" y="283"/>
      <point x="383" y="262" type="curve" smooth="yes"/>
      <point x="412" y="239"/>
      <point x="427" y="206"/>
      <point x="427" y="165" type="curve" smooth="yes"/>
      <point x="427" y="134"/>
      <point x="418" y="94"/>
      <point x="383" y="67" type="curve" smooth="yes"/>
      <point x="355" y="45"/>
      <point x="315" y="34"/>
      <point x="275" y="33" type="curve"/>
    </contour>
    <contour>
      <point x="198" y="388"/>
      <point x="165" y="404"/>
      <point x="141" y="428" type="curve" smooth="yes"/>
      <point x="118" y="450"/>
      <point x="108" y="480"/>
      <point x="108" y="510" type="curve" smooth="yes"/>
      <point x="108" y="565"/>
      <point x="142" y="616"/>
      <point x="230" y="622" type="curve"/>
      <point x="230" y="375" type="line"/>
    </contour>
  </outline>
</glyph>
<glyph name="ampersand" format="2">
	<advance width="619"/>
	<unicode hex="0026"/>
	<outline>
		<contour>
			<point x="248" y="-9" type="curve" smooth="yes"/>
			<point x="331" y="-9"/>
			<point x="410" y="23"/>
			<point x="460" y="85" type="curve"/>
			<point x="551" y="1" type="line"/>
			<point x="579" y="32" type="line"/>
			<point x="487" y="118" type="line"/>
			<point x="524" y="177"/>
			<point x="543" y="245"/>
			<point x="543" y="315" type="curve" smooth="yes"/>
			<point x="543" y="351" type="line"/>
			<point x="503" y="351" type="line"/>
			<point x="503" y="317" type="line" smooth="yes"/>
			<point x="503" y="256"/>
			<point x="488" y="196"/>
			<point x="457" y="145" type="curve"/>
			<point x="426" y="175"/>
			<point x="307" y="286"/>
			<point x="251" y="337" type="curve" smooth="yes"/>
			<point x="211" y="372"/>
			<point x="162" y="418"/>
			<point x="162" y="491" type="curve" smooth="yes"/>
			<point x="162" y="549"/>
			<point x="198" y="592"/>
			<point x="271" y="592" type="curve" smooth="yes"/>
			<point x="312" y="592"/>
			<point x="352" y="579"/>
			<point x="379" y="530" type="curve"/>
			<point x="409" y="555" type="line"/>
			<point x="387" y="600"/>
			<point x="335" y="634"/>
			<point x="269" y="634" type="curve" smooth="yes"/>
			<point x="184" y="634"/>
			<point x="110" y="579"/>
			<point x="110" y="483" type="curve" smooth="yes"/>
			<point x="110" y="432"/>
			<point x="130" y="391"/>
			<point x="167" y="351" type="curve"/>
			<point x="75" y="307"/>
			<point x="49" y="225"/>
			<point x="49" y="161" type="curve" smooth="yes"/>
			<point x="49" y="41"/>
			<point x="145" y="-9"/>
		</contour>
		<contour>
			<point x="248" y="30" type="curve" smooth="yes"/>
			<point x="172" y="30"/>
			<point x="93" y="70"/>
			<point x="93" y="166" type="curve" smooth="yes"/>
			<point x="93" y="230"/>
			<point x="128" y="293"/>
			<point x="196" y="323" type="curve"/>
			<point x="274" y="256" type="line"/>
			<point x="431" y="111" type="line"/>
			<point x="385" y="57"/>
			<point x="311" y="30"/>
		</contour>
	</outline>
</glyph>
<glyph name="quotesingle" format="1">
  <advance width="177"/>
  <unicode hex="0027"/>
  <outline>
    <contour>
      <point x="92" y="503" type="line"/>
      <point x="102" y="685" type="line"/>
      <point x="43" y="685" type="line"/>
      <point x="53" y="503" type="line"/>
    </contour>
  </outline>
</glyph>
<glyph name="parenleft" format="1">
  <advance width="357"/>
  <unicode hex="0028"/>
  <outline>
    <contour>
      <point x="294" y="-129" type="line"/>
      <point x="226" y="-86"/>
      <point x="171" y="-20"/>
      <point x="135" y="47" type="curve" smooth="yes"/>
      <point x="99" y="114"/>
      <point x="71" y="204"/>
      <point x="71" y="294" type="curve" smooth="yes"/>
      <point x="71" y="378"/>
      <point x="96" y="469"/>
      <point x="135" y="542" type="curve" smooth="yes"/>
      <point x="172" y="611"/>
      <point x="229" y="678"/>
      <point x="294" y="718" type="curve"/>
      <point x="276" y="749" type="line"/>
      <point x="191" y="702"/>
      <point x="127" y="633"/>
      <point x="86" y="556" type="curve" smooth="yes"/>
      <point x="43" y="475"/>
      <point x="23" y="385"/>
      <point x="23" y="293" type="curve" smooth="yes"/>
      <point x="23" y="201"/>
      <point x="43" y="115"/>
      <point x="86" y="34" type="curve" smooth="yes"/>
      <point x="128" y="-45"/>
      <point x="189" y="-111"/>
      <point x="276" y="-161" type="curve"/>
    </contour>
  </outline>
</glyph>
<glyph name="asterisk" format="1">
  <advance width="366"/>
  <unicode hex="002A"/>
  <outline>
    <contour>
      <point x="168" y="529" type="line"/>
      <point x="233" y="430" type="line"/>
      <point x="270" y="456" type="line"/>
      <point x="200" y="542" type="line"/>
      <point x="310" y="572" type="line"/>
      <point x="296" y="616" type="line"/>
      <point x="184" y="572" type="line"/>
      <point x="192" y="695" type="line"/>
      <point x="145" y="695" type="line"/>
      <point x="152" y="573" type="line"/>
      <point x="41" y="616" type="line"/>
      <point x="27" y="572" type="line"/>
      <point x="138" y="543" type="line"/>
      <point x="67" y="456" type="line"/>
      <point x="103" y="429" type="line"/>
    </contour>
  </outline>
</glyph>
<glyph name="plus" format="2">
	<advance width="506"/>
	<unicode hex="002B"/>
	<outline>
		<contour>
			<point x="232" y="274" type="line"/>
			<point x="232" y="110" type="line"/>
			<point x="274" y="110" type="line"/>
			<point x="274" y="274" type="line"/>
			<point x="436" y="274" type="line"/>
			<point x="436" y="312" type="line"/>
			<point x="274" y="312" type="line"/>
			<point x="274" y="475" type="line"/>
			<point x="232" y="475" type="line"/>
			<point x="232" y="312" type="line"/>
			<point x="70" y="312" type="line"/>
			<point x="70" y="274" type="line"/>
		</contour>
	</outline>
</glyph>
<glyph name="comma" format="1">
  <advance width="176"/>
  <unicode hex="002C"/>
  <outline>
    <contour>
      <point x="72" y="-82"/>
      <point x="86" y="-65"/>
      <point x="93" y="-46" type="curve" smooth="yes"/>
      <point x="101" y="-26"/>
      <point x="105" y="-1"/>
      <point x="105" y="27" type="curve" smooth="yes"/>
      <point x="105" y="47" type="line" smooth="yes"/>
      <point x="105" y="61"/>
      <point x="98" y="74"/>
      <point x="80" y="74" type="curve" smooth="yes"/>
      <point x="63" y="74"/>
      <point x="53" y="64"/>
      <point x="53" y="47" type="curve"/>
      <point x="54" y="33"/>
      <point x="54" y="22"/>
      <point x="54" y="12" type="curve" smooth="yes"/>
      <point x="54" y="-10"/>
      <point x="52" y="-23"/>
      <point x="48" y="-36" type="curve" smooth="yes"/>
      <point x="44" y="-48"/>
      <point x="36" y="-62"/>
      <point x="25" y="-74" type="curve"/>
      <point x="50" y="-99" type="line"/>
    </contour>
  </outline>
</glyph>
<glyph name="hyphen" format="2">
	<advance width="391"/>
	<unicode hex="002D"/>
	<outline>
		<contour>
			<point x="51" y="284" type="line"/>
			<point x="340" y="284" type="line"/>
			<point x="340" y="328" type="line"/>
			<point x="51" y="328" type="line"/>
		</contour>
	</outline>
</glyph>
<glyph name="period" format="1">
  <advance width="190"/>
  <unicode hex="002E"/>
  <outline>
    <contour>
      <point x="102" y="-3"/>
      <point x="118" y="12"/>
      <point x="118" y="33" type="curve" smooth="yes"/>
      <point x="118" y="54"/>
      <point x="102" y="69"/>
      <point x="81" y="69" type="curve" smooth="yes"/>
      <point x="60" y="69"/>
      <point x="45" y="54"/>
      <point x="45" y="33" type="curve" smooth="yes"/>
      <point x="45" y="12"/>
      <point x="60" y="-3"/>
      <point x="81" y="-3" type="curve" smooth="yes"/>
    </contour>
  </outline>
</glyph>
<glyph name="slash" format="2">
	<advance width="263"/>
	<unicode hex="002F"/>
	<outline>
		<contour>
			<point x="-3" y="-70" type="line"/>
			<point x="47" y="-70" type="line"/>
			<point x="266" y="752" type="line"/>
			<point x="216" y="752" type="line"/>
		</contour>
	</outline>
</glyph>
<glyph name="zero" format="2">
	<advance width="611"/>
	<unicode hex="0030"/>
	<outline>
		<contour>
			<point x="305" y="-9" type="curve" smooth="yes"/>
			<point x="477" y="-9"/>
			<point x="575" y="143"/>
			<point x="575" y="324" type="curve" smooth="yes"/>
			<point x="575" y="504"/>
			<point x="480" y="663"/>
			<point x="305" y="663" type="curve" smooth="yes"/>
			<point x="132" y="663"/>
			<point x="36" y="507"/>
			<point x="36" y="328" type="curve" smooth="yes"/>
			<point x="36" y="150"/>
			<point x="130" y="-9"/>
		</contour>
		<contour>
			<point x="307" y="33" type="curve" smooth="yes"/>
			<point x="161" y="33"/>
			<point x="86" y="177"/>
			<point x="86" y="328" type="curve" smooth="yes"/>
			<point x="86" y="477"/>
			<point x="160" y="621"/>
			<point x="306" y="621" type="curve" smooth="yes"/>
			<point x="450" y="621"/>
			<point x="526" y="481"/>
			<point x="526" y="329" type="curve" smooth="yes"/>
			<point x="526" y="183"/>
			<point x="458" y="33"/>
		</contour>
	</outline>
</glyph>
<glyph name="one" format="1">
  <advance width="350"/>
  <unicode hex="0031"/>
  <outline>
    <contour>
      <point x="266" y="1" type="line"/>
      <point x="266" y="669" type="line"/>
      <point x="268" y="669" type="line"/>
      <point x="176" y="608"/>
      <point x="114" y="563"/>
      <point x="51" y="559" type="curve"/>
      <point x="61" y="520" type="line"/>
      <point x="122" y="522"/>
      <point x="168" y="549"/>
      <point x="218" y="594" type="curve"/>
      <point x="218" y="1" type="line"/>
    </contour>
  </outline>
</glyph>
<glyph name="two" format="1">
  <advance width="477"/>
  <unicode hex="0032"/>
  <outline>
    <contour>
      <point x="455" y="1" type="line"/>
      <point x="455" y="45" type="line"/>
      <point x="74" y="45" type="line"/>
      <point x="86" y="107"/>
      <point x="127" y="153"/>
      <point x="187" y="201" type="curve" smooth="yes"/>
      <point x="304" y="298"/>
      <point x="422" y="352"/>
      <point x="422" y="494" type="curve" smooth="yes"/>
      <point x="422" y="601"/>
      <point x="357" y="665"/>
      <point x="233" y="665" type="curve" smooth="yes"/>
      <point x="128" y="665"/>
      <point x="63" y="619"/>
      <point x="28" y="525" type="curve"/>
      <point x="63" y="507" type="line"/>
      <point x="88" y="584"/>
      <point x="151" y="628"/>
      <point x="232" y="628" type="curve" smooth="yes"/>
      <point x="321" y="628"/>
      <point x="379" y="573"/>
      <point x="379" y="495" type="curve" smooth="yes"/>
      <point x="379" y="388"/>
      <point x="275" y="325"/>
      <point x="199" y="267" type="curve" smooth="yes"/>
      <point x="97" y="191"/>
      <point x="25" y="116"/>
      <point x="25" y="7" type="curve" smooth="yes"/>
      <point x="25" y="1" type="line"/>
    </contour>
  </outline>
</glyph>
<glyph name="three" format="1">
  <advance width="550"/>
  <unicode hex="0033"/>
  <outline>
    <contour>
      <point x="378" y="-11"/>
      <point x="483" y="54"/>
      <point x="483" y="177" type="curve" smooth="yes"/>
      <point x="483" y="246"/>
      <point x="450" y="310"/>
      <point x="397" y="344" type="curve" smooth="yes"/>
      <point x="374" y="359"/>
      <point x="346" y="370"/>
      <point x="329" y="367" type="curve"/>
      <point x="318" y="374" type="line"/>
      <point x="393" y="382"/>
      <point x="446" y="452"/>
      <point x="446" y="524" type="curve" smooth="yes"/>
      <point x="446" y="614"/>
      <point x="361" y="672"/>
      <point x="252" y="672" type="curve" smooth="yes"/>
      <point x="189" y="672"/>
      <point x="147" y="652"/>
      <point x="95" y="618" type="curve"/>
      <point x="91" y="616" type="line"/>
      <point x="112" y="579" type="line"/>
      <point x="160" y="611"/>
      <point x="206" y="627"/>
      <point x="253" y="627" type="curve" smooth="yes"/>
      <point x="323" y="627"/>
      <point x="394" y="589"/>
      <point x="394" y="517" type="curve" smooth="yes"/>
      <point x="394" y="447"/>
      <point x="324" y="387"/>
      <point x="257" y="387" type="curve" smooth="yes"/>
      <point x="153" y="387" type="line"/>
      <point x="153" y="344" type="line"/>
      <point x="258" y="344" type="line"/>
      <point x="342" y="340"/>
      <point x="432" y="289"/>
      <point x="432" y="186" type="curve" smooth="yes"/>
      <point x="432" y="86"/>
      <point x="346" y="35"/>
      <point x="243" y="35" type="curve" smooth="yes"/>
      <point x="161" y="35"/>
      <point x="109" y="67"/>
      <point x="57" y="114" type="curve"/>
      <point x="31" y="80" type="line"/>
      <point x="79" y="37"/>
      <point x="153" y="-11"/>
      <point x="256" y="-11" type="curve" smooth="yes"/>
    </contour>
  </outline>
</glyph>
<glyph name="four" format="1">
  <advance width="528"/>
  <unicode hex="0034"/>
  <outline>
    <contour>
      <point x="391" y="-2" type="line"/>
      <point x="391" y="130" type="line"/>
      <point x="477" y="130" type="line"/>
      <point x="477" y="174" type="line"/>
      <point x="391" y="174" type="line"/>
      <point x="391" y="400" type="line"/>
      <point x="342" y="400" type="line"/>
      <point x="342" y="174" type="line"/>
      <point x="72" y="174" type="line"/>
      <point x="276" y="660" type="line"/>
      <point x="223" y="660" type="line"/>
      <point x="18" y="172" type="line"/>
      <point x="18" y="130" type="line"/>
      <point x="342" y="130" type="line"/>
      <point x="342" y="-2" type="line"/>
    </contour>
  </outline>
</glyph>
<glyph name="five" format="2">
	<advance width="473"/>
	<unicode hex="0035"/>
	<outline>
		<contour>
			<point x="226" y="-5" type="curve" smooth="yes"/>
			<point x="351" y="-5"/>
			<point x="448" y="86"/>
			<point x="448" y="221" type="curve" smooth="yes"/>
			<point x="448" y="356"/>
			<point x="352" y="436"/>
			<point x="203" y="436" type="curve" smooth="yes"/>
			<point x="179" y="436"/>
			<point x="156" y="433"/>
			<point x="106" y="426" type="curve"/>
			<point x="106" y="605" type="line"/>
			<point x="385" y="609" type="line"/>
			<point x="385" y="653" type="line"/>
			<point x="58" y="646" type="line"/>
			<point x="58" y="373" type="line"/>
			<point x="96" y="388"/>
			<point x="141" y="393"/>
			<point x="187" y="393" type="curve" smooth="yes"/>
			<point x="311" y="393"/>
			<point x="402" y="356"/>
			<point x="402" y="229" type="curve" smooth="yes"/>
			<point x="402" y="123"/>
			<point x="338" y="38"/>
			<point x="217" y="38" type="curve" smooth="yes"/>
			<point x="153" y="38"/>
			<point x="107" y="61"/>
			<point x="48" y="103" type="curve"/>
			<point x="39" y="64" type="line"/>
			<point x="68" y="37"/>
			<point x="140" y="-5"/>
		</contour>
	</outline>
</glyph>
<glyph name="six" format="2">
	<advance width="572"/>
	<unicode hex="0036"/>
	<outline>
		<contour>
			<point x="293" y="-13" type="curve"/>
			<point x="293" y="-13" type="line"/>
			<point x="421" y="-13"/>
			<point x="523" y="85"/>
			<point x="523" y="208" type="curve"/>
			<point x="523" y="330"/>
			<point x="422" y="430"/>
			<point x="298" y="430" type="curve"/>
			<point x="205" y="430"/>
			<point x="128" y="376"/>
			<point x="95" y="287" type="curve"/>
			<point x="104" y="368"/>
			<point x="149" y="456"/>
			<point x="211" y="514" type="curve"/>
			<point x="277" y="575"/>
			<point x="358" y="609"/>
			<point x="444" y="611" type="curve"/>
			<point x="444" y="650" type="line"/>
			<point x="356" y="650"/>
			<point x="263" y="612"/>
			<point x="191" y="547" type="curve"/>
			<point x="106" y="471"/>
			<point x="56" y="363"/>
			<point x="56" y="256" type="curve"/>
			<point x="56" y="99"/>
			<point x="155" y="-13"/>
		</contour>
		<contour>
			<point x="294" y="27" type="curve"/>
			<point x="294" y="27" type="line"/>
			<point x="193" y="27"/>
			<point x="107" y="110"/>
			<point x="107" y="207" type="curve"/>
			<point x="107" y="305"/>
			<point x="196" y="390"/>
			<point x="297" y="390" type="curve"/>
			<point x="397" y="390"/>
			<point x="481" y="308"/>
			<point x="481" y="209" type="curve"/>
			<point x="481" y="109"/>
			<point x="396" y="27"/>
		</contour>
	</outline>
</glyph>
<glyph name="seven" format="2">
	<advance width="477"/>
	<unicode hex="0037"/>
	<outline>
		<contour>
			<point x="383" y="601" type="line"/>
			<point x="138" y="1" type="line"/>
			<point x="183" y="1" type="line"/>
			<point x="439" y="626" type="line"/>
			<point x="439" y="641" type="line"/>
			<point x="33" y="641" type="line"/>
			<point x="33" y="602" type="line"/>
		</contour>
	</outline>
</glyph>
<glyph name="eight" format="2">
	<advance width="548"/>
	<unicode hex="0038"/>
	<outline>
		<contour>
			<point x="275" y="-15" type="curve"/>
			<point x="275" y="-15" type="line"/>
			<point x="403" y="-15"/>
			<point x="493" y="53"/>
			<point x="493" y="174" type="curve"/>
			<point x="493" y="268"/>
			<point x="433" y="326"/>
			<point x="349" y="356" type="curve"/>
			<point x="393" y="378"/>
			<point x="455" y="426"/>
			<point x="455" y="506" type="curve"/>
			<point x="455" y="591"/>
			<point x="377" y="656"/>
			<point x="272" y="656" type="curve"/>
			<point x="168" y="656"/>
			<point x="94" y="592"/>
			<point x="94" y="502" type="curve"/>
			<point x="94" y="444"/>
			<point x="121" y="399"/>
			<point x="184" y="369" type="curve"/>
			<point x="110" y="319"/>
			<point x="56" y="263"/>
			<point x="56" y="176" type="curve"/>
			<point x="56" y="56"/>
			<point x="143" y="-15"/>
		</contour>
		<contour>
			<point x="275" y="23" type="curve"/>
			<point x="275" y="23" type="line"/>
			<point x="167" y="23"/>
			<point x="98" y="83"/>
			<point x="98" y="179" type="curve"/>
			<point x="98" y="238"/>
			<point x="127" y="272"/>
			<point x="213" y="348" type="curve"/>
			<point x="220" y="354"/>
			<point x="217" y="352"/>
			<point x="221" y="355" type="curve"/>
			<point x="230" y="353"/>
			<point x="245" y="349"/>
			<point x="248" y="348" type="curve"/>
			<point x="353" y="320"/>
			<point x="451" y="286"/>
			<point x="451" y="178" type="curve"/>
			<point x="451" y="85"/>
			<point x="384" y="23"/>
		</contour>
		<contour>
			<point x="317" y="368" type="curve"/>
			<point x="317" y="368" type="line"/>
			<point x="299" y="372" type="line"/>
			<point x="230" y="393" type="line" smooth="yes"/>
			<point x="179" y="409"/>
			<point x="136" y="441"/>
			<point x="136" y="502" type="curve"/>
			<point x="136" y="566"/>
			<point x="194" y="618"/>
			<point x="274" y="618" type="curve"/>
			<point x="354" y="618"/>
			<point x="413" y="566"/>
			<point x="413" y="502" type="curve"/>
			<point x="413" y="439"/>
			<point x="367" y="403"/>
		</contour>
	</outline>
</glyph>
<glyph name="less" format="1">
  <advance width="366"/>
  <unicode hex="003C"/>
  <outline>
    <contour>
      <point x="311" y="124" type="line"/>
      <point x="107" y="266" type="line"/>
      <point x="309" y="407" type="line"/>
      <point x="285" y="443" type="line"/>
      <point x="28" y="264" type="line"/>
      <point x="285" y="86" type="line"/>
    </contour>
  </outline>
</glyph>
<glyph name="equal" format="2">
	<advance width="541"/>
	<unicode hex="003D"/>
	<outline>
		<contour>
			<point x="98" y="355" type="line"/>
			<point x="443" y="355" type="line"/>
			<point x="443" y="394" type="line"/>
			<point x="98" y="394" type="line"/>
		</contour>
		<contour>
			<point x="98" y="192" type="line"/>
			<point x="443" y="192" type="line"/>
			<point x="443" y="231" type="line"/>
			<point x="98" y="231" type="line"/>
		</contour>
	</outline>
</glyph>
<glyph name="greater" format="1">
  <advance width="377"/>
  <unicode hex="003E"/>
  <outline>
    <contour>
      <point x="331" y="264" type="line"/>
      <point x="74" y="443" type="line"/>
      <point x="48" y="405" type="line"/>
      <point x="252" y="262" type="line"/>
      <point x="50" y="122" type="line"/>
      <point x="74" y="86" type="line"/>
    </contour>
  </outline>
</glyph>
<glyph name="question" format="2">
	<advance width="432"/>
	<unicode hex="003F"/>
	<outline>
		<contour>
			<point x="121" y="144" type="curve"/>
			<point x="160" y="153" type="line"/>
			<point x="158" y="165"/>
			<point x="156" y="177"/>
			<point x="156" y="189" type="curve" smooth="yes"/>
			<point x="156" y="208"/>
			<point x="161" y="228"/>
			<point x="176" y="247" type="curve" smooth="yes"/>
			<point x="200" y="277"/>
			<point x="229" y="291"/>
			<point x="282" y="323" type="curve" smooth="yes"/>
			<point x="320" y="347"/>
			<point x="361" y="373"/>
			<point x="383" y="423" type="curve" smooth="yes"/>
			<point x="395" y="448"/>
			<point x="400" y="477"/>
			<point x="400" y="506" type="curve" smooth="yes"/>
			<point x="400" y="535"/>
			<point x="395" y="563"/>
			<point x="384" y="588" type="curve" smooth="yes"/>
			<point x="353" y="661"/>
			<point x="277" y="704"/>
			<point x="201" y="704" type="curve" smooth="yes"/>
			<point x="181" y="704"/>
			<point x="158" y="701"/>
			<point x="139" y="696" type="curve" smooth="yes"/>
			<point x="80" y="681"/>
			<point x="23" y="641"/>
			<point x="23" y="579" type="curve" smooth="yes"/>
			<point x="23" y="537"/>
			<point x="48" y="506"/>
			<point x="106" y="506" type="curve" smooth="yes"/>
			<point x="111" y="506" type="line"/>
			<point x="101" y="546" type="line"/>
			<point x="88" y="547"/>
			<point x="62" y="552"/>
			<point x="62" y="582" type="curve" smooth="yes"/>
			<point x="62" y="631"/>
			<point x="143" y="664"/>
			<point x="200" y="664" type="curve" smooth="yes"/>
			<point x="265" y="664"/>
			<point x="323" y="625"/>
			<point x="347" y="572" type="curve"/>
			<point x="357" y="552"/>
			<point x="361" y="530"/>
			<point x="361" y="510" type="curve" smooth="yes"/>
			<point x="361" y="483"/>
			<point x="354" y="455"/>
			<point x="341" y="432" type="curve" smooth="yes"/>
			<point x="321" y="396"/>
			<point x="289" y="370"/>
			<point x="235" y="341" type="curve" smooth="yes"/>
			<point x="199" y="321"/>
			<point x="157" y="298"/>
			<point x="134" y="259" type="curve" smooth="yes"/>
			<point x="119" y="234"/>
			<point x="117" y="211"/>
			<point x="117" y="189" type="curve" smooth="yes"/>
			<point x="117" y="173"/>
			<point x="118" y="159"/>
		</contour>
		<contour>
			<point x="158" y="6" type="curve" smooth="yes"/>
			<point x="182" y="6"/>
			<point x="199" y="24"/>
			<point x="199" y="47" type="curve" smooth="yes"/>
			<point x="199" y="71"/>
			<point x="182" y="89"/>
			<point x="158" y="89" type="curve" smooth="yes"/>
			<point x="135" y="89"/>
			<point x="117" y="70"/>
			<point x="117" y="47" type="curve" smooth="yes"/>
			<point x="117" y="24"/>
			<point x="135" y="6"/>
		</contour>
	</outline>
</glyph>
<glyph name="at" format="2">
	<advance width="759"/>
	<unicode hex="0040"/>
	<outline>
		<contour>
			<point x="387" y="-60" type="curve"/>
			<point x="387" y="-60" type="line"/>
			<point x="436" y="-60"/>
			<point x="512" y="-52"/>
			<point x="587" y="-17" type="curve"/>
			<point x="577" y="17" type="line"/>
			<point x="530" y="-8"/>
			<point x="459" y="-22"/>
			<point x="394" y="-22" type="curve"/>
			<point x="226" y="-22"/>
			<point x="127" y="75"/>
			<point x="127" y="236" type="curve"/>
			<point x="127" y="396"/>
			<point x="226" y="508"/>
			<point x="384" y="508" type="curve"/>
			<point x="533" y="508"/>
			<point x="638" y="408"/>
			<point x="638" y="265" type="curve"/>
			<point x="638" y="182"/>
			<point x="603" y="122"/>
			<point x="544" y="122" type="curve"/>
			<point x="506" y="122"/>
			<point x="482" y="147"/>
			<point x="475" y="191" type="curve"/>
			<point x="475" y="396" type="line"/>
			<point x="434" y="396" type="line"/>
			<point x="423" y="397"/>
			<point x="409" y="397"/>
			<point x="400" y="398" type="curve"/>
			<point x="392" y="399"/>
			<point x="380" y="401"/>
			<point x="368" y="401" type="curve"/>
			<point x="306" y="401"/>
			<point x="228" y="352"/>
			<point x="228" y="253" type="curve"/>
			<point x="228" y="159"/>
			<point x="285" y="104"/>
			<point x="355" y="104" type="curve"/>
			<point x="394" y="104"/>
			<point x="434" y="129"/>
			<point x="450" y="165" type="curve"/>
			<point x="459" y="122"/>
			<point x="494" y="90"/>
			<point x="543" y="90" type="curve"/>
			<point x="632" y="90"/>
			<point x="680" y="160"/>
			<point x="680" y="262" type="curve"/>
			<point x="680" y="424"/>
			<point x="561" y="546"/>
			<point x="384" y="546" type="curve"/>
			<point x="202" y="546"/>
			<point x="85" y="417"/>
			<point x="85" y="234" type="curve"/>
			<point x="85" y="42"/>
			<point x="213" y="-60"/>
		</contour>
		<contour>
			<point x="352" y="141" type="curve"/>
			<point x="352" y="141" type="line"/>
			<point x="289" y="141"/>
			<point x="270" y="202"/>
			<point x="270" y="255" type="curve"/>
			<point x="270" y="317"/>
			<point x="309" y="364"/>
			<point x="370" y="364" type="curve"/>
			<point x="392" y="364"/>
			<point x="413" y="364"/>
			<point x="435" y="364" type="curve"/>
			<point x="435" y="210" type="line"/>
			<point x="433" y="206"/>
			<point x="429" y="198"/>
			<point x="428" y="195" type="curve"/>
			<point x="418" y="174"/>
			<point x="396" y="141"/>
		</contour>
	</outline>
</glyph>
<glyph name="A" format="1">
  <advance width="771"/>
  <unicode hex="0041"/>
  <outline>
    <contour>
      <point x="131" y="-3"/>
      <point x="162" y="14"/>
      <point x="175" y="48" type="curve" smooth="yes"/>
      <point x="251" y="233" type="line"/>
      <point x="562" y="233" type="line"/>
      <point x="659" y="1" type="line"/>
      <point x="708" y="1" type="line"/>
      <point x="412" y="687" type="line"/>
      <point x="402" y="687" type="line"/>
      <point x="134" y="68" type="line"/>
      <point x="129" y="54"/>
      <point x="116" y="43"/>
      <point x="98" y="43" type="curve" smooth="yes"/>
      <point x="79" y="43"/>
      <point x="65" y="55"/>
      <point x="59" y="69" type="curve"/>
      <point x="14" y="61" type="line"/>
      <point x="24" y="22"/>
      <point x="59" y="-3"/>
      <point x="98" y="-3" type="curve" smooth="yes"/>
    </contour>
    <contour>
      <point x="389" y="560" type="line"/>
      <point x="389" y="559" type="line"/>
      <point x="406" y="614" type="line"/>
      <point x="424" y="559" type="line"/>
      <point x="424" y="560" type="line"/>
      <point x="543" y="277" type="line"/>
      <point x="270" y="277" type="line"/>
    </contour>
    <contour>
      <point x="718" y="-6" type="move" name="ogonek"/>
    </contour>
    <contour>
      <point x="407" y="-6" type="move" name="bottom"/>
    </contour>
    <contour>
      <point x="407" y="694" type="move" name="top"/>
    </contour>
  </outline>
</glyph>
<glyph name="B" format="2">
	<advance width="647"/>
	<unicode hex="0042"/>
	<anchor x="307" y="684" name="top"/>
	<anchor x="307" y="0" name="bottom"/>
	<outline>
		<contour>
			<point x="142" y="657" type="curve"/>
			<point x="142" y="1" type="line"/>
			<point x="186" y="-4" type="line" smooth="yes"/>
			<point x="227" y="-9"/>
			<point x="304" y="-9"/>
			<point x="325" y="-9" type="curve"/>
			<point x="482" y="-9"/>
			<point x="586" y="46"/>
			<point x="586" y="180" type="curve"/>
			<point x="586" y="261"/>
			<point x="548" y="312"/>
			<point x="485" y="347" type="curve"/>
			<point x="465" y="358"/>
			<point x="444" y="363"/>
			<point x="424" y="366" type="curve"/>
			<point x="447" y="369"/>
			<point x="467" y="374"/>
			<point x="483" y="385" type="curve"/>
			<point x="522" y="412"/>
			<point x="555" y="458"/>
			<point x="555" y="520" type="curve"/>
			<point x="555" y="626"/>
			<point x="471" y="696"/>
			<point x="357" y="696" type="curve"/>
			<point x="143" y="696" type="line"/>
			<point x="107" y="696"/>
			<point x="81" y="688"/>
			<point x="66" y="674" type="curve"/>
			<point x="46" y="656"/>
			<point x="39" y="633"/>
			<point x="38" y="607" type="curve"/>
			<point x="76" y="607" type="line"/>
			<point x="77" y="618"/>
			<point x="78" y="635"/>
			<point x="91" y="645" type="curve"/>
			<point x="102" y="653"/>
			<point x="114" y="657"/>
		</contour>
		<contour>
			<point x="329" y="30" type="curve"/>
			<point x="329" y="30" type="line"/>
			<point x="306" y="30"/>
			<point x="303" y="31"/>
			<point x="184" y="35" type="curve"/>
			<point x="184" y="657" type="line"/>
			<point x="371" y="657" type="line"/>
			<point x="447" y="653"/>
			<point x="511" y="609"/>
			<point x="511" y="520" type="curve"/>
			<point x="511" y="479"/>
			<point x="496" y="444"/>
			<point x="467" y="419" type="curve"/>
			<point x="441" y="397"/>
			<point x="400" y="384"/>
			<point x="356" y="384" type="curve"/>
			<point x="274" y="384" type="line"/>
			<point x="274" y="345" type="line"/>
			<point x="363" y="345" type="line" smooth="yes"/>
			<point x="460" y="345"/>
			<point x="543" y="284"/>
			<point x="543" y="181" type="curve"/>
			<point x="543" y="70"/>
			<point x="453" y="30"/>
		</contour>
	</outline>
</glyph>
<glyph name="C" format="1">
  <advance width="672"/>
  <unicode hex="0043"/>
  <outline>
    <contour>
      <point x="487" y="-21"/>
      <point x="592" y="24"/>
      <point x="659" y="119" type="curve"/>
      <point x="625" y="142" type="line"/>
      <point x="572" y="67"/>
      <point x="480" y="20"/>
      <point x="383" y="20" type="curve" smooth="yes"/>
      <point x="208" y="20"/>
      <point x="75" y="166"/>
      <point x="75" y="337" type="curve" smooth="yes"/>
      <point x="75" y="513"/>
      <point x="216" y="669"/>
      <point x="389" y="669" type="curve" smooth="yes"/>
      <point x="442" y="669"/>
      <point x="516" y="654"/>
      <point x="555" y="613" type="curve" smooth="yes"/>
      <point x="568" y="599"/>
      <point x="576" y="583"/>
      <point x="576" y="566" type="curve" smooth="yes"/>
      <point x="576" y="541"/>
      <point x="559" y="518"/>
      <point x="536" y="518" type="curve" smooth="yes"/>
      <point x="528" y="518"/>
      <point x="521" y="521"/>
      <point x="514" y="524" type="curve"/>
      <point x="488" y="491" type="line"/>
      <point x="502" y="482"/>
      <point x="518" y="477"/>
      <point x="535" y="477" type="curve" smooth="yes"/>
      <point x="582" y="477"/>
      <point x="616" y="515"/>
      <point x="616" y="565" type="curve" smooth="yes"/>
      <point x="616" y="587"/>
      <point x="610" y="608"/>
      <point x="597" y="628" type="curve" smooth="yes"/>
      <point x="557" y="689"/>
      <point x="457" y="711"/>
      <point x="388" y="711" type="curve" smooth="yes"/>
      <point x="194" y="711"/>
      <point x="34" y="540"/>
      <point x="34" y="337" type="curve" smooth="yes"/>
      <point x="34" y="140"/>
      <point x="184" y="-21"/>
      <point x="382" y="-21" type="curve" smooth="yes"/>
    </contour>
    <contour>
      <point x="364" y="721" type="move" name="top"/>
    </contour>
    <contour>
      <point x="364" y="-27" type="move" name="bottom"/>
    </contour>
  </outline>
</glyph>
<glyph name="D" format="1">
  <advance width="801"/>
  <unicode hex="0044"/>
  <outline>
    <contour>
      <point x="583" y="-8"/>
      <point x="732" y="93"/>
      <point x="732" y="330" type="curve" smooth="yes"/>
      <point x="732" y="541"/>
      <point x="614" y="673"/>
      <point x="415" y="690" type="curve"/>
      <point x="110" y="691" type="line" smooth="yes"/>
      <point x="82" y="691"/>
      <point x="59" y="679"/>
      <point x="41" y="661" type="curve" smooth="yes"/>
      <point x="21" y="642"/>
      <point x="13" y="621"/>
      <point x="12" y="598" type="curve"/>
      <point x="55" y="598" type="line"/>
      <point x="56" y="606"/>
      <point x="59" y="619"/>
      <point x="70" y="629" type="curve"/>
      <point x="85" y="645"/>
      <point x="113" y="649"/>
      <point x="139" y="648" type="curve"/>
      <point x="139" y="0" type="line"/>
      <point x="153" y="-2" type="line"/>
      <point x="152" y="-2" type="line"/>
      <point x="180" y="-4" type="line" smooth="yes"/>
      <point x="191" y="-5"/>
      <point x="246" y="-8"/>
      <point x="296" y="-8" type="curve" smooth="yes"/>
    </contour>
    <contour>
      <point x="333" y="33"/>
      <point x="219" y="37"/>
      <point x="194" y="38" type="curve"/>
      <point x="187" y="45" type="line"/>
      <point x="187" y="648" type="line"/>
      <point x="405" y="648" type="line"/>
      <point x="575" y="639"/>
      <point x="685" y="519"/>
      <point x="685" y="339" type="curve" smooth="yes"/>
      <point x="685" y="143"/>
      <point x="556" y="33"/>
      <point x="368" y="33" type="curve" smooth="yes"/>
    </contour>
    <contour>
      <point x="401" y="-6" type="move" name="center"/>
    </contour>
    <contour>
      <point x="401" y="692" type="move" name="top"/>
    </contour>
  </outline>
</glyph>
<glyph name="E" format="1">
  <advance width="590"/>
  <unicode hex="0045"/>
  <outline>
    <contour>
      <point x="567" y="1" type="line"/>
      <point x="567" y="45" type="line"/>
      <point x="173" y="45" type="line"/>
      <point x="173" y="341" type="line"/>
      <point x="445" y="341" type="line"/>
      <point x="445" y="385" type="line"/>
      <point x="173" y="385" type="line"/>
      <point x="173" y="642" type="line"/>
      <point x="567" y="642" type="line"/>
      <point x="567" y="685" type="line"/>
      <point x="104" y="685" type="line" smooth="yes"/>
      <point x="76" y="685"/>
      <point x="54" y="673"/>
      <point x="35" y="654" type="curve" smooth="yes"/>
      <point x="18" y="637"/>
      <point x="8" y="617"/>
      <point x="7" y="592" type="curve"/>
      <point x="50" y="592" type="line"/>
      <point x="52" y="604"/>
      <point x="58" y="618"/>
      <point x="66" y="625" type="curve" smooth="yes"/>
      <point x="78" y="637"/>
      <point x="92" y="642"/>
      <point x="125" y="642" type="curve"/>
      <point x="125" y="1" type="line"/>
    </contour>
    <contour>
      <point x="581" y="7" type="move" name="ogonek"/>
    </contour>
    <contour>
      <point x="352" y="-6" type="move" name="bottom"/>
    </contour>
    <contour>
      <point x="341" y="692" type="move" name="top"/>
    </contour>
  </outline>
</glyph>
<glyph name="F" format="2">
	<advance width="609"/>
	<unicode hex="0046"/>
	<anchor x="302" y="684" name="top"/>
	<anchor x="302" y="0" name="bottom"/>
	<outline>
		<contour>
			<point x="142" y="645" type="curve"/>
			<point x="142" y="0" type="line"/>
			<point x="184" y="0" type="line"/>
			<point x="184" y="343" type="line"/>
			<point x="450" y="343" type="line"/>
			<point x="450" y="383" type="line"/>
			<point x="184" y="383" type="line"/>
			<point x="184" y="644" type="line"/>
			<point x="572" y="644" type="line"/>
			<point x="572" y="684" type="line"/>
			<point x="143" y="684" type="line"/>
			<point x="107" y="684"/>
			<point x="81" y="676"/>
			<point x="66" y="662" type="curve"/>
			<point x="46" y="644"/>
			<point x="39" y="621"/>
			<point x="38" y="595" type="curve"/>
			<point x="76" y="595" type="line"/>
			<point x="77" y="606"/>
			<point x="78" y="623"/>
			<point x="91" y="633" type="curve"/>
			<point x="102" y="641"/>
			<point x="114" y="645"/>
		</contour>
	</outline>
</glyph>
<glyph name="G" format="1">
  <advance width="746"/>
  <unicode hex="0047"/>
  <outline>
    <contour>
      <point x="618" y="-275"/>
      <point x="665" y="-247"/>
      <point x="665" y="-188" type="curve" smooth="yes"/>
      <point x="665" y="296" type="line"/>
      <point x="621" y="296" type="line"/>
      <point x="621" y="221" type="line"/>
      <point x="605" y="104"/>
      <point x="510" y="10"/>
      <point x="379" y="10" type="curve" smooth="yes"/>
      <point x="214" y="10"/>
      <point x="79" y="157"/>
      <point x="79" y="329" type="curve" smooth="yes"/>
      <point x="79" y="504"/>
      <point x="219" y="661"/>
      <point x="389" y="661" type="curve" smooth="yes"/>
      <point x="453" y="661"/>
      <point x="574" y="637"/>
      <point x="574" y="563" type="curve" smooth="yes"/>
      <point x="574" y="537"/>
      <point x="557" y="514"/>
      <point x="534" y="514" type="curve" smooth="yes"/>
      <point x="528" y="514"/>
      <point x="521" y="516"/>
      <point x="514" y="519" type="curve"/>
      <point x="488" y="486" type="line"/>
      <point x="502" y="477"/>
      <point x="517" y="473"/>
      <point x="533" y="473" type="curve" smooth="yes"/>
      <point x="581" y="473"/>
      <point x="615" y="509"/>
      <point x="615" y="563" type="curve" smooth="yes"/>
      <point x="615" y="669"/>
      <point x="473" y="703"/>
      <point x="388" y="703" type="curve" smooth="yes"/>
      <point x="200" y="703"/>
      <point x="38" y="531"/>
      <point x="38" y="330" type="curve" smooth="yes"/>
      <point x="38" y="138"/>
      <point x="185" y="-31"/>
      <point x="379" y="-31" type="curve" smooth="yes"/>
      <point x="476" y="-31"/>
      <point x="564" y="12"/>
      <point x="621" y="100" type="curve"/>
      <point x="621" y="-188" type="line"/>
      <point x="619" y="-207"/>
      <point x="605" y="-229"/>
      <point x="578" y="-229" type="curve" smooth="yes"/>
      <point x="565" y="-229"/>
      <point x="555" y="-224"/>
      <point x="548" y="-217" type="curve"/>
      <point x="510" y="-242" type="line"/>
      <point x="526" y="-263"/>
      <point x="549" y="-275"/>
      <point x="577" y="-275" type="curve" smooth="yes"/>
    </contour>
    <contour>
      <point x="388" y="703" type="move" name="top"/>
    </contour>
    <contour>
      <point x="379" y="-35" type="move" name="bottom"/>
    </contour>
  </outline>
</glyph>
<glyph name="H" format="2">
	<advance width="721"/>
	<unicode hex="0048"/>
	<anchor x="379" y="491" name="center"/>
	<anchor x="376" y="684" name="top"/>
	<anchor x="46" y="684" name="topleft"/>
	<anchor x="376" y="0" name="bottom"/>
	<outline>
		<contour>
			<point x="138" y="569" type="line"/>
			<point x="138" y="1" type="line"/>
			<point x="180" y="1" type="line"/>
			<point x="180" y="338" type="line"/>
			<point x="575" y="338" type="line"/>
			<point x="575" y="1" type="line"/>
			<point x="617" y="1" type="line"/>
			<point x="617" y="685" type="line"/>
			<point x="575" y="685" type="line"/>
			<point x="575" y="378" type="line"/>
			<point x="180" y="378" type="line"/>
			<point x="180" y="569" type="line"/>
			<point x="180" y="604" type="line"/>
			<point x="180" y="670"/>
			<point x="143" y="701"/>
			<point x="93" y="701" type="curve"/>
			<point x="50" y="701"/>
			<point x="29" y="680"/>
			<point x="18" y="659" type="curve"/>
			<point x="49" y="636" type="line"/>
			<point x="52" y="641"/>
			<point x="62" y="661"/>
			<point x="91" y="661" type="curve"/>
			<point x="119" y="661"/>
			<point x="138" y="645"/>
			<point x="138" y="604" type="curve"/>
			<point x="138" y="569" type="line"/>
		</contour>
	</outline>
</glyph>
<glyph name="I" format="2">
	<advance width="220"/>
	<unicode hex="0049"/>
	<anchor x="150" y="9" name="ogonek"/>
	<anchor x="111" y="-2" name="bottom"/>
	<anchor x="108" y="692" name="top"/>
	<outline>
		<contour>
			<point x="86" y="1" type="line"/>
			<point x="134" y="1" type="line"/>
			<point x="134" y="685" type="line"/>
			<point x="86" y="685" type="line"/>
		</contour>
	</outline>
</glyph>
<glyph name="J" format="2">
	<advance width="450"/>
	<unicode hex="004A"/>
	<anchor x="217" y="690" name="top"/>
	<outline>
		<contour>
			<point x="196" y="-3" type="curve" smooth="yes"/>
			<point x="324" y="-3"/>
			<point x="376" y="90"/>
			<point x="376" y="189" type="curve" smooth="yes"/>
			<point x="376" y="688" type="line"/>
			<point x="329" y="688" type="line"/>
			<point x="325" y="683"/>
			<point x="318" y="678"/>
			<point x="311" y="673" type="curve"/>
			<point x="296" y="665"/>
			<point x="284" y="660"/>
			<point x="271" y="660" type="curve" smooth="yes"/>
			<point x="255" y="660"/>
			<point x="238" y="665"/>
			<point x="214" y="674" type="curve"/>
			<point x="148" y="695"/>
			<point x="140" y="697"/>
			<point x="125" y="697" type="curve" smooth="yes"/>
			<point x="100" y="697"/>
			<point x="83" y="692"/>
			<point x="28" y="671" type="curve"/>
			<point x="48" y="631" type="line"/>
			<point x="71" y="640"/>
			<point x="98" y="654"/>
			<point x="125" y="654" type="curve" smooth="yes"/>
			<point x="160" y="654"/>
			<point x="187" y="632"/>
			<point x="223" y="623" type="curve" smooth="yes"/>
			<point x="234" y="620"/>
			<point x="251" y="617"/>
			<point x="269" y="617" type="curve" smooth="yes"/>
			<point x="292" y="617"/>
			<point x="315" y="622"/>
			<point x="332" y="638" type="curve"/>
			<point x="332" y="192" type="line" smooth="yes"/>
			<point x="332" y="125"/>
			<point x="303" y="41"/>
			<point x="199" y="41" type="curve" smooth="yes"/>
			<point x="120" y="41"/>
			<point x="70" y="92"/>
			<point x="68" y="165" type="curve"/>
			<point x="24" y="169" type="line"/>
			<point x="28" y="82"/>
			<point x="74" y="-3"/>
		</contour>
	</outline>
</glyph>
<glyph name="K" format="2">
	<advance width="690"/>
	<unicode hex="004B"/>
	<anchor x="317" y="684" name="top"/>
	<anchor x="317" y="1" name="bottom"/>
	<outline>
		<contour>
			<point x="134" y="569" type="line"/>
			<point x="134" y="2" type="line"/>
			<point x="178" y="2" type="line"/>
			<point x="178" y="325" type="line"/>
			<point x="206" y="325"/>
			<point x="234" y="316"/>
			<point x="306" y="338" type="curve"/>
			<point x="524" y="30" type="line" smooth="yes"/>
			<point x="541" y="6"/>
			<point x="564" y="-7"/>
			<point x="590" y="-7" type="curve"/>
			<point x="613" y="-7"/>
			<point x="639" y="2"/>
			<point x="656" y="22" type="curve"/>
			<point x="623" y="45" type="line"/>
			<point x="615" y="38"/>
			<point x="605" y="33"/>
			<point x="593" y="33" type="curve"/>
			<point x="577" y="33"/>
			<point x="563" y="44"/>
			<point x="557" y="53" type="curve"/>
			<point x="346" y="351" type="line"/>
			<point x="371" y="370"/>
			<point x="377" y="380"/>
			<point x="404" y="417" type="curve"/>
			<point x="420" y="440"/>
			<point x="442" y="478"/>
			<point x="457" y="505" type="curve"/>
			<point x="461" y="512"/>
			<point x="500" y="581"/>
			<point x="555" y="685" type="curve"/>
			<point x="504" y="685" type="line"/>
			<point x="460" y="592"/>
			<point x="445" y="566"/>
			<point x="426" y="531" type="curve"/>
			<point x="404" y="490"/>
			<point x="378" y="451"/>
			<point x="354" y="420" type="curve"/>
			<point x="340" y="402"/>
			<point x="327" y="389"/>
			<point x="302" y="378" type="curve"/>
			<point x="284" y="370"/>
			<point x="263" y="363"/>
			<point x="232" y="363" type="curve"/>
			<point x="176" y="363" type="line"/>
			<point x="176" y="569" type="line"/>
			<point x="176" y="604" type="line"/>
			<point x="176" y="670"/>
			<point x="139" y="701"/>
			<point x="89" y="701" type="curve"/>
			<point x="46" y="701"/>
			<point x="25" y="680"/>
			<point x="14" y="659" type="curve"/>
			<point x="45" y="636" type="line"/>
			<point x="48" y="641"/>
			<point x="58" y="661"/>
			<point x="87" y="661" type="curve"/>
			<point x="115" y="661"/>
			<point x="134" y="645"/>
			<point x="134" y="604" type="curve"/>
			<point x="134" y="569" type="line"/>
		</contour>
	</outline>
</glyph>
<glyph name="L" format="2">
	<advance width="539"/>
	<unicode hex="004C"/>
	<anchor x="299" y="342" name="center"/>
	<anchor x="301" y="693" name="top"/>
	<anchor x="329" y="500" name="topright"/>
	<anchor x="301" y="-7" name="bottom"/>
	<outline>
		<contour>
			<point x="105" y="685" type="line"/>
			<point x="105" y="1" type="line"/>
			<point x="503" y="1" type="line"/>
			<point x="503" y="41" type="line"/>
			<point x="147" y="41" type="line"/>
			<point x="147" y="685" type="line"/>
		</contour>
	</outline>
</glyph>
<glyph name="M" format="1">
  <advance width="1013"/>
  <unicode hex="004D"/>
  <outline>
    <contour>
      <point x="130" y="-6"/>
      <point x="161" y="23"/>
      <point x="169" y="61" type="curve" smooth="yes"/>
      <point x="271" y="568" type="line"/>
      <point x="282" y="641" type="line"/>
      <point x="302" y="568" type="line"/>
      <point x="302" y="569" type="line"/>
      <point x="506" y="1" type="line"/>
      <point x="556" y="1" type="line"/>
      <point x="762" y="570" type="line"/>
      <point x="761" y="569" type="line"/>
      <point x="781" y="640" type="line"/>
      <point x="793" y="569" type="line"/>
      <point x="907" y="1" type="line"/>
      <point x="950" y="1" type="line"/>
      <point x="810" y="685" type="line"/>
      <point x="763" y="685" type="line"/>
      <point x="550" y="107" type="line"/>
      <point x="532" y="43" type="line"/>
      <point x="514" y="107" type="line"/>
      <point x="302" y="685" type="line"/>
      <point x="253" y="685" type="line"/>
      <point x="126" y="65" type="line"/>
      <point x="125" y="64" type="line"/>
      <point x="119" y="47"/>
      <point x="105" y="37"/>
      <point x="89" y="37" type="curve" smooth="yes"/>
      <point x="72" y="37"/>
      <point x="62" y="45"/>
      <point x="55" y="56" type="curve"/>
      <point x="14" y="39" type="line"/>
      <point x="28" y="13"/>
      <point x="55" y="-6"/>
      <point x="89" y="-6" type="curve" smooth="yes"/>
    </contour>
  </outline>
</glyph>
<glyph name="N" format="2">
	<advance width="775"/>
	<unicode hex="004E"/>
	<anchor x="412" y="692" name="top"/>
	<anchor x="413" y="-6" name="bottom"/>
	<outline>
		<contour>
			<point x="88" y="-3" type="curve" smooth="yes"/>
			<point x="127" y="-3"/>
			<point x="180" y="24"/>
			<point x="180" y="81" type="curve"/>
			<point x="176" y="614" type="line"/>
			<point x="203" y="572" type="line"/>
			<point x="203" y="573" type="line"/>
			<point x="681" y="1" type="line"/>
			<point x="689" y="1" type="line"/>
			<point x="689" y="684" type="line"/>
			<point x="643" y="684" type="line"/>
			<point x="646" y="101" type="line"/>
			<point x="619" y="144" type="line"/>
			<point x="619" y="143" type="line"/>
			<point x="272" y="560" type="line"/>
			<point x="161" y="685" type="line"/>
			<point x="133" y="685" type="line"/>
			<point x="133" y="81" type="line"/>
			<point x="132" y="62"/>
			<point x="116" y="40"/>
			<point x="91" y="40" type="curve" smooth="yes"/>
			<point x="73" y="40"/>
			<point x="53" y="53"/>
			<point x="49" y="75" type="curve"/>
			<point x="6" y="75" type="line"/>
			<point x="9" y="30"/>
			<point x="46" y="-3"/>
		</contour>
	</outline>
</glyph>
<glyph name="O" format="1">
  <advance width="783"/>
  <unicode hex="004F"/>
  <outline>
    <contour>
      <point x="594" y="-26"/>
      <point x="748" y="134"/>
      <point x="748" y="331" type="curve" smooth="yes"/>
      <point x="748" y="350" type="line" smooth="yes"/>
      <point x="748" y="544"/>
      <point x="591" y="707"/>
      <point x="391" y="707" type="curve" smooth="yes"/>
      <point x="189" y="707"/>
      <point x="35" y="542"/>
      <point x="35" y="350" type="curve" smooth="yes"/>
      <point x="35" y="331" type="line" smooth="yes"/>
      <point x="35" y="136"/>
      <point x="195" y="-26"/>
      <point x="395" y="-26" type="curve" smooth="yes"/>
    </contour>
    <contour>
      <point x="224" y="15"/>
      <point x="82" y="156"/>
      <point x="82" y="331" type="curve" smooth="yes"/>
      <point x="82" y="350" type="line" smooth="yes"/>
      <point x="82" y="516"/>
      <point x="216" y="665"/>
      <point x="390" y="665" type="curve" smooth="yes"/>
      <point x="556" y="665"/>
      <point x="701" y="526"/>
      <point x="701" y="350" type="curve" smooth="yes"/>
      <point x="701" y="331" type="line" smooth="yes"/>
      <point x="701" y="160"/>
      <point x="563" y="15"/>
      <point x="392" y="15" type="curve" smooth="yes"/>
    </contour>
    <contour>
      <point x="394" y="-34" type="move" name="bottom"/>
    </contour>
    <contour>
      <point x="652" y="79" type="move" name="ogonek"/>
    </contour>
    <contour>
      <point x="385" y="342" type="move" name="center"/>
    </contour>
    <contour>
      <point x="701" y="534" type="move" name="horn"/>
    </contour>
    <contour>
      <point x="390" y="692" type="move" name="top"/>
    </contour>
    <contour>
      <point x="793" y="684" type="move" name="topright"/>
    </contour>
    <contour>
      <point x="20" y="684" type="move" name="topleft"/>
    </contour>
  </outline>
</glyph>
<glyph name="P" format="2">
	<advance width="594"/>
	<unicode hex="0050"/>
	<anchor x="281" y="684" name="top"/>
	<anchor x="281" y="0" name="bottom"/>
	<outline>
		<contour>
			<point x="142" y="645" type="curve"/>
			<point x="142" y="0" type="line"/>
			<point x="184" y="0" type="line"/>
			<point x="184" y="645" type="line"/>
			<point x="339" y="645" type="line" smooth="yes"/>
			<point x="431" y="645"/>
			<point x="499" y="590"/>
			<point x="499" y="475" type="curve"/>
			<point x="499" y="351"/>
			<point x="421" y="305"/>
			<point x="318" y="305" type="curve"/>
			<point x="306" y="305"/>
			<point x="288" y="306"/>
			<point x="254" y="308" type="curve"/>
			<point x="254" y="270" type="line"/>
			<point x="284" y="266"/>
			<point x="308" y="265"/>
			<point x="323" y="265" type="curve"/>
			<point x="440" y="265"/>
			<point x="541" y="328"/>
			<point x="541" y="476" type="curve"/>
			<point x="541" y="597"/>
			<point x="475" y="686"/>
			<point x="353" y="685" type="curve"/>
			<point x="143" y="684" type="line"/>
			<point x="107" y="684"/>
			<point x="81" y="676"/>
			<point x="66" y="662" type="curve"/>
			<point x="46" y="644"/>
			<point x="39" y="621"/>
			<point x="38" y="595" type="curve"/>
			<point x="76" y="595" type="line"/>
			<point x="77" y="606"/>
			<point x="78" y="623"/>
			<point x="91" y="633" type="curve"/>
			<point x="102" y="641"/>
			<point x="114" y="645"/>
		</contour>
	</outline>
</glyph>
<glyph name="Q" format="2">
	<advance width="788"/>
	<unicode hex="0051"/>
	<anchor x="395" y="684" name="top"/>
	<anchor x="395" y="0" name="bottom"/>
	<outline>
		<contour>
			<point x="198" y="-176" type="line"/>
			<point x="229" y="-199" type="line"/>
			<point x="269" y="-138" type="line"/>
			<point x="377" y="-174" type="line" smooth="yes"/>
			<point x="424" y="-190"/>
			<point x="460" y="-197"/>
			<point x="508" y="-197" type="curve"/>
			<point x="541" y="-197"/>
			<point x="566" y="-193"/>
			<point x="615" y="-159" type="curve"/>
			<point x="597" y="-129" type="line"/>
			<point x="558" y="-155"/>
			<point x="532" y="-161"/>
			<point x="501" y="-161" type="curve"/>
			<point x="467" y="-161"/>
			<point x="426" y="-154"/>
			<point x="384" y="-140" type="curve"/>
			<point x="292" y="-109" type="line"/>
			<point x="361" y="-8" type="line"/>
			<point x="395" y="-8" type="line" smooth="yes"/>
			<point x="594" y="-8"/>
			<point x="726" y="138"/>
			<point x="726" y="342" type="curve"/>
			<point x="726" y="544"/>
			<point x="597" y="695"/>
			<point x="394" y="695" type="curve"/>
			<point x="193" y="695"/>
			<point x="62" y="547"/>
			<point x="62" y="343" type="curve"/>
			<point x="62" y="174"/>
			<point x="149" y="33"/>
			<point x="323" y="-1" type="curve"/>
		</contour>
		<contour>
			<point x="394" y="30" type="curve"/>
			<point x="394" y="30" type="line"/>
			<point x="213" y="30"/>
			<point x="104" y="168"/>
			<point x="104" y="344" type="curve"/>
			<point x="104" y="522"/>
			<point x="216" y="657"/>
			<point x="395" y="657" type="curve"/>
			<point x="572" y="657"/>
			<point x="684" y="522"/>
			<point x="684" y="344" type="curve"/>
			<point x="684" y="167"/>
			<point x="574" y="30"/>
		</contour>
	</outline>
</glyph>
<glyph name="R" format="2">
	<advance width="696"/>
	<unicode hex="0052"/>
	<anchor x="285" y="684" name="top"/>
	<anchor x="320" y="-8" name="bottom"/>
	<outline>
		<contour>
			<point x="143" y="645" type="curve"/>
			<point x="143" y="645" type="line"/>
			<point x="143" y="1" type="line"/>
			<point x="185" y="1" type="line"/>
			<point x="185" y="645" type="line"/>
			<point x="358" y="645" type="line" smooth="yes"/>
			<point x="442" y="645"/>
			<point x="504" y="575"/>
			<point x="504" y="482" type="curve"/>
			<point x="504" y="387"/>
			<point x="441" y="323"/>
			<point x="347" y="323" type="curve"/>
			<point x="266" y="323" type="line"/>
			<point x="266" y="284" type="line"/>
			<point x="344" y="274"/>
			<point x="374" y="234"/>
			<point x="402" y="196" type="curve"/>
			<point x="525" y="28" type="line" smooth="yes"/>
			<point x="544" y="3"/>
			<point x="567" y="-9"/>
			<point x="594" y="-9" type="curve"/>
			<point x="622" y="-9"/>
			<point x="647" y="3"/>
			<point x="662" y="24" type="curve"/>
			<point x="631" y="45" type="line"/>
			<point x="622" y="36"/>
			<point x="607" y="30"/>
			<point x="593" y="30" type="curve"/>
			<point x="580" y="30"/>
			<point x="568" y="37"/>
			<point x="558" y="50" type="curve"/>
			<point x="410" y="250" type="line" smooth="yes"/>
			<point x="397" y="267"/>
			<point x="382" y="281"/>
			<point x="372" y="285" type="curve"/>
			<point x="365" y="288"/>
			<point x="358" y="291"/>
			<point x="351" y="294" type="curve"/>
			<point x="364" y="294"/>
			<point x="377" y="294"/>
			<point x="390" y="294" type="curve"/>
			<point x="479" y="294"/>
			<point x="546" y="375"/>
			<point x="546" y="482" type="curve"/>
			<point x="546" y="565"/>
			<point x="506" y="636"/>
			<point x="441" y="668" type="curve"/>
			<point x="417" y="680"/>
			<point x="391" y="685"/>
			<point x="362" y="685" type="curve"/>
			<point x="144" y="684" type="line"/>
			<point x="108" y="684"/>
			<point x="82" y="676"/>
			<point x="67" y="662" type="curve"/>
			<point x="47" y="644"/>
			<point x="40" y="621"/>
			<point x="39" y="595" type="curve"/>
			<point x="77" y="595" type="line"/>
			<point x="78" y="606"/>
			<point x="79" y="623"/>
			<point x="92" y="633" type="curve"/>
			<point x="103" y="641"/>
			<point x="115" y="645"/>
		</contour>
	</outline>
</glyph>
<glyph name="S" format="2">
	<advance width="561"/>
	<unicode hex="0053"/>
	<anchor x="277" y="684" name="top"/>
	<anchor x="285" y="8" name="bottom"/>
	<outline>
		<contour>
			<point x="277" y="-16" type="curve"/>
			<point x="277" y="-16" type="line"/>
			<point x="412" y="-16"/>
			<point x="509" y="73"/>
			<point x="509" y="198" type="curve"/>
			<point x="509" y="291"/>
			<point x="456" y="344"/>
			<point x="297" y="411" type="curve"/>
			<point x="178" y="462"/>
			<point x="150" y="487"/>
			<point x="150" y="543" type="curve"/>
			<point x="150" y="606"/>
			<point x="218" y="661"/>
			<point x="295" y="661" type="curve"/>
			<point x="358" y="661"/>
			<point x="405" y="628"/>
			<point x="405" y="583" type="curve"/>
			<point x="405" y="555"/>
			<point x="388" y="537"/>
			<point x="364" y="539" type="curve"/>
			<point x="361" y="501" type="line"/>
			<point x="405" y="496"/>
			<point x="447" y="532"/>
			<point x="447" y="585" type="curve"/>
			<point x="447" y="654"/>
			<point x="384" y="701"/>
			<point x="293" y="701" type="curve"/>
			<point x="187" y="701"/>
			<point x="108" y="633"/>
			<point x="108" y="541" type="curve"/>
			<point x="108" y="468"/>
			<point x="148" y="428"/>
			<point x="275" y="375" type="curve"/>
			<point x="421" y="314"/>
			<point x="466" y="272"/>
			<point x="466" y="197" type="curve"/>
			<point x="466" y="98"/>
			<point x="386" y="24"/>
			<point x="278" y="24" type="curve"/>
			<point x="184" y="24"/>
			<point x="103" y="80"/>
			<point x="77" y="164" type="curve"/>
			<point x="39" y="149" type="line"/>
			<point x="70" y="50"/>
			<point x="165" y="-16"/>
		</contour>
	</outline>
</glyph>
<glyph name="T" format="2">
	<advance width="608"/>
	<unicode hex="0054"/>
	<anchor x="312" y="352" name="center"/>
	<anchor x="313" y="0" name="bottom"/>
	<anchor x="311" y="684" name="top"/>
	<outline>
		<contour>
			<point x="290" y="645" type="line"/>
			<point x="290" y="1" type="line"/>
			<point x="332" y="1" type="line"/>
			<point x="332" y="645" type="line"/>
			<point x="571" y="645" type="line"/>
			<point x="571" y="685" type="line"/>
			<point x="118" y="685" type="line" smooth="yes"/>
			<point x="94" y="685"/>
			<point x="77" y="676"/>
			<point x="61" y="660" type="curve"/>
			<point x="46" y="645"/>
			<point x="38" y="630"/>
			<point x="37" y="610" type="curve"/>
			<point x="78" y="610" type="line"/>
			<point x="83" y="629"/>
			<point x="99" y="645"/>
			<point x="121" y="645" type="curve"/>
		</contour>
	</outline>
</glyph>
<glyph name="U" format="1">
  <advance width="718"/>
  <unicode hex="0055"/>
  <outline>
    <contour>
      <point x="573" y="-8"/>
      <point x="651" y="132"/>
      <point x="651" y="267" type="curve" smooth="yes"/>
      <point x="651" y="686" type="line"/>
      <point x="603" y="686" type="line"/>
      <point x="603" y="267" type="line" smooth="yes"/>
      <point x="603" y="158"/>
      <point x="542" y="34"/>
      <point x="386" y="34" type="curve" smooth="yes"/>
      <point x="241" y="34"/>
      <point x="168" y="141"/>
      <point x="168" y="267" type="curve" smooth="yes"/>
      <point x="168" y="601" type="line" smooth="yes"/>
      <point x="168" y="663"/>
      <point x="134" y="694"/>
      <point x="76" y="694" type="curve" smooth="yes"/>
      <point x="48" y="694"/>
      <point x="20" y="680"/>
      <point x="2" y="659" type="curve"/>
      <point x="42" y="632" type="line"/>
      <point x="51" y="641"/>
      <point x="65" y="647"/>
      <point x="78" y="647" type="curve" smooth="yes"/>
      <point x="93" y="647"/>
      <point x="119" y="639"/>
      <point x="120" y="601" type="curve" smooth="yes"/>
      <point x="120" y="267" type="line" smooth="yes"/>
      <point x="120" y="118"/>
      <point x="211" y="-8"/>
      <point x="387" y="-8" type="curve" smooth="yes"/>
    </contour>
    <contour>
      <point x="552" y="38" type="move" name="ogonek"/>
    </contour>
    <contour>
      <point x="385" y="692" type="move" name="top"/>
    </contour>
    <contour>
      <point x="657" y="540" type="move" name="horn"/>
    </contour>
    <contour>
      <point x="387" y="-16" type="move" name="bottom"/>
    </contour>
  </outline>
</glyph>
<glyph name="V" format="1">
  <advance width="674"/>
  <unicode hex="0056"/>
  <outline>
    <contour>
      <point x="390" y="1" type="line"/>
      <point x="613" y="686" type="line"/>
      <point x="566" y="686" type="line"/>
      <point x="366" y="59" type="line"/>
      <point x="168" y="644" type="line" smooth="yes"/>
      <point x="158" y="672"/>
      <point x="133" y="691"/>
      <point x="97" y="691" type="curve" smooth="yes"/>
      <point x="60" y="691"/>
      <point x="28" y="670"/>
      <point x="14" y="634" type="curve"/>
      <point x="58" y="622" type="line"/>
      <point x="66" y="636"/>
      <point x="82" y="644"/>
      <point x="95" y="644" type="curve" smooth="yes"/>
      <point x="110" y="644"/>
      <point x="126" y="634"/>
      <point x="132" y="619" type="curve"/>
      <point x="341" y="1" type="line"/>
    </contour>
  </outline>
</glyph>
<glyph name="W" format="1">
  <advance width="1123"/>
  <unicode hex="0057"/>
  <outline>
    <contour>
      <point x="803" y="94" type="line"/>
      <point x="613" y="686" type="line"/>
      <point x="563" y="686" type="line"/>
      <point x="373" y="94" type="line"/>
      <point x="361" y="41" type="line"/>
      <point x="352" y="83" type="line"/>
      <point x="350" y="95" type="line"/>
      <point x="350" y="94" type="line"/>
      <point x="176" y="635" type="line" smooth="yes"/>
      <point x="165" y="671"/>
      <point x="133" y="695"/>
      <point x="95" y="695" type="curve" smooth="yes"/>
      <point x="61" y="695"/>
      <point x="28" y="676"/>
      <point x="14" y="639" type="curve"/>
      <point x="57" y="627" type="line"/>
      <point x="65" y="643"/>
      <point x="80" y="651"/>
      <point x="94" y="651" type="curve" smooth="yes"/>
      <point x="109" y="651"/>
      <point x="126" y="640"/>
      <point x="133" y="622" type="curve"/>
      <point x="337" y="1" type="line"/>
      <point x="387" y="1" type="line"/>
      <point x="588" y="620" type="line"/>
      <point x="790" y="1" type="line"/>
      <point x="840" y="1" type="line"/>
      <point x="1062" y="686" type="line"/>
      <point x="1016" y="686" type="line"/>
      <point x="826" y="94" type="line"/>
      <point x="824" y="81" type="line"/>
      <point x="824" y="80" type="line" smooth="yes"/>
      <point x="824" y="78"/>
      <point x="823" y="75"/>
      <point x="823" y="71" type="curve" smooth="yes"/>
      <point x="823" y="0" type="line"/>
    </contour>
    <contour>
      <point x="589" y="692" type="move" name="top"/>
    </contour>
  </outline>
</glyph>
<glyph name="X" format="1">
  <advance width="599"/>
  <unicode hex="0058"/>
  <outline>
    <contour>
      <point x="547" y="-6"/>
      <point x="587" y="20"/>
      <point x="593" y="69" type="curve"/>
      <point x="547" y="71" type="line"/>
      <point x="542" y="54"/>
      <point x="527" y="39"/>
      <point x="507" y="39" type="curve" smooth="yes"/>
      <point x="492" y="39"/>
      <point x="480" y="47"/>
      <point x="474" y="56" type="curve"/>
      <point x="298" y="352" type="line"/>
      <point x="508" y="685" type="line"/>
      <point x="452" y="685" type="line"/>
      <point x="264" y="383" type="line"/>
      <point x="74" y="685" type="line"/>
      <point x="21" y="685" type="line"/>
      <point x="231" y="352" type="line"/>
      <point x="22" y="1" type="line"/>
      <point x="78" y="1" type="line"/>
      <point x="267" y="320" type="line"/>
      <point x="416" y="64" type="line" smooth="yes"/>
      <point x="441" y="18"/>
      <point x="461" y="-6"/>
      <point x="503" y="-6" type="curve" smooth="yes"/>
    </contour>
  </outline>
</glyph>
<glyph name="Y" format="1">
  <advance width="625"/>
  <unicode hex="0059"/>
  <outline>
    <contour>
      <point x="364" y="1" type="line"/>
      <point x="362" y="301" type="line"/>
      <point x="578" y="686" type="line"/>
      <point x="523" y="686" type="line"/>
      <point x="338" y="353" type="line"/>
      <point x="174" y="649" type="line" smooth="yes"/>
      <point x="154" y="683"/>
      <point x="127" y="695"/>
      <point x="100" y="695" type="curve" smooth="yes"/>
      <point x="60" y="695"/>
      <point x="20" y="671"/>
      <point x="12" y="624" type="curve"/>
      <point x="58" y="619" type="line"/>
      <point x="63" y="637"/>
      <point x="81" y="649"/>
      <point x="97" y="649" type="curve" smooth="yes"/>
      <point x="110" y="649"/>
      <point x="124" y="642"/>
      <point x="134" y="628" type="curve"/>
      <point x="314" y="299" type="line"/>
      <point x="311" y="1" type="line"/>
    </contour>
    <contour>
      <point x="334" y="692" type="move" name="top"/>
    </contour>
    <contour>
      <point x="335" y="-5" type="move" name="bottom"/>
    </contour>
  </outline>
</glyph>
<glyph name="Z" format="1">
  <advance width="507"/>
  <unicode hex="005A"/>
  <outline>
    <contour>
      <point x="402" y="-13"/>
      <point x="446" y="3"/>
      <point x="497" y="49" type="curve"/>
      <point x="469" y="77" type="line"/>
      <point x="434" y="46"/>
      <point x="395" y="27"/>
      <point x="347" y="27" type="curve" smooth="yes"/>
      <point x="286" y="27"/>
      <point x="210" y="60"/>
      <point x="146" y="73" type="curve" smooth="yes"/>
      <point x="101" y="81" type="line"/>
      <point x="460" y="684" type="line"/>
      <point x="66" y="684" type="line"/>
      <point x="66" y="645" type="line"/>
      <point x="390" y="645" type="line"/>
      <point x="12" y="9" type="line"/>
      <point x="46" y="-11" type="line"/>
      <point x="82" y="49" type="line"/>
      <point x="185" y="31"/>
      <point x="258" y="-13"/>
      <point x="347" y="-13" type="curve" smooth="yes"/>
    </contour>
    <contour>
      <point x="276" y="691" type="move" name="top"/>
    </contour>
  </outline>
</glyph>
<glyph name="bracketleft" format="1">
  <advance width="322"/>
  <unicode hex="005B"/>
  <outline>
    <contour>
      <point x="281" y="-176" type="line"/>
      <point x="281" y="-133" type="line"/>
      <point x="100" y="-133" type="line"/>
      <point x="100" y="708" type="line"/>
      <point x="281" y="708" type="line"/>
      <point x="281" y="752" type="line"/>
      <point x="52" y="752" type="line"/>
      <point x="52" y="-176" type="line"/>
    </contour>
  </outline>
</glyph>
<glyph name="backslash" format="2">
	<advance width="310"/>
	<unicode hex="005C"/>
	<outline>
		<contour>
			<point x="21" y="752" type="line"/>
			<point x="239" y="-70" type="line"/>
			<point x="290" y="-70" type="line"/>
			<point x="70" y="752" type="line"/>
		</contour>
	</outline>
</glyph>
<glyph name="bracketright" format="1">
  <advance width="323"/>
  <unicode hex="005D"/>
  <outline>
    <contour>
      <point x="239" y="-176" type="line"/>
      <point x="239" y="752" type="line"/>
      <point x="10" y="752" type="line"/>
      <point x="10" y="708" type="line"/>
      <point x="191" y="708" type="line"/>
      <point x="191" y="-133" type="line"/>
      <point x="10" y="-133" type="line"/>
      <point x="10" y="-176" type="line"/>
    </contour>
  </outline>
</glyph>
<glyph name="asciicircum" format="2">
	<advance width="499"/>
	<unicode hex="005E"/>
	<outline>
		<contour>
			<point x="247" y="541" type="line"/>
			<point x="389" y="338" type="line"/>
			<point x="428" y="366" type="line"/>
			<point x="256" y="614" type="line"/>
			<point x="243" y="614" type="line"/>
			<point x="70" y="366" type="line"/>
			<point x="108" y="340" type="line"/>
		</contour>
	</outline>
</glyph>
<glyph name="underscore" format="2">
	<advance width="597"/>
	<unicode hex="005F"/>
	<outline>
		<contour>
			<point x="81" y="-93" type="line"/>
			<point x="81" y="-133" type="line"/>
			<point x="516" y="-133" type="line"/>
			<point x="516" y="-93" type="line"/>
		</contour>
	</outline>
</glyph>
<glyph name="grave" format="2">
	<advance width="225"/>
	<unicode hex="0060"/>
	<anchor x="178" y="701" name="top"/>
	<anchor x="178" y="500" name="_top"/>
	<outline>
		<contour>
			<point x="32" y="692" type="line"/>
			<point x="175" y="561" type="line"/>
			<point x="193" y="581" type="line"/>
			<point x="65" y="725" type="line"/>
		</contour>
	</outline>
</glyph>
<glyph name="a" format="2">
	<advance width="581"/>
	<unicode hex="0061"/>
	<anchor x="556" y="19" name="ogonek"/>
	<anchor x="259" y="0" name="bottom"/>
	<anchor x="278" y="500" name="top"/>
	<outline>
		<contour>
			<point x="259" y="-9" type="curve"/>
			<point x="259" y="-9" type="line"/>
			<point x="333" y="-9"/>
			<point x="393" y="25"/>
			<point x="421" y="76" type="curve"/>
			<point x="420" y="76" type="line"/>
			<point x="423" y="20"/>
			<point x="454" y="-9"/>
			<point x="506" y="-7" type="curve"/>
			<point x="529" y="-6"/>
			<point x="552" y="7"/>
			<point x="565" y="28" type="curve"/>
			<point x="533" y="48" type="line"/>
			<point x="528" y="39"/>
			<point x="514" y="32"/>
			<point x="503" y="31" type="curve"/>
			<point x="480" y="30"/>
			<point x="461" y="43"/>
			<point x="461" y="78" type="curve"/>
			<point x="461" y="496" type="line"/>
			<point x="411" y="496" type="line"/>
			<point x="375" y="501"/>
			<point x="320" y="505"/>
			<point x="290" y="505" type="curve"/>
			<point x="137" y="505"/>
			<point x="48" y="400"/>
			<point x="48" y="245" type="curve"/>
			<point x="48" y="109"/>
			<point x="116" y="-9"/>
		</contour>
		<contour>
			<point x="260" y="31" type="curve"/>
			<point x="260" y="31" type="line"/>
			<point x="146" y="31"/>
			<point x="90" y="139"/>
			<point x="90" y="247" type="curve"/>
			<point x="90" y="366"/>
			<point x="154" y="465"/>
			<point x="286" y="465" type="curve"/>
			<point x="318" y="465"/>
			<point x="391" y="459"/>
			<point x="419" y="460" type="curve"/>
			<point x="419" y="186" type="line" smooth="yes"/>
			<point x="419" y="173"/>
			<point x="419" y="147"/>
			<point x="404" y="117" type="curve"/>
			<point x="380" y="68"/>
			<point x="327" y="31"/>
		</contour>
	</outline>
</glyph>
<glyph name="b" format="2">
	<advance width="544"/>
	<unicode hex="0062"/>
	<anchor x="103" y="726" name="top"/>
	<anchor x="268" y="0" name="bottom"/>
	<outline>
		<contour>
			<point x="245" y="-9" type="curve"/>
			<point x="245" y="-9" type="line"/>
			<point x="427" y="-9"/>
			<point x="495" y="108"/>
			<point x="495" y="248" type="curve"/>
			<point x="495" y="401"/>
			<point x="414" y="505"/>
			<point x="287" y="505" type="curve"/>
			<point x="221" y="505"/>
			<point x="157" y="477"/>
			<point x="125" y="408" type="curve"/>
			<point x="125" y="727" type="line"/>
			<point x="83" y="727" type="line"/>
			<point x="83" y="10" type="line"/>
			<point x="103" y="4"/>
			<point x="133" y="-1"/>
			<point x="147" y="-3" type="curve"/>
			<point x="179" y="-7"/>
			<point x="221" y="-9"/>
		</contour>
		<contour>
			<point x="244" y="29" type="curve"/>
			<point x="244" y="29" type="line"/>
			<point x="228" y="29"/>
			<point x="204" y="29"/>
			<point x="185" y="32" type="curve"/>
			<point x="125" y="40" type="line"/>
			<point x="125" y="329" type="line"/>
			<point x="128" y="369"/>
			<point x="146" y="405"/>
			<point x="183" y="432" type="curve"/>
			<point x="211" y="453"/>
			<point x="248" y="467"/>
			<point x="284" y="467" type="curve"/>
			<point x="377" y="467"/>
			<point x="453" y="389"/>
			<point x="453" y="247" type="curve"/>
			<point x="453" y="135"/>
			<point x="402" y="29"/>
		</contour>
	</outline>
</glyph>
<glyph name="c" format="1">
  <advance width="510"/>
  <unicode hex="0063"/>
  <outline>
    <contour>
      <point x="325" y="-5"/>
      <point x="383" y="12"/>
      <point x="440" y="49" type="curve"/>
      <point x="421" y="80" type="line"/>
      <point x="372" y="55"/>
      <point x="322" y="34"/>
      <point x="262" y="34" type="curve" smooth="yes"/>
      <point x="150" y="34"/>
      <point x="82" y="111"/>
      <point x="82" y="236" type="curve" smooth="yes"/>
      <point x="82" y="344"/>
      <point x="133" y="473"/>
      <point x="258" y="473" type="curve" smooth="yes"/>
      <point x="321" y="473"/>
      <point x="383" y="438"/>
      <point x="387" y="368" type="curve"/>
      <point x="430" y="368" type="line"/>
      <point x="426" y="456"/>
      <point x="345" y="509"/>
      <point x="254" y="509" type="curve" smooth="yes"/>
      <point x="119" y="509"/>
      <point x="39" y="391"/>
      <point x="39" y="237" type="curve" smooth="yes"/>
      <point x="39" y="90"/>
      <point x="112" y="-5"/>
      <point x="262" y="-5" type="curve" smooth="yes"/>
    </contour>
    <contour>
      <point x="253" y="504" type="move" name="top"/>
    </contour>
    <contour>
      <point x="255" y="-6" type="move" name="bottom"/>
    </contour>
  </outline>
</glyph>
<glyph name="d" format="1">
  <advance width="605"/>
  <unicode hex="0064"/>
  <outline>
    <contour>
      <point x="324" y="-9"/>
      <point x="384" y="22"/>
      <point x="412" y="96" type="curve"/>
      <point x="411" y="90"/>
      <point x="410" y="83"/>
      <point x="410" y="77" type="curve" smooth="yes"/>
      <point x="410" y="29"/>
      <point x="447" y="-9"/>
      <point x="496" y="-9" type="curve" smooth="yes"/>
      <point x="519" y="-9"/>
      <point x="543" y="-1"/>
      <point x="561" y="23" type="curve"/>
      <point x="526" y="46" type="line"/>
      <point x="518" y="37"/>
      <point x="507" y="33"/>
      <point x="496" y="33" type="curve" smooth="yes"/>
      <point x="472" y="33"/>
      <point x="452" y="54"/>
      <point x="452" y="76" type="curve" smooth="yes"/>
      <point x="452" y="728" type="line"/>
      <point x="410" y="728" type="line"/>
      <point x="410" y="495" type="line"/>
      <point x="374" y="500"/>
      <point x="313" y="505"/>
      <point x="281" y="505" type="curve" smooth="yes"/>
      <point x="128" y="505"/>
      <point x="39" y="398"/>
      <point x="39" y="245" type="curve" smooth="yes"/>
      <point x="39" y="106"/>
      <point x="111" y="-9"/>
      <point x="251" y="-9" type="curve" smooth="yes"/>
    </contour>
    <contour>
      <point x="139" y="30"/>
      <point x="83" y="134"/>
      <point x="83" y="252" type="curve" smooth="yes"/>
      <point x="83" y="372"/>
      <point x="140" y="466"/>
      <point x="302" y="466" type="curve" smooth="yes"/>
      <point x="356" y="466"/>
      <point x="390" y="456"/>
      <point x="410" y="456" type="curve"/>
      <point x="410" y="186" type="line" smooth="yes"/>
      <point x="410" y="159"/>
      <point x="405" y="136"/>
      <point x="395" y="117" type="curve"/>
      <point x="369" y="63"/>
      <point x="314" y="30"/>
      <point x="251" y="30" type="curve" smooth="yes"/>
    </contour>
    <contour>
      <point x="303" y="-6" type="move" name="center"/>
    </contour>
  </outline>
</glyph>
<glyph name="e" format="2">
	<advance width="495"/>
	<unicode hex="0065"/>
	<anchor x="453" y="45" name="ogonek"/>
	<anchor x="269" y="-6" name="bottom"/>
	<anchor x="266" y="512" name="top"/>
	<outline>
		<contour>
			<point x="273" y="-9" type="curve"/>
			<point x="273" y="-9" type="line"/>
			<point x="343" y="-9"/>
			<point x="403" y="15"/>
			<point x="454" y="51" type="curve"/>
			<point x="433" y="80" type="line"/>
			<point x="384" y="49"/>
			<point x="336" y="29"/>
			<point x="273" y="29" type="curve"/>
			<point x="164" y="29"/>
			<point x="104" y="95"/>
			<point x="93" y="205" type="curve"/>
			<point x="226" y="205" type="line" smooth="yes"/>
			<point x="360" y="205"/>
			<point x="447" y="257"/>
			<point x="447" y="355" type="curve"/>
			<point x="447" y="448"/>
			<point x="367" y="505"/>
			<point x="269" y="505" type="curve"/>
			<point x="114" y="505"/>
			<point x="48" y="359"/>
			<point x="48" y="229" type="curve"/>
			<point x="48" y="92"/>
			<point x="120" y="-9"/>
		</contour>
		<contour>
			<point x="226" y="243" type="curve"/>
			<point x="91" y="243" type="line"/>
			<point x="88" y="326"/>
			<point x="141" y="467"/>
			<point x="272" y="467" type="curve"/>
			<point x="336" y="467"/>
			<point x="405" y="433"/>
			<point x="405" y="356" type="curve"/>
			<point x="405" y="273"/>
			<point x="324" y="243"/>
		</contour>
	</outline>
</glyph>
<glyph name="f" format="2">
	<advance width="375"/>
	<unicode hex="0066"/>
	<anchor x="240" y="744" name="top"/>
	<anchor x="187" y="0" name="bottom"/>
	<outline>
		<contour>
			<point x="84" y="506" type="curve"/>
			<point x="84" y="-264" type="line"/>
			<point x="126" y="-264" type="line"/>
			<point x="126" y="206" type="line"/>
			<point x="277" y="206" type="line"/>
			<point x="277" y="244" type="line"/>
			<point x="126" y="244" type="line"/>
			<point x="126" y="426" type="line"/>
			<point x="182" y="424" type="line" smooth="yes"/>
			<point x="305" y="420"/>
			<point x="379" y="485"/>
			<point x="379" y="598" type="curve"/>
			<point x="379" y="692"/>
			<point x="329" y="744"/>
			<point x="240" y="744" type="curve"/>
			<point x="131" y="744"/>
			<point x="84" y="672"/>
		</contour>
		<contour>
			<point x="182" y="462" type="curve"/>
			<point x="126" y="462" type="line"/>
			<point x="126" y="509" type="line" smooth="yes"/>
			<point x="126" y="641"/>
			<point x="163" y="706"/>
			<point x="238" y="706" type="curve"/>
			<point x="298" y="706"/>
			<point x="337" y="664"/>
			<point x="337" y="599" type="curve"/>
			<point x="337" y="515"/>
			<point x="277" y="462"/>
		</contour>
	</outline>
</glyph>
<glyph name="g" format="1">
  <advance width="534"/>
  <unicode hex="0067"/>
  <outline>
    <contour>
      <point x="393" y="-286"/>
      <point x="452" y="-222"/>
      <point x="452" y="-120" type="curve" smooth="yes"/>
      <point x="452" y="496" type="line"/>
      <point x="404" y="496" type="line"/>
      <point x="342" y="503" type="line" smooth="yes"/>
      <point x="318" y="505"/>
      <point x="294" y="506"/>
      <point x="280" y="506" type="curve" smooth="yes"/>
      <point x="130" y="506"/>
      <point x="39" y="386"/>
      <point x="39" y="257" type="curve" smooth="yes"/>
      <point x="39" y="191"/>
      <point x="63" y="84"/>
      <point x="137" y="27" type="curve" smooth="yes"/>
      <point x="162" y="8"/>
      <point x="188" y="-3"/>
      <point x="218" y="-8" type="curve"/>
      <point x="182" y="-38"/>
      <point x="163" y="-82"/>
      <point x="163" y="-131" type="curve" smooth="yes"/>
      <point x="163" y="-206"/>
      <point x="208" y="-286"/>
      <point x="305" y="-286" type="curve" smooth="yes"/>
    </contour>
    <contour>
      <point x="238" y="-246"/>
      <point x="202" y="-185"/>
      <point x="202" y="-129" type="curve" smooth="yes"/>
      <point x="202" y="-79"/>
      <point x="230" y="-51"/>
      <point x="262" y="-29" type="curve" smooth="yes"/>
      <point x="276" y="-19"/>
      <point x="333" y="9"/>
      <point x="353" y="27" type="curve"/>
      <point x="354" y="27"/>
      <point x="388" y="60"/>
      <point x="412" y="80" type="curve"/>
      <point x="412" y="-124" type="line"/>
      <point x="408" y="-189"/>
      <point x="380" y="-246"/>
      <point x="310" y="-246" type="curve" smooth="yes"/>
    </contour>
    <contour>
      <point x="144" y="30"/>
      <point x="79" y="141"/>
      <point x="79" y="247" type="curve" smooth="yes"/>
      <point x="79" y="355"/>
      <point x="148" y="466"/>
      <point x="275" y="466" type="curve" smooth="yes"/>
      <point x="308" y="466" type="line"/>
      <point x="412" y="460" type="line"/>
      <point x="412" y="177" type="line" smooth="yes"/>
      <point x="412" y="165"/>
      <point x="407" y="147"/>
      <point x="399" y="133" type="curve"/>
      <point x="376" y="87"/>
      <point x="331" y="56"/>
      <point x="303" y="43" type="curve" smooth="yes"/>
      <point x="284" y="34"/>
      <point x="265" y="30"/>
      <point x="246" y="30" type="curve" smooth="yes"/>
    </contour>
    <contour>
      <point x="275" y="513" type="move" name="top"/>
    </contour>
  </outline>
</glyph>
<glyph name="h" format="2">
	<advance width="581"/>
	<unicode hex="0068"/>
	<anchor x="126" y="611" name="center"/>
	<anchor x="289" y="0" name="bottom"/>
	<anchor x="105" y="731" name="top"/>
	<outline>
		<contour>
			<point x="464" y="76" type="curve"/>
			<point x="464" y="76" type="line"/>
			<point x="464" y="76" type="line"/>
			<point x="464" y="351" type="line" smooth="yes"/>
			<point x="464" y="455"/>
			<point x="414" y="508"/>
			<point x="305" y="508" type="curve"/>
			<point x="226" y="508"/>
			<point x="170" y="475"/>
			<point x="126" y="401" type="curve"/>
			<point x="126" y="730" type="line"/>
			<point x="84" y="730" type="line"/>
			<point x="84" y="4" type="line"/>
			<point x="126" y="4" type="line"/>
			<point x="126" y="361" type="line"/>
			<point x="174" y="426"/>
			<point x="220" y="470"/>
			<point x="297" y="470" type="curve"/>
			<point x="375" y="470"/>
			<point x="422" y="431"/>
			<point x="422" y="348" type="curve"/>
			<point x="422" y="77" type="line"/>
			<point x="422" y="22"/>
			<point x="456" y="-10"/>
			<point x="503" y="-10" type="curve"/>
			<point x="529" y="-10"/>
			<point x="549" y="0"/>
			<point x="565" y="22" type="curve"/>
			<point x="534" y="44" type="line"/>
			<point x="526" y="34"/>
			<point x="515" y="28"/>
			<point x="504" y="28" type="curve"/>
			<point x="482" y="28"/>
			<point x="464" y="42"/>
		</contour>
	</outline>
</glyph>
<glyph name="i" format="1">
  <advance width="201"/>
  <unicode hex="0069"/>
  <outline>
    <component base="idotless"/>
    <component base="dotaccentcomb" xOffset="84" yOffset="4"/>
    <contour>
      <point x="92" y="-6" type="move" name="bottom"/>
    </contour>
  </outline>
</glyph>
<glyph name="k" format="1">
  <advance width="576"/>
  <unicode hex="006B"/>
  <outline>
    <contour>
      <point x="94" y="2" type="line"/>
      <point x="94" y="206" type="line"/>
      <point x="279" y="206" type="line"/>
      <point x="379" y="42" type="line"/>
      <point x="393" y="16"/>
      <point x="422" y="2"/>
      <point x="450" y="2" type="curve" smooth="yes"/>
      <point x="493" y="2"/>
      <point x="527" y="35"/>
      <point x="533" y="76" type="curve"/>
      <point x="490" y="78" type="line"/>
      <point x="487" y="59"/>
      <point x="472" y="46"/>
      <point x="451" y="46" type="curve" smooth="yes"/>
      <point x="440" y="46"/>
      <point x="425" y="50"/>
      <point x="418" y="60" type="curve"/>
      <point x="417" y="61" type="line"/>
      <point x="320" y="217" type="line"/>
      <point x="371" y="245"/>
      <point x="416" y="280"/>
      <point x="416" y="359" type="curve" smooth="yes"/>
      <point x="416" y="449"/>
      <point x="357" y="508"/>
      <point x="266" y="508" type="curve" smooth="yes"/>
      <point x="188" y="508"/>
      <point x="125" y="462"/>
      <point x="94" y="378" type="curve"/>
      <point x="94" y="728" type="line"/>
      <point x="52" y="728" type="line"/>
      <point x="52" y="2" type="line"/>
    </contour>
    <contour>
      <point x="95" y="274"/>
      <point x="100" y="303"/>
      <point x="108" y="331" type="curve" smooth="yes"/>
      <point x="133" y="418"/>
      <point x="190" y="470"/>
      <point x="264" y="470" type="curve" smooth="yes"/>
      <point x="334" y="470"/>
      <point x="378" y="423"/>
      <point x="378" y="363" type="curve" smooth="yes"/>
      <point x="378" y="315"/>
      <point x="350" y="278"/>
      <point x="305" y="259" type="curve" smooth="yes"/>
      <point x="283" y="249"/>
      <point x="258" y="245"/>
      <point x="222" y="245" type="curve" smooth="yes"/>
      <point x="96" y="245" type="line"/>
    </contour>
    <contour>
      <point x="260" y="512" type="move" name="top"/>
    </contour>
    <contour>
      <point x="288" y="-6" type="move" name="bottom"/>
    </contour>
  </outline>
</glyph>
<glyph name="l" format="2">
	<advance width="240"/>
	<unicode hex="006C"/>
	<anchor x="197" y="400" name="center"/>
	<anchor x="102" y="727" name="top"/>
	<anchor x="196" y="527" name="topright"/>
	<anchor x="108" y="-2" name="bottom"/>
	<outline>
		<contour>
			<point x="123" y="76" type="curve"/>
			<point x="123" y="76" type="line"/>
			<point x="123" y="76" type="line"/>
			<point x="123" y="727" type="line"/>
			<point x="81" y="727" type="line"/>
			<point x="81" y="77" type="line"/>
			<point x="81" y="22"/>
			<point x="115" y="-10"/>
			<point x="162" y="-10" type="curve"/>
			<point x="188" y="-10"/>
			<point x="208" y="0"/>
			<point x="224" y="22" type="curve"/>
			<point x="193" y="44" type="line"/>
			<point x="185" y="34"/>
			<point x="174" y="28"/>
			<point x="163" y="28" type="curve"/>
			<point x="141" y="28"/>
			<point x="123" y="42"/>
		</contour>
	</outline>
</glyph>
<glyph name="m" format="1">
  <advance width="823"/>
  <unicode hex="006D"/>
  <outline>
    <contour>
      <point x="797" y="-10"/>
      <point x="817" y="0"/>
      <point x="834" y="22" type="curve"/>
      <point x="799" y="45" type="line"/>
      <point x="791" y="36"/>
      <point x="780" y="32"/>
      <point x="770" y="32" type="curve" smooth="yes"/>
      <point x="750" y="32"/>
      <point x="726" y="48"/>
      <point x="726" y="75" type="curve" smooth="yes"/>
      <point x="726" y="352" type="line" smooth="yes"/>
      <point x="726" y="446"/>
      <point x="669" y="505"/>
      <point x="576" y="505" type="curve" smooth="yes"/>
      <point x="504" y="505"/>
      <point x="450" y="468"/>
      <point x="413" y="400" type="curve"/>
      <point x="392" y="471"/>
      <point x="345" y="505"/>
      <point x="274" y="505" type="curve" smooth="yes"/>
      <point x="199" y="505"/>
      <point x="142" y="467"/>
      <point x="109" y="398" type="curve"/>
      <point x="102" y="443"/>
      <point x="90" y="474"/>
      <point x="58" y="500" type="curve"/>
      <point x="33" y="475" type="line"/>
      <point x="58" y="447"/>
      <point x="71" y="406"/>
      <point x="71" y="354" type="curve" smooth="yes"/>
      <point x="71" y="1" type="line"/>
      <point x="113" y="1" type="line"/>
      <point x="113" y="361" type="line"/>
      <point x="135" y="418"/>
      <point x="199" y="466"/>
      <point x="269" y="466" type="curve" smooth="yes"/>
      <point x="341" y="466"/>
      <point x="377" y="415"/>
      <point x="377" y="337" type="curve" smooth="yes"/>
      <point x="377" y="1" type="line"/>
      <point x="419" y="1" type="line"/>
      <point x="419" y="360" type="line"/>
      <point x="457" y="434"/>
      <point x="511" y="466"/>
      <point x="575" y="466" type="curve" smooth="yes"/>
      <point x="642" y="466"/>
      <point x="680" y="430"/>
      <point x="684" y="351" type="curve"/>
      <point x="684" y="75" type="line" smooth="yes"/>
      <point x="684" y="28"/>
      <point x="717" y="-10"/>
      <point x="769" y="-10" type="curve" smooth="yes"/>
    </contour>
  </outline>
</glyph>
<glyph name="n" format="2">
	<advance width="586"/>
	<unicode hex="006E"/>
	<anchor x="302" y="505" name="top"/>
	<anchor x="299" y="0" name="bottom"/>
	<outline>
		<contour>
			<point x="469" y="76" type="curve"/>
			<point x="469" y="76" type="line"/>
			<point x="469" y="76" type="line"/>
			<point x="469" y="358" type="line"/>
			<point x="469" y="453"/>
			<point x="411" y="505"/>
			<point x="312" y="505" type="curve"/>
			<point x="230" y="505"/>
			<point x="175" y="473"/>
			<point x="128" y="397" type="curve"/>
			<point x="127" y="390" type="line"/>
			<point x="131" y="393" type="line"/>
			<point x="131" y="436"/>
			<point x="110" y="477"/>
			<point x="80" y="506" type="curve"/>
			<point x="52" y="479" type="line"/>
			<point x="76" y="450"/>
			<point x="89" y="422"/>
			<point x="89" y="360" type="curve"/>
			<point x="89" y="0" type="line"/>
			<point x="131" y="0" type="line"/>
			<point x="131" y="358" type="line"/>
			<point x="189" y="436"/>
			<point x="240" y="467"/>
			<point x="307" y="467" type="curve"/>
			<point x="387" y="467"/>
			<point x="427" y="423"/>
			<point x="427" y="337" type="curve"/>
			<point x="427" y="77" type="line"/>
			<point x="427" y="22"/>
			<point x="461" y="-10"/>
			<point x="508" y="-10" type="curve"/>
			<point x="534" y="-10"/>
			<point x="554" y="0"/>
			<point x="570" y="22" type="curve"/>
			<point x="539" y="44" type="line"/>
			<point x="531" y="34"/>
			<point x="520" y="28"/>
			<point x="509" y="28" type="curve"/>
			<point x="487" y="28"/>
			<point x="469" y="42"/>
		</contour>
	</outline>
</glyph>
<glyph name="o" format="1">
  <advance width="601"/>
  <unicode hex="006F"/>
  <outline>
    <contour>
      <point x="431" y="-9"/>
      <point x="532" y="94"/>
      <point x="532" y="247" type="curve" smooth="yes"/>
      <point x="532" y="398"/>
      <point x="433" y="505"/>
      <point x="286" y="505" type="curve" smooth="yes"/>
      <point x="136" y="505"/>
      <point x="39" y="394"/>
      <point x="39" y="246" type="curve" smooth="yes"/>
      <point x="39" y="98"/>
      <point x="136" y="-9"/>
      <point x="285" y="-9" type="curve" smooth="yes"/>
    </contour>
    <contour>
      <point x="162" y="30"/>
      <point x="83" y="120"/>
      <point x="83" y="247" type="curve" smooth="yes"/>
      <point x="83" y="368"/>
      <point x="155" y="466"/>
      <point x="286" y="466" type="curve" smooth="yes"/>
      <point x="407" y="466"/>
      <point x="488" y="380"/>
      <point x="488" y="251" type="curve" smooth="yes"/>
      <point x="488" y="127"/>
      <point x="414" y="30"/>
      <point x="286" y="30" type="curve" smooth="yes"/>
    </contour>
    <contour>
      <point x="439" y="35" type="move" name="ogonek"/>
    </contour>
    <contour>
      <point x="286" y="505" type="move" name="top"/>
    </contour>
    <contour>
      <point x="506" y="343" type="move" name="horn"/>
    </contour>
    <contour>
      <point x="285" y="-4" type="move" name="bottom"/>
    </contour>
  </outline>
</glyph>
<glyph name="p" format="1">
  <advance width="549"/>
  <unicode hex="0070"/>
  <outline>
    <contour>
      <point x="110" y="-265" type="line"/>
      <point x="110" y="1" type="line"/>
      <point x="147" y="-4"/>
      <point x="206" y="-9"/>
      <point x="239" y="-9" type="curve" smooth="yes"/>
      <point x="394" y="-9"/>
      <point x="481" y="98"/>
      <point x="481" y="251" type="curve" smooth="yes"/>
      <point x="481" y="390"/>
      <point x="410" y="505"/>
      <point x="268" y="505" type="curve" smooth="yes"/>
      <point x="197" y="505"/>
      <point x="134" y="477"/>
      <point x="107" y="400" type="curve"/>
      <point x="99" y="440"/>
      <point x="90" y="472"/>
      <point x="56" y="500" type="curve"/>
      <point x="31" y="475" type="line"/>
      <point x="56" y="447"/>
      <point x="69" y="406"/>
      <point x="69" y="354" type="curve" smooth="yes"/>
      <point x="69" y="-265" type="line"/>
    </contour>
    <contour>
      <point x="218" y="30"/>
      <point x="200" y="31"/>
      <point x="110" y="40" type="curve"/>
      <point x="110" y="329" type="line"/>
      <point x="117" y="411"/>
      <point x="194" y="466"/>
      <point x="271" y="466" type="curve" smooth="yes"/>
      <point x="377" y="466"/>
      <point x="437" y="363"/>
      <point x="437" y="245" type="curve" smooth="yes"/>
      <point x="437" y="120"/>
      <point x="370" y="30"/>
      <point x="234" y="30" type="curve" smooth="yes"/>
    </contour>
  </outline>
</glyph>
<glyph name="q" format="2">
	<advance width="544"/>
	<unicode hex="0071"/>
	<anchor x="277" y="500" name="top"/>
	<anchor x="277" y="0" name="bottom"/>
	<outline>
		<contour>
			<point x="418" y="89" type="curve"/>
			<point x="418" y="-260" type="line"/>
			<point x="460" y="-260" type="line"/>
			<point x="460" y="486" type="line"/>
			<point x="410" y="499"/>
			<point x="345" y="505"/>
			<point x="305" y="505" type="curve"/>
			<point x="131" y="505"/>
			<point x="48" y="400"/>
			<point x="48" y="247" type="curve"/>
			<point x="48" y="104"/>
			<point x="120" y="-9"/>
			<point x="258" y="-9" type="curve"/>
			<point x="329" y="-9"/>
			<point x="391" y="21"/>
		</contour>
		<contour>
			<point x="257" y="29" type="curve"/>
			<point x="257" y="29" type="line"/>
			<point x="150" y="29"/>
			<point x="90" y="128"/>
			<point x="90" y="253" type="curve"/>
			<point x="90" y="374"/>
			<point x="147" y="465"/>
			<point x="309" y="465" type="curve"/>
			<point x="346" y="465"/>
			<point x="386" y="461"/>
			<point x="418" y="455" type="curve"/>
			<point x="418" y="167" type="line"/>
			<point x="410" y="85"/>
			<point x="336" y="29"/>
		</contour>
	</outline>
</glyph>
<glyph name="r" format="1">
  <advance width="341"/>
  <unicode hex="0072"/>
  <outline>
    <contour>
      <point x="121" y="1" type="line"/>
      <point x="121" y="360" type="line"/>
      <point x="138" y="393"/>
      <point x="164" y="422"/>
      <point x="182" y="437" type="curve" smooth="yes"/>
      <point x="206" y="456"/>
      <point x="234" y="465"/>
      <point x="274" y="465" type="curve" smooth="yes"/>
      <point x="286" y="465"/>
      <point x="301" y="464"/>
      <point x="324" y="460" type="curve"/>
      <point x="324" y="498" type="line"/>
      <point x="291" y="504"/>
      <point x="284" y="505"/>
      <point x="272" y="505" type="curve" smooth="yes"/>
      <point x="241" y="505"/>
      <point x="212" y="499"/>
      <point x="188" y="484" type="curve" smooth="yes"/>
      <point x="162" y="467"/>
      <point x="136" y="436"/>
      <point x="118" y="397" type="curve"/>
      <point x="112" y="443"/>
      <point x="98" y="474"/>
      <point x="66" y="500" type="curve"/>
      <point x="41" y="475" type="line"/>
      <point x="66" y="447"/>
      <point x="79" y="406"/>
      <point x="79" y="354" type="curve" smooth="yes"/>
      <point x="79" y="1" type="line"/>
    </contour>
    <contour>
      <point x="207" y="505" type="move" name="top"/>
    </contour>
    <contour>
      <point x="99" y="-6" type="move" name="bottom"/>
    </contour>
  </outline>
</glyph>
<glyph name="s" format="1">
  <advance width="433"/>
  <unicode hex="0073"/>
  <outline>
    <contour>
      <point x="288" y="-9"/>
      <point x="374" y="30"/>
      <point x="374" y="131" type="curve" smooth="yes"/>
      <point x="374" y="184"/>
      <point x="351" y="217"/>
      <point x="307" y="244" type="curve" smooth="yes"/>
      <point x="230" y="290"/>
      <point x="102" y="302"/>
      <point x="102" y="390" type="curve" smooth="yes"/>
      <point x="102" y="436"/>
      <point x="136" y="466"/>
      <point x="199" y="466" type="curve" smooth="yes"/>
      <point x="229" y="466"/>
      <point x="273" y="459"/>
      <point x="314" y="439" type="curve"/>
      <point x="323" y="477" type="line"/>
      <point x="291" y="495"/>
      <point x="239" y="505"/>
      <point x="200" y="505" type="curve" smooth="yes"/>
      <point x="120" y="505"/>
      <point x="57" y="463"/>
      <point x="57" y="384" type="curve" smooth="yes"/>
      <point x="57" y="282"/>
      <point x="165" y="269"/>
      <point x="254" y="227" type="curve" smooth="yes"/>
      <point x="302" y="204"/>
      <point x="329" y="176"/>
      <point x="329" y="130" type="curve" smooth="yes"/>
      <point x="329" y="57"/>
      <point x="265" y="30"/>
      <point x="201" y="30" type="curve" smooth="yes"/>
      <point x="148" y="30"/>
      <point x="97" y="47"/>
      <point x="52" y="76" type="curve"/>
      <point x="31" y="45" type="line"/>
      <point x="76" y="11"/>
      <point x="132" y="-9"/>
      <point x="196" y="-9" type="curve" smooth="yes"/>
    </contour>
    <contour>
      <point x="199" y="512" type="move" name="top"/>
    </contour>
    <contour>
      <point x="216" y="-6" type="move" name="bottom"/>
    </contour>
  </outline>
</glyph>
<glyph name="t" format="1">
  <advance width="352"/>
  <unicode hex="0074"/>
  <outline>
    <contour>
      <point x="230" y="-9"/>
      <point x="270" y="16"/>
      <point x="300" y="64" type="curve"/>
      <point x="270" y="86" type="line"/>
      <point x="247" y="49"/>
      <point x="210" y="30"/>
      <point x="171" y="30" type="curve" smooth="yes"/>
      <point x="107" y="30"/>
      <point x="92" y="75"/>
      <point x="92" y="140" type="curve" smooth="yes"/>
      <point x="92" y="453" type="line"/>
      <point x="253" y="453" type="line"/>
      <point x="253" y="495" type="line"/>
      <point x="92" y="495" type="line"/>
      <point x="92" y="623" type="line"/>
      <point x="50" y="623" type="line"/>
      <point x="50" y="140" type="line" smooth="yes"/>
      <point x="50" y="48"/>
      <point x="81" y="-9"/>
      <point x="171" y="-9" type="curve" smooth="yes"/>
    </contour>
    <contour>
      <point x="177" y="322" type="move" name="center"/>
    </contour>
    <contour>
      <point x="177" y="-6" type="move" name="bottom"/>
    </contour>
  </outline>
</glyph>
<glyph name="u" format="1">
  <advance width="616"/>
  <unicode hex="0075"/>
  <outline>
    <contour>
      <point x="534" y="-10"/>
      <point x="554" y="0"/>
      <point x="571" y="21" type="curve"/>
      <point x="536" y="45" type="line"/>
      <point x="528" y="36"/>
      <point x="516" y="32"/>
      <point x="506" y="32" type="curve" smooth="yes"/>
      <point x="487" y="32"/>
      <point x="462" y="48"/>
      <point x="462" y="75" type="curve" smooth="yes"/>
      <point x="463" y="497" type="line"/>
      <point x="421" y="497" type="line"/>
      <point x="420" y="139" type="line"/>
      <point x="370" y="70"/>
      <point x="325" y="32"/>
      <point x="247" y="32" type="curve" smooth="yes"/>
      <point x="166" y="32"/>
      <point x="126" y="75"/>
      <point x="126" y="161" type="curve" smooth="yes"/>
      <point x="126" y="391" type="line" smooth="yes"/>
      <point x="126" y="442"/>
      <point x="90" y="474"/>
      <point x="53" y="502" type="curve"/>
      <point x="30" y="467" type="line"/>
      <point x="50" y="452"/>
      <point x="84" y="426"/>
      <point x="84" y="391" type="curve" smooth="yes"/>
      <point x="84" y="135" type="line"/>
      <point x="90" y="36"/>
      <point x="143" y="-7"/>
      <point x="241" y="-7" type="curve" smooth="yes"/>
      <point x="319" y="-7"/>
      <point x="369" y="21"/>
      <point x="422" y="98" type="curve"/>
      <point x="421" y="91"/>
      <point x="420" y="85"/>
      <point x="420" y="79" type="curve" smooth="yes"/>
      <point x="420" y="28"/>
      <point x="455" y="-10"/>
      <point x="507" y="-10" type="curve" smooth="yes"/>
    </contour>
    <contour>
      <point x="563" y="7" type="move" name="ogonek"/>
    </contour>
    <contour>
      <point x="260" y="504" type="move" name="top"/>
    </contour>
    <contour>
      <point x="469" y="349" type="move" name="horn"/>
    </contour>
    <contour>
      <point x="250" y="-15" type="move" name="bottom"/>
    </contour>
  </outline>
</glyph>
<glyph name="v" format="1">
  <advance width="483"/>
  <unicode hex="0076"/>
  <outline>
    <contour>
      <point x="262" y="1" type="line"/>
      <point x="424" y="496" type="line"/>
      <point x="383" y="496" type="line"/>
      <point x="239" y="57" type="line"/>
      <point x="124" y="408" type="line" smooth="yes"/>
      <point x="111" y="449"/>
      <point x="88" y="485"/>
      <point x="52" y="510" type="curve"/>
      <point x="31" y="477" type="line"/>
      <point x="50" y="464"/>
      <point x="69" y="441"/>
      <point x="77" y="420" type="curve"/>
      <point x="215" y="1" type="line"/>
    </contour>
  </outline>
</glyph>
<glyph name="w" format="1">
  <advance width="825"/>
  <unicode hex="0077"/>
  <outline>
    <contour>
      <point x="261" y="2" type="line"/>
      <point x="404" y="439" type="line"/>
      <point x="547" y="2" type="line"/>
      <point x="594" y="2" type="line"/>
      <point x="755" y="497" type="line"/>
      <point x="713" y="497" type="line"/>
      <point x="570" y="60" type="line"/>
      <point x="428" y="497" type="line"/>
      <point x="381" y="497" type="line"/>
      <point x="238" y="60" type="line"/>
      <point x="123" y="408" type="line" smooth="yes"/>
      <point x="108" y="452"/>
      <point x="85" y="487"/>
      <point x="52" y="511" type="curve"/>
      <point x="31" y="478" type="line"/>
      <point x="50" y="465"/>
      <point x="68" y="442"/>
      <point x="77" y="421" type="curve"/>
      <point x="213" y="2" type="line"/>
    </contour>
    <contour>
      <point x="404" y="504" type="move" name="top"/>
    </contour>
  </outline>
</glyph>
<glyph name="x" format="2">
	<advance width="467"/>
	<unicode hex="0078"/>
	<outline>
		<contour>
			<point x="390" y="-18" type="curve" smooth="yes"/>
			<point x="434" y="-18"/>
			<point x="469" y="11"/>
			<point x="474" y="57" type="curve"/>
			<point x="431" y="59" type="line"/>
			<point x="427" y="42"/>
			<point x="413" y="26"/>
			<point x="390" y="26" type="curve" smooth="yes"/>
			<point x="373" y="26"/>
			<point x="360" y="35"/>
			<point x="355" y="46" type="curve"/>
			<point x="228" y="251" type="line"/>
			<point x="380" y="497" type="line"/>
			<point x="329" y="497" type="line"/>
			<point x="198" y="280" type="line"/>
			<point x="62" y="497" type="line"/>
			<point x="11" y="497" type="line"/>
			<point x="169" y="249" type="line"/>
			<point x="13" y="1" type="line"/>
			<point x="62" y="1" type="line"/>
			<point x="198" y="218" type="line"/>
			<point x="318" y="22" type="line" smooth="yes"/>
			<point x="337" y="-7"/>
			<point x="362" y="-18"/>
		</contour>
	</outline>
</glyph>
<glyph name="y" format="1">
  <advance width="545"/>
  <unicode hex="0079"/>
  <outline>
    <contour>
      <point x="402" y="-290"/>
      <point x="462" y="-233"/>
      <point x="462" y="-125" type="curve" smooth="yes"/>
      <point x="462" y="134" type="line"/>
      <point x="463" y="497" type="line"/>
      <point x="421" y="497" type="line"/>
      <point x="420" y="168" type="line" smooth="yes"/>
      <point x="420" y="153"/>
      <point x="420" y="140"/>
      <point x="405" y="118" type="curve"/>
      <point x="362" y="66"/>
      <point x="317" y="32"/>
      <point x="245" y="32" type="curve" smooth="yes"/>
      <point x="165" y="32"/>
      <point x="126" y="77"/>
      <point x="126" y="161" type="curve" smooth="yes"/>
      <point x="126" y="391" type="line" smooth="yes"/>
      <point x="126" y="439"/>
      <point x="94" y="470"/>
      <point x="53" y="502" type="curve"/>
      <point x="30" y="467" type="line"/>
      <point x="50" y="451"/>
      <point x="84" y="417"/>
      <point x="84" y="391" type="curve" smooth="yes"/>
      <point x="84" y="135" type="line" smooth="yes"/>
      <point x="84" y="41"/>
      <point x="140" y="-7"/>
      <point x="250" y="-8" type="curve"/>
      <point x="197" y="-17"/>
      <point x="175" y="-85"/>
      <point x="175" y="-138" type="curve" smooth="yes"/>
      <point x="175" y="-216"/>
      <point x="223" y="-290"/>
      <point x="318" y="-290" type="curve" smooth="yes"/>
    </contour>
    <contour>
      <point x="252" y="-250"/>
      <point x="214" y="-199"/>
      <point x="214" y="-136" type="curve" smooth="yes"/>
      <point x="214" y="-78"/>
      <point x="243" y="-43"/>
      <point x="296" y="-15" type="curve" smooth="yes"/>
      <point x="347" y="12" type="line" smooth="yes"/>
      <point x="365" y="21"/>
      <point x="382" y="33"/>
      <point x="399" y="49" type="curve" smooth="yes"/>
      <point x="422" y="70" type="line"/>
      <point x="422" y="-129" type="line" smooth="yes"/>
      <point x="422" y="-199"/>
      <point x="382" y="-250"/>
      <point x="317" y="-250" type="curve" smooth="yes"/>
    </contour>
    <contour>
      <point x="273" y="504" type="move" name="top"/>
    </contour>
  </outline>
</glyph>
<glyph name="z" format="2">
	<advance width="464"/>
	<unicode hex="007A"/>
	<anchor x="232" y="250" name="center"/>
	<anchor x="232" y="0" name="bottom"/>
	<anchor x="250" y="501" name="top"/>
	<outline>
		<contour>
			<point x="23" y="9" type="line"/>
			<point x="56" y="-16" type="line"/>
			<point x="98" y="44" type="line"/>
			<point x="204" y="10" type="line" smooth="yes"/>
			<point x="245" y="-3"/>
			<point x="288" y="-12"/>
			<point x="328" y="-12" type="curve"/>
			<point x="373" y="-12"/>
			<point x="403" y="-1"/>
			<point x="442" y="27" type="curve"/>
			<point x="423" y="59" type="line"/>
			<point x="381" y="32"/>
			<point x="357" y="27"/>
			<point x="326" y="27" type="curve"/>
			<point x="292" y="27"/>
			<point x="250" y="33"/>
			<point x="211" y="47" type="curve"/>
			<point x="121" y="79" type="line"/>
			<point x="403" y="491" type="line"/>
			<point x="403" y="495" type="line"/>
			<point x="60" y="495" type="line"/>
			<point x="60" y="456" type="line"/>
			<point x="328" y="456" type="line"/>
		</contour>
	</outline>
</glyph>
<glyph name="bar" format="2">
	<advance width="294"/>
	<unicode hex="007C"/>
	<anchor x="150" y="340" name="_center"/>
	<outline>
		<contour>
			<point x="126" y="752" type="line"/>
			<point x="126" y="-70" type="line"/>
			<point x="168" y="-70" type="line"/>
			<point x="168" y="752" type="line"/>
		</contour>
	</outline>
</glyph>
<glyph name="braceright" format="2">
	<advance width="304"/>
	<unicode hex="007D"/>
	<outline>
		<contour>
			<point x="35" y="-146" type="curve"/>
			<point x="44" y="-174" type="line"/>
			<point x="94" y="-164"/>
			<point x="156" y="-151"/>
			<point x="188" y="-102" type="curve"/>
			<point x="199" y="-85"/>
			<point x="204" y="-66"/>
			<point x="204" y="-37" type="curve"/>
			<point x="204" y="27"/>
			<point x="184" y="157"/>
			<point x="184" y="192" type="curve"/>
			<point x="184" y="241"/>
			<point x="221" y="261"/>
			<point x="268" y="267" type="curve"/>
			<point x="268" y="308" type="line"/>
			<point x="240" y="312"/>
			<point x="213" y="320"/>
			<point x="194" y="342" type="curve"/>
			<point x="167" y="374"/>
			<point x="204" y="526"/>
			<point x="204" y="604" type="curve"/>
			<point x="204" y="652"/>
			<point x="196" y="689"/>
			<point x="148" y="715" type="curve"/>
			<point x="116" y="732"/>
			<point x="84" y="742"/>
			<point x="44" y="751" type="curve"/>
			<point x="35" y="722" type="line"/>
			<point x="65" y="715"/>
			<point x="102" y="702"/>
			<point x="124" y="687" type="curve"/>
			<point x="146" y="672"/>
			<point x="160" y="649"/>
			<point x="160" y="612" type="curve"/>
			<point x="160" y="584"/>
			<point x="140" y="430"/>
			<point x="140" y="379" type="curve"/>
			<point x="140" y="326"/>
			<point x="173" y="298"/>
			<point x="240" y="287" type="curve"/>
			<point x="178" y="276"/>
			<point x="139" y="259"/>
			<point x="139" y="190" type="curve"/>
			<point x="139" y="149"/>
			<point x="160" y="23"/>
			<point x="160" y="-39" type="curve"/>
			<point x="160" y="-55"/>
			<point x="157" y="-71"/>
			<point x="151" y="-82" type="curve"/>
			<point x="131" y="-121"/>
			<point x="79" y="-137"/>
		</contour>
	</outline>
</glyph>
<glyph name="asciitilde" format="1">
  <advance width="501"/>
  <unicode hex="007E"/>
  <outline>
    <contour>
      <point x="343" y="256" type="line"/>
      <point x="375" y="259"/>
      <point x="406" y="271"/>
      <point x="437" y="295" type="curve"/>
      <point x="411" y="326" type="line"/>
      <point x="385" y="306"/>
      <point x="358" y="296"/>
      <point x="327" y="296" type="curve" smooth="yes"/>
      <point x="269" y="296"/>
      <point x="241" y="330"/>
      <point x="171" y="330" type="curve" smooth="yes"/>
      <point x="127" y="330"/>
      <point x="99" y="318"/>
      <point x="64" y="292" type="curve"/>
      <point x="90" y="261" type="line"/>
      <point x="118" y="282"/>
      <point x="146" y="291"/>
      <point x="172" y="291" type="curve" smooth="yes"/>
      <point x="228" y="291"/>
      <point x="268" y="256"/>
      <point x="329" y="256" type="curve" smooth="yes"/>
    </contour>
  </outline>
</glyph>
<glyph name="cent" format="1">
  <advance width="496"/>
  <unicode hex="00A2"/>
  <outline>
    <contour>
      <point x="259" y="0" type="line"/>
      <point x="259" y="66" type="line"/>
      <point x="298" y="67"/>
      <point x="330" y="76"/>
      <point x="357" y="85" type="curve"/>
      <point x="388" y="97"/>
      <point x="410" y="110"/>
      <point x="425" y="120" type="curve"/>
      <point x="406" y="152" type="line"/>
      <point x="368" y="133"/>
      <point x="329" y="109"/>
      <point x="259" y="105" type="curve"/>
      <point x="259" y="544" type="line"/>
      <point x="297" y="540"/>
      <point x="328" y="522"/>
      <point x="343" y="507" type="curve" smooth="yes"/>
      <point x="361" y="489"/>
      <point x="370" y="464"/>
      <point x="371" y="440" type="curve"/>
      <point x="415" y="440" type="line"/>
      <point x="414" y="477"/>
      <point x="400" y="507"/>
      <point x="373" y="532" type="curve" smooth="yes"/>
      <point x="348" y="555"/>
      <point x="308" y="575"/>
      <point x="259" y="579" type="curve"/>
      <point x="259" y="684" type="line"/>
      <point x="211" y="684" type="line"/>
      <point x="211" y="578" type="line"/>
      <point x="154" y="571"/>
      <point x="108" y="538"/>
      <point x="73" y="490" type="curve" smooth="yes"/>
      <point x="40" y="443"/>
      <point x="24" y="388"/>
      <point x="24" y="315" type="curve" smooth="yes"/>
      <point x="24" y="246"/>
      <point x="39" y="188"/>
      <point x="68" y="146" type="curve" smooth="yes"/>
      <point x="99" y="101"/>
      <point x="145" y="76"/>
      <point x="211" y="68" type="curve"/>
      <point x="211" y="0" type="line"/>
    </contour>
    <contour>
      <point x="168" y="116"/>
      <point x="132" y="136"/>
      <point x="105" y="172" type="curve" smooth="yes"/>
      <point x="79" y="206"/>
      <point x="67" y="247"/>
      <point x="67" y="303" type="curve" smooth="yes"/>
      <point x="67" y="355"/>
      <point x="77" y="408"/>
      <point x="100" y="452" type="curve" smooth="yes"/>
      <point x="120" y="491"/>
      <point x="159" y="534"/>
      <point x="211" y="542" type="curve"/>
      <point x="211" y="108" type="line"/>
    </contour>
  </outline>
</glyph>
<glyph name="sterling" format="1">
  <advance width="562"/>
  <unicode hex="00A3"/>
  <outline>
    <contour>
      <point x="412" y="-12"/>
      <point x="448" y="1"/>
      <point x="485" y="27" type="curve"/>
      <point x="466" y="64" type="line"/>
      <point x="429" y="40"/>
      <point x="399" y="31"/>
      <point x="365" y="31" type="curve" smooth="yes"/>
      <point x="350" y="31"/>
      <point x="333" y="33"/>
      <point x="313" y="36" type="curve" smooth="yes"/>
      <point x="291" y="40"/>
      <point x="282" y="42"/>
      <point x="175" y="80" type="curve"/>
      <point x="177" y="102" type="line"/>
      <point x="178" y="121" type="line"/>
      <point x="178" y="310" type="line"/>
      <point x="335" y="310" type="line"/>
      <point x="335" y="354" type="line"/>
      <point x="178" y="354" type="line"/>
      <point x="178" y="489" type="line" smooth="yes"/>
      <point x="178" y="531"/>
      <point x="190" y="565"/>
      <point x="213" y="589" type="curve"/>
      <point x="237" y="612"/>
      <point x="273" y="624"/>
      <point x="319" y="624" type="curve" smooth="yes"/>
      <point x="358" y="624"/>
      <point x="390" y="620"/>
      <point x="436" y="608" type="curve"/>
      <point x="436" y="647" type="line"/>
      <point x="400" y="659"/>
      <point x="364" y="663"/>
      <point x="327" y="663" type="curve" smooth="yes"/>
      <point x="265" y="663"/>
      <point x="213" y="650"/>
      <point x="175" y="615" type="curve"/>
      <point x="142" y="582"/>
      <point x="130" y="540"/>
      <point x="130" y="489" type="curve" smooth="yes"/>
      <point x="130" y="354" type="line"/>
      <point x="46" y="354" type="line"/>
      <point x="46" y="310" type="line"/>
      <point x="130" y="310" type="line"/>
      <point x="130" y="120" type="line" smooth="yes"/>
      <point x="130" y="91"/>
      <point x="126" y="66"/>
      <point x="119" y="48" type="curve" smooth="yes"/>
      <point x="113" y="33"/>
      <point x="108" y="20"/>
      <point x="102" y="8" type="curve"/>
      <point x="141" y="-11" type="line"/>
      <point x="148" y="-1"/>
      <point x="159" y="23"/>
      <point x="165" y="36" type="curve"/>
      <point x="246" y="10" type="line" smooth="yes"/>
      <point x="266" y="3"/>
      <point x="286" y="-2"/>
      <point x="307" y="-6" type="curve" smooth="yes"/>
      <point x="328" y="-10"/>
      <point x="351" y="-12"/>
      <point x="377" y="-12" type="curve" smooth="yes"/>
    </contour>
  </outline>
</glyph>
<glyph name="currency" format="2">
	<advance width="722"/>
	<unicode hex="00A4"/>
	<outline>
		<contour>
			<point x="82" y="29" type="line"/>
			<point x="116" y="-6" type="line"/>
			<point x="222" y="100" type="line"/>
			<point x="242" y="87"/>
			<point x="263" y="76"/>
			<point x="287" y="68" type="curve"/>
			<point x="308" y="61"/>
			<point x="333" y="57"/>
			<point x="361" y="57" type="curve"/>
			<point x="389" y="57"/>
			<point x="413" y="61"/>
			<point x="434" y="69" type="curve"/>
			<point x="458" y="78"/>
			<point x="479" y="89"/>
			<point x="499" y="102" type="curve"/>
			<point x="607" y="-6" type="line"/>
			<point x="641" y="29" type="line"/>
			<point x="536" y="134" type="line"/>
			<point x="553" y="155"/>
			<point x="566" y="177"/>
			<point x="574" y="204" type="curve"/>
			<point x="582" y="228"/>
			<point x="586" y="256"/>
			<point x="586" y="288" type="curve"/>
			<point x="586" y="352"/>
			<point x="570" y="402"/>
			<point x="537" y="441" type="curve"/>
			<point x="641" y="547" type="line"/>
			<point x="607" y="582" type="line"/>
			<point x="500" y="474" type="line"/>
			<point x="480" y="488"/>
			<point x="459" y="499"/>
			<point x="435" y="507" type="curve"/>
			<point x="413" y="515"/>
			<point x="389" y="518"/>
			<point x="361" y="518" type="curve"/>
			<point x="333" y="518"/>
			<point x="309" y="515"/>
			<point x="288" y="507" type="curve"/>
			<point x="264" y="499"/>
			<point x="243" y="488"/>
			<point x="223" y="474" type="curve"/>
			<point x="116" y="582" type="line"/>
			<point x="82" y="547" type="line"/>
			<point x="187" y="441" type="line"/>
			<point x="169" y="421"/>
			<point x="157" y="398"/>
			<point x="148" y="371" type="curve"/>
			<point x="139" y="347"/>
			<point x="135" y="319"/>
			<point x="135" y="287" type="curve"/>
			<point x="135" y="223"/>
			<point x="152" y="172"/>
			<point x="186" y="132" type="curve"/>
		</contour>
		<contour>
			<point x="362" y="97" type="curve"/>
			<point x="362" y="97" type="line"/>
			<point x="335" y="97"/>
			<point x="311" y="102"/>
			<point x="289" y="111" type="curve"/>
			<point x="268" y="120"/>
			<point x="249" y="133"/>
			<point x="234" y="150" type="curve"/>
			<point x="218" y="166"/>
			<point x="206" y="187"/>
			<point x="198" y="210" type="curve"/>
			<point x="190" y="233"/>
			<point x="185" y="259"/>
			<point x="185" y="288" type="curve"/>
			<point x="185" y="315"/>
			<point x="189" y="342"/>
			<point x="197" y="365" type="curve"/>
			<point x="205" y="389"/>
			<point x="218" y="409"/>
			<point x="233" y="425" type="curve"/>
			<point x="249" y="441"/>
			<point x="268" y="455"/>
			<point x="289" y="464" type="curve"/>
			<point x="310" y="472"/>
			<point x="322" y="477"/>
			<point x="362" y="477" type="curve"/>
			<point x="415" y="477"/>
			<point x="459" y="460"/>
			<point x="490" y="426" type="curve"/>
			<point x="522" y="392"/>
			<point x="538" y="346"/>
			<point x="538" y="290" type="curve"/>
			<point x="538" y="262"/>
			<point x="534" y="236"/>
			<point x="526" y="212" type="curve"/>
			<point x="518" y="189"/>
			<point x="506" y="168"/>
			<point x="490" y="151" type="curve"/>
			<point x="475" y="134"/>
			<point x="456" y="121"/>
			<point x="434" y="111" type="curve"/>
			<point x="413" y="102"/>
			<point x="388" y="97"/>
		</contour>
	</outline>
</glyph>
<glyph name="yen" format="2">
	<advance width="598"/>
	<unicode hex="00A5"/>
	<outline>
		<contour>
			<point x="278" y="1" type="line"/>
			<point x="325" y="1" type="line"/>
			<point x="325" y="174" type="line"/>
			<point x="519" y="174" type="line"/>
			<point x="519" y="213" type="line"/>
			<point x="325" y="213" type="line"/>
			<point x="325" y="303" type="line"/>
			<point x="338" y="325" type="line"/>
			<point x="518" y="325" type="line"/>
			<point x="518" y="366" type="line"/>
			<point x="360" y="366" type="line"/>
			<point x="544" y="660" type="line"/>
			<point x="490" y="660" type="line"/>
			<point x="300" y="356" type="line"/>
			<point x="107" y="660" type="line"/>
			<point x="54" y="660" type="line"/>
			<point x="241" y="366" type="line"/>
			<point x="79" y="366" type="line"/>
			<point x="79" y="325" type="line"/>
			<point x="262" y="325" type="line"/>
			<point x="276" y="303" type="line"/>
			<point x="276" y="213" type="line"/>
			<point x="80" y="213" type="line"/>
			<point x="80" y="174" type="line"/>
			<point x="278" y="174" type="line"/>
		</contour>
	</outline>
</glyph>
<glyph name="brokenbar" format="1">
  <advance width="258"/>
  <unicode hex="00A6"/>
  <outline>
    <contour>
      <point x="153" y="389" type="line"/>
      <point x="153" y="752" type="line"/>
      <point x="105" y="752" type="line"/>
      <point x="105" y="389" type="line"/>
    </contour>
    <contour>
      <point x="153" y="-70" type="line"/>
      <point x="153" y="293" type="line"/>
      <point x="105" y="293" type="line"/>
      <point x="105" y="-70" type="line"/>
    </contour>
  </outline>
</glyph>
<glyph name="section" format="2">
	<advance width="431"/>
	<unicode hex="00A7"/>
	<outline>
		<contour>
			<point x="118" y="-26" type="curve"/>
			<point x="128" y="-66" type="line"/>
			<point x="191" y="-56"/>
			<point x="240" y="-39"/>
			<point x="272" y="-17" type="curve"/>
			<point x="305" y="4"/>
			<point x="323" y="32"/>
			<point x="323" y="74" type="curve"/>
			<point x="323" y="110"/>
			<point x="310" y="138"/>
			<point x="286" y="163" type="curve"/>
			<point x="310" y="177"/>
			<point x="321" y="185"/>
			<point x="329" y="194" type="curve"/>
			<point x="346" y="216"/>
			<point x="354" y="250"/>
			<point x="354" y="280" type="curve"/>
			<point x="354" y="322"/>
			<point x="339" y="349"/>
			<point x="306" y="378" type="curve"/>
			<point x="275" y="406"/>
			<point x="245" y="421"/>
			<point x="212" y="446" type="curve"/>
			<point x="186" y="467"/>
			<point x="160" y="494"/>
			<point x="160" y="533" type="curve"/>
			<point x="160" y="557"/>
			<point x="172" y="582"/>
			<point x="200" y="597" type="curve"/>
			<point x="218" y="607"/>
			<point x="258" y="621"/>
			<point x="312" y="632" type="curve"/>
			<point x="302" y="672" type="line"/>
			<point x="239" y="662"/>
			<point x="190" y="645"/>
			<point x="159" y="623" type="curve"/>
			<point x="123" y="600"/>
			<point x="108" y="572"/>
			<point x="108" y="532" type="curve"/>
			<point x="108" y="494"/>
			<point x="122" y="464"/>
			<point x="145" y="438" type="curve"/>
			<point x="136" y="441"/>
			<point x="118" y="433"/>
			<point x="102" y="412" type="curve"/>
			<point x="87" y="392"/>
			<point x="77" y="366"/>
			<point x="77" y="330" type="curve"/>
			<point x="77" y="286"/>
			<point x="91" y="258"/>
			<point x="125" y="228" type="curve"/>
			<point x="155" y="200"/>
			<point x="186" y="185"/>
			<point x="218" y="160" type="curve"/>
			<point x="245" y="139"/>
			<point x="271" y="113"/>
			<point x="271" y="74" type="curve"/>
			<point x="271" y="42"/>
			<point x="254" y="22"/>
			<point x="230" y="9" type="curve"/>
			<point x="206" y="-4"/>
			<point x="165" y="-16"/>
		</contour>
		<contour>
			<point x="252" y="194" type="curve"/>
			<point x="252" y="194" type="line"/>
			<point x="228" y="214"/>
			<point x="197" y="229"/>
			<point x="168" y="253" type="curve"/>
			<point x="144" y="273"/>
			<point x="126" y="295"/>
			<point x="126" y="330" type="curve"/>
			<point x="126" y="365"/>
			<point x="146" y="397"/>
			<point x="178" y="413" type="curve"/>
			<point x="203" y="392"/>
			<point x="234" y="375"/>
			<point x="262" y="352" type="curve"/>
			<point x="284" y="334"/>
			<point x="305" y="312"/>
			<point x="305" y="277" type="curve"/>
			<point x="305" y="251"/>
			<point x="292" y="210"/>
		</contour>
	</outline>
</glyph>
<glyph name="copyright" format="2">
	<advance width="772"/>
	<unicode hex="00A9"/>
	<anchor x="386" y="415" name="top"/>
	<anchor x="388" y="90" name="bottom"/>
	<outline>
		<contour>
			<point x="389" y="85" type="curve"/>
			<point x="389" y="85" type="line"/>
			<point x="433" y="85"/>
			<point x="479" y="101"/>
			<point x="512" y="124" type="curve"/>
			<point x="495" y="152" type="line"/>
			<point x="464" y="135"/>
			<point x="431" y="121"/>
			<point x="392" y="121" type="curve"/>
			<point x="322" y="121"/>
			<point x="283" y="170"/>
			<point x="283" y="246" type="curve"/>
			<point x="283" y="314"/>
			<point x="314" y="388"/>
			<point x="394" y="388" type="curve"/>
			<point x="424" y="388"/>
			<point x="444" y="379"/>
			<point x="463" y="360" type="curve"/>
			<point x="489" y="384" type="line"/>
			<point x="479" y="393"/>
			<point x="452" y="424"/>
			<point x="394" y="424" type="curve"/>
			<point x="300" y="424"/>
			<point x="243" y="346"/>
			<point x="243" y="248" type="curve"/>
			<point x="243" y="152"/>
			<point x="297" y="85"/>
		</contour>
		<component base="_circle" xOffset="3" yOffset="10"/>
	</outline>
</glyph>
<glyph name="ordfeminine" format="2">
	<advance width="471"/>
	<unicode hex="00AA"/>
	<anchor x="407" y="381" name="ogonek"/>
	<anchor x="215" y="369" name="bottom"/>
	<anchor x="235" y="675" name="top"/>
	<outline>
		<contour>
			<point x="215" y="369" type="curve"/>
			<point x="215" y="369" type="line"/>
			<point x="252" y="369"/>
			<point x="289" y="380"/>
			<point x="312" y="410" type="curve"/>
			<point x="317" y="387"/>
			<point x="342" y="369"/>
			<point x="371" y="369" type="curve"/>
			<point x="387" y="369"/>
			<point x="410" y="376"/>
			<point x="422" y="394" type="curve"/>
			<point x="393" y="414" type="line"/>
			<point x="388" y="407"/>
			<point x="381" y="404"/>
			<point x="374" y="404" type="curve"/>
			<point x="363" y="404"/>
			<point x="352" y="412"/>
			<point x="352" y="424" type="curve"/>
			<point x="352" y="675" type="line"/>
			<point x="312" y="675" type="line"/>
			<point x="289" y="678"/>
			<point x="252" y="680"/>
			<point x="234" y="680" type="curve"/>
			<point x="135" y="680"/>
			<point x="73" y="615"/>
			<point x="73" y="523" type="curve"/>
			<point x="73" y="441"/>
			<point x="122" y="369"/>
		</contour>
		<contour>
			<point x="215" y="404" type="curve"/>
			<point x="215" y="404" type="line"/>
			<point x="146" y="404"/>
			<point x="115" y="462"/>
			<point x="115" y="524" type="curve"/>
			<point x="115" y="593"/>
			<point x="154" y="645"/>
			<point x="231" y="645" type="curve"/>
			<point x="251" y="645"/>
			<point x="290" y="643"/>
			<point x="310" y="643" type="curve"/>
			<point x="310" y="488" type="line" smooth="yes"/>
			<point x="310" y="483"/>
			<point x="311" y="467"/>
			<point x="302" y="450" type="curve"/>
			<point x="287" y="422"/>
			<point x="253" y="404"/>
		</contour>
	</outline>
</glyph>
<glyph name="guillemetleft" format="1">
  <advance width="606"/>
  <unicode hex="00AB"/>
  <outline>
    <contour>
      <point x="523" y="55" type="line"/>
      <point x="302" y="250" type="line"/>
      <point x="523" y="445" type="line"/>
      <point x="494" y="477" type="line"/>
      <point x="290" y="294" type="line" smooth="yes"/>
      <point x="268" y="275"/>
      <point x="259" y="261"/>
      <point x="259" y="250" type="curve" smooth="yes"/>
      <point x="259" y="238"/>
      <point x="268" y="224"/>
      <point x="289" y="206" type="curve" smooth="yes"/>
      <point x="494" y="23" type="line"/>
    </contour>
    <contour>
      <point x="308" y="55" type="line"/>
      <point x="87" y="250" type="line"/>
      <point x="308" y="445" type="line"/>
      <point x="280" y="477" type="line"/>
      <point x="75" y="294" type="line" smooth="yes"/>
      <point x="54" y="275"/>
      <point x="45" y="261"/>
      <point x="45" y="250" type="curve" smooth="yes"/>
      <point x="45" y="238"/>
      <point x="54" y="224"/>
      <point x="75" y="206" type="curve" smooth="yes"/>
      <point x="280" y="23" type="line"/>
    </contour>
  </outline>
</glyph>
<glyph name="logicalnot" format="2">
	<advance width="565"/>
	<unicode hex="00AC"/>
	<outline>
		<contour>
			<point x="391" y="270" type="line"/>
			<point x="391" y="151" type="line"/>
			<point x="440" y="151" type="line"/>
			<point x="440" y="315" type="line"/>
			<point x="87" y="315" type="line"/>
			<point x="87" y="270" type="line"/>
		</contour>
	</outline>
</glyph>
<glyph name="registered" format="2">
	<advance width="772"/>
	<unicode hex="00AE"/>
	<guideline x="531" y="250" angle="0"/>
	<guideline x="534" y="584" angle="0"/>
	<anchor x="380" y="592" name="top"/>
	<anchor x="398" y="254" name="bottom"/>
	<outline>
		<contour>
			<point x="508" y="247" type="curve"/>
			<point x="508" y="247" type="line"/>
			<point x="517" y="247"/>
			<point x="526" y="250"/>
			<point x="535" y="257" type="curve"/>
			<point x="519" y="290" type="line"/>
			<point x="515" y="286"/>
			<point x="510" y="285"/>
			<point x="508" y="285" type="curve"/>
			<point x="502" y="285"/>
			<point x="501" y="286"/>
			<point x="496" y="291" type="curve"/>
			<point x="486" y="301"/>
			<point x="439" y="364"/>
			<point x="430" y="376" type="curve"/>
			<point x="424" y="384"/>
			<point x="414" y="393"/>
			<point x="408" y="396" type="curve"/>
			<point x="418" y="396"/>
			<point x="430" y="398"/>
			<point x="436" y="399" type="curve"/>
			<point x="456" y="402"/>
			<point x="490" y="436"/>
			<point x="490" y="492" type="curve"/>
			<point x="490" y="546"/>
			<point x="450" y="592"/>
			<point x="395" y="592" type="curve"/>
			<point x="286" y="592" type="line"/>
			<point x="286" y="556" type="line"/>
			<point x="393" y="556" type="line" smooth="yes"/>
			<point x="427" y="556"/>
			<point x="451" y="527"/>
			<point x="451" y="486" type="curve"/>
			<point x="451" y="446"/>
			<point x="427" y="422"/>
			<point x="388" y="422" type="curve"/>
			<point x="340" y="422" type="line"/>
			<point x="340" y="385" type="line"/>
			<point x="373" y="384"/>
			<point x="382" y="376"/>
			<point x="405" y="346" type="curve"/>
			<point x="466" y="268" type="line" smooth="yes"/>
			<point x="467" y="266"/>
			<point x="479" y="247"/>
		</contour>
		<contour>
			<point x="286" y="587" type="line"/>
			<point x="286" y="250" type="line"/>
			<point x="325" y="250" type="line"/>
			<point x="325" y="587" type="line"/>
		</contour>
		<component base="_circle" xOffset="3" yOffset="173"/>
	</outline>
</glyph>
<glyph name="macron" format="2">
	<advance width="370"/>
	<unicode hex="00AF"/>
	<anchor x="185" y="504" name="_top"/>
	<outline>
		<contour>
			<point x="66" y="601" type="line"/>
			<point x="304" y="601" type="line"/>
			<point x="304" y="645" type="line"/>
			<point x="66" y="645" type="line"/>
		</contour>
	</outline>
</glyph>
<glyph name="degree" format="1">
  <advance width="385"/>
  <unicode hex="00B0"/>
  <outline>
    <contour>
      <point x="241" y="405"/>
      <point x="305" y="443"/>
      <point x="305" y="534" type="curve" smooth="yes"/>
      <point x="305" y="615"/>
      <point x="255" y="664"/>
      <point x="179" y="664" type="curve" smooth="yes"/>
      <point x="112" y="664"/>
      <point x="49" y="627"/>
      <point x="49" y="536" type="curve" smooth="yes"/>
      <point x="49" y="454"/>
      <point x="99" y="405"/>
      <point x="175" y="405" type="curve" smooth="yes"/>
    </contour>
    <contour>
      <point x="123" y="441"/>
      <point x="90" y="481"/>
      <point x="90" y="534" type="curve" smooth="yes"/>
      <point x="90" y="585"/>
      <point x="122" y="628"/>
      <point x="178" y="628" type="curve" smooth="yes"/>
      <point x="231" y="628"/>
      <point x="264" y="588"/>
      <point x="264" y="535" type="curve" smooth="yes"/>
      <point x="264" y="481"/>
      <point x="230" y="441"/>
      <point x="177" y="441" type="curve" smooth="yes"/>
    </contour>
  </outline>
</glyph>
<glyph name="plusminus" format="2">
	<advance width="523"/>
	<unicode hex="00B1"/>
	<outline>
		<contour>
			<point x="240" y="274" type="line"/>
			<point x="240" y="110" type="line"/>
			<point x="283" y="110" type="line"/>
			<point x="283" y="274" type="line"/>
			<point x="444" y="274" type="line"/>
			<point x="444" y="312" type="line"/>
			<point x="283" y="312" type="line"/>
			<point x="283" y="475" type="line"/>
			<point x="240" y="475" type="line"/>
			<point x="240" y="312" type="line"/>
			<point x="79" y="312" type="line"/>
			<point x="79" y="274" type="line"/>
		</contour>
		<contour>
			<point x="79" y="40" type="line"/>
			<point x="79" y="1" type="line"/>
			<point x="444" y="1" type="line"/>
			<point x="444" y="40" type="line"/>
		</contour>
	</outline>
</glyph>
<glyph name="acute" format="2">
	<advance width="234"/>
	<unicode hex="00B4"/>
	<anchor x="46" y="504" name="_top"/>
	<outline>
		<contour>
			<point x="42" y="562" type="line"/>
			<point x="206" y="666" type="line"/>
			<point x="178" y="704" type="line"/>
			<point x="27" y="585" type="line"/>
		</contour>
	</outline>
</glyph>
<glyph name="micro" format="1">
  <advance width="517"/>
  <unicode hex="00B5"/>
  <outline>
    <contour>
      <point x="83" y="-254" type="line"/>
      <point x="83" y="27" type="line"/>
      <point x="99" y="13"/>
      <point x="117" y="4"/>
      <point x="139" y="-2" type="curve" smooth="yes"/>
      <point x="157" y="-7"/>
      <point x="177" y="-9"/>
      <point x="201" y="-9" type="curve" smooth="yes"/>
      <point x="274" y="-9"/>
      <point x="330" y="28"/>
      <point x="374" y="104" type="curve"/>
      <point x="376" y="77"/>
      <point x="383" y="54"/>
      <point x="394" y="32" type="curve" smooth="yes"/>
      <point x="401" y="18"/>
      <point x="411" y="6"/>
      <point x="425" y="-5" type="curve"/>
      <point x="450" y="20" type="line"/>
      <point x="426" y="49"/>
      <point x="413" y="90"/>
      <point x="413" y="141" type="curve" smooth="yes"/>
      <point x="413" y="495" type="line"/>
      <point x="371" y="495" type="line"/>
      <point x="371" y="140" type="line"/>
      <point x="347" y="106"/>
      <point x="322" y="79"/>
      <point x="296" y="59" type="curve" smooth="yes"/>
      <point x="271" y="40"/>
      <point x="238" y="30"/>
      <point x="201" y="30" type="curve" smooth="yes"/>
      <point x="161" y="30"/>
      <point x="130" y="40"/>
      <point x="112" y="61" type="curve" smooth="yes"/>
      <point x="94" y="81"/>
      <point x="85" y="112"/>
      <point x="84" y="152" type="curve"/>
      <point x="83" y="152" type="line"/>
      <point x="83" y="495" type="line"/>
      <point x="41" y="495" type="line"/>
      <point x="41" y="-254" type="line"/>
    </contour>
  </outline>
</glyph>
<glyph name="paragraph" format="2">
	<advance width="654"/>
	<unicode hex="00B6"/>
	<outline>
		<contour>
			<point x="290" y="256" type="curve"/>
			<point x="290" y="2" type="line"/>
			<point x="336" y="2" type="line"/>
			<point x="336" y="569" type="line"/>
			<point x="484" y="569" type="line"/>
			<point x="484" y="2" type="line"/>
			<point x="528" y="2" type="line"/>
			<point x="528" y="613" type="line"/>
			<point x="453" y="616" type="line"/>
			<point x="357" y="616" type="line" smooth="yes"/>
			<point x="249" y="616"/>
			<point x="176" y="602"/>
			<point x="136" y="575" type="curve"/>
			<point x="95" y="547"/>
			<point x="75" y="501"/>
			<point x="75" y="434" type="curve"/>
			<point x="75" y="378"/>
			<point x="90" y="337"/>
			<point x="118" y="308" type="curve"/>
			<point x="148" y="280"/>
			<point x="205" y="263"/>
		</contour>
	</outline>
</glyph>
<glyph name="periodcentered" format="2">
	<advance width="239"/>
	<unicode hex="00B7"/>
	<outline>
		<contour>
			<point x="119" y="273" type="curve" smooth="yes"/>
			<point x="150" y="273"/>
			<point x="173" y="297"/>
			<point x="173" y="327" type="curve" smooth="yes"/>
			<point x="173" y="357"/>
			<point x="150" y="381"/>
			<point x="119" y="381" type="curve" smooth="yes"/>
			<point x="89" y="381"/>
			<point x="66" y="357"/>
			<point x="66" y="327" type="curve" smooth="yes"/>
			<point x="66" y="297"/>
			<point x="89" y="273"/>
		</contour>
	</outline>
</glyph>
<glyph name="cedilla" format="2">
	<advance width="231"/>
	<unicode hex="00B8"/>
	<anchor x="93" y="-6" name="_bottom"/>
	<outline>
		<contour>
			<point x="90" y="-195" type="curve"/>
			<point x="83" y="-233" type="line"/>
			<point x="145" y="-237"/>
			<point x="178" y="-183"/>
			<point x="178" y="-136" type="curve"/>
			<point x="178" y="-93"/>
			<point x="156" y="-55"/>
			<point x="105" y="-52" type="curve"/>
			<point x="117" y="9" type="line"/>
			<point x="70" y="9" type="line"/>
			<point x="59" y="-86" type="line"/>
			<point x="83" y="-86" type="line" smooth="yes"/>
			<point x="118" y="-86"/>
			<point x="139" y="-105"/>
			<point x="139" y="-135" type="curve"/>
			<point x="139" y="-161"/>
			<point x="121" y="-191"/>
		</contour>
	</outline>
</glyph>
<glyph name="ordmasculine" format="2">
	<advance width="383"/>
	<unicode hex="00BA"/>
	<outline>
		<contour>
			<point x="193" y="419" type="curve" smooth="yes"/>
			<point x="275" y="419"/>
			<point x="326" y="481"/>
			<point x="326" y="561" type="curve" smooth="yes"/>
			<point x="326" y="645"/>
			<point x="273" y="700"/>
			<point x="192" y="700" type="curve" smooth="yes"/>
			<point x="109" y="700"/>
			<point x="56" y="640"/>
			<point x="56" y="560" type="curve" smooth="yes"/>
			<point x="56" y="481"/>
			<point x="107" y="419"/>
		</contour>
		<contour>
			<point x="190" y="451" type="curve" smooth="yes"/>
			<point x="126" y="451"/>
			<point x="92" y="498"/>
			<point x="92" y="569" type="curve" smooth="yes"/>
			<point x="92" y="627"/>
			<point x="133" y="668"/>
			<point x="192" y="668" type="curve" smooth="yes"/>
			<point x="253" y="668"/>
			<point x="292" y="624"/>
			<point x="292" y="563" type="curve" smooth="yes"/>
			<point x="292" y="498"/>
			<point x="255" y="451"/>
		</contour>
	</outline>
</glyph>
<glyph name="guillemetright" format="1">
  <advance width="606"/>
  <unicode hex="00BB"/>
  <outline>
    <contour>
      <point x="500" y="206" type="line" smooth="yes"/>
      <point x="521" y="225"/>
      <point x="531" y="239"/>
      <point x="531" y="250" type="curve" smooth="yes"/>
      <point x="531" y="261"/>
      <point x="521" y="275"/>
      <point x="500" y="294" type="curve" smooth="yes"/>
      <point x="296" y="477" type="line"/>
      <point x="267" y="445" type="line"/>
      <point x="488" y="250" type="line"/>
      <point x="267" y="55" type="line"/>
      <point x="296" y="23" type="line"/>
    </contour>
    <contour>
      <point x="286" y="206" type="line" smooth="yes"/>
      <point x="307" y="225"/>
      <point x="316" y="239"/>
      <point x="316" y="250" type="curve" smooth="yes"/>
      <point x="316" y="262"/>
      <point x="307" y="276"/>
      <point x="286" y="294" type="curve" smooth="yes"/>
      <point x="81" y="477" type="line"/>
      <point x="53" y="445" type="line"/>
      <point x="274" y="250" type="line"/>
      <point x="53" y="55" type="line"/>
      <point x="81" y="23" type="line"/>
    </contour>
  </outline>
</glyph>
<glyph name="AE" format="1">
  <advance width="931"/>
  <unicode hex="00C6"/>
  <outline>
    <contour>
      <point x="72" y="1" type="line"/>
      <point x="192" y="233" type="line"/>
      <point x="399" y="233" type="line"/>
      <point x="399" y="1" type="line"/>
      <point x="862" y="1" type="line"/>
      <point x="862" y="45" type="line"/>
      <point x="447" y="45" type="line"/>
      <point x="447" y="341" type="line"/>
      <point x="770" y="341" type="line"/>
      <point x="770" y="385" type="line"/>
      <point x="447" y="385" type="line"/>
      <point x="447" y="641" type="line"/>
      <point x="842" y="641" type="line"/>
      <point x="842" y="685" type="line"/>
      <point x="373" y="685" type="line"/>
      <point x="14" y="1" type="line"/>
    </contour>
    <contour>
      <point x="374" y="595" type="line"/>
      <point x="399" y="677" type="line"/>
      <point x="399" y="277" type="line"/>
      <point x="212" y="277" type="line"/>
    </contour>
    <contour>
      <point x="454" y="690" type="move" name="top"/>
    </contour>
  </outline>
</glyph>
<glyph name="multiply" format="1">
  <advance width="467"/>
  <unicode hex="00D7"/>
  <outline>
    <contour>
      <point x="233" y="234" type="line"/>
      <point x="385" y="82" type="line"/>
      <point x="419" y="115" type="line"/>
      <point x="267" y="267" type="line"/>
      <point x="411" y="412" type="line"/>
      <point x="380" y="444" type="line"/>
      <point x="235" y="298" type="line"/>
      <point x="90" y="444" type="line"/>
      <point x="56" y="410" type="line"/>
      <point x="201" y="264" type="line"/>
      <point x="49" y="112" type="line"/>
      <point x="81" y="81" type="line"/>
    </contour>
  </outline>
</glyph>
<glyph name="Oslash" format="1">
  <advance width="783"/>
  <unicode hex="00D8"/>
  <outline>
    <component base="O"/>
    <component base="slashlongcomb.case" xOffset="385" yOffset="48"/>
    <contour>
      <point x="425" y="692" type="move" name="top"/>
    </contour>
  </outline>
</glyph>
<glyph name="Thorn" format="2">
	<advance width="556"/>
	<unicode hex="00DE"/>
	<anchor x="271" y="684" name="top"/>
	<anchor x="271" y="0" name="bottom"/>
	<outline>
		<contour>
			<point x="105" y="685" type="line"/>
			<point x="105" y="1" type="line"/>
			<point x="147" y="1" type="line"/>
			<point x="147" y="520" type="line"/>
			<point x="296" y="520" type="line" smooth="yes"/>
			<point x="395" y="520"/>
			<point x="461" y="464"/>
			<point x="461" y="357" type="curve"/>
			<point x="461" y="235"/>
			<point x="375" y="180"/>
			<point x="268" y="180" type="curve"/>
			<point x="251" y="180"/>
			<point x="234" y="180"/>
			<point x="217" y="183" type="curve"/>
			<point x="217" y="145" type="line"/>
			<point x="227" y="143"/>
			<point x="244" y="142"/>
			<point x="265" y="142" type="curve"/>
			<point x="401" y="142"/>
			<point x="503" y="204"/>
			<point x="503" y="353" type="curve"/>
			<point x="503" y="478"/>
			<point x="433" y="553"/>
			<point x="315" y="560" type="curve"/>
			<point x="147" y="560" type="line"/>
			<point x="147" y="685" type="line"/>
		</contour>
	</outline>
</glyph>
<glyph name="germandbls" format="1">
  <advance width="469"/>
  <unicode hex="00DF"/>
  <outline>
    <contour>
      <point x="114" y="-254" type="line"/>
      <point x="114" y="-1" type="line"/>
      <point x="126" y="-1" type="line"/>
      <point x="212" y="-8"/>
      <point x="237" y="-9"/>
      <point x="254" y="-9" type="curve" smooth="yes"/>
      <point x="367" y="-9"/>
      <point x="458" y="31"/>
      <point x="458" y="155" type="curve" smooth="yes"/>
      <point x="458" y="207"/>
      <point x="442" y="251"/>
      <point x="411" y="283" type="curve" smooth="yes"/>
      <point x="361" y="333"/>
      <point x="268" y="346"/>
      <point x="268" y="431" type="curve" smooth="yes"/>
      <point x="268" y="526"/>
      <point x="367" y="473"/>
      <point x="367" y="614" type="curve" smooth="yes"/>
      <point x="367" y="687"/>
      <point x="318" y="736"/>
      <point x="230" y="736" type="curve" smooth="yes"/>
      <point x="103" y="736"/>
      <point x="72" y="628"/>
      <point x="72" y="498" type="curve" smooth="yes"/>
      <point x="72" y="-254" type="line"/>
    </contour>
    <contour>
      <point x="185" y="30"/>
      <point x="137" y="36"/>
      <point x="114" y="39" type="curve"/>
      <point x="114" y="501" type="line" smooth="yes"/>
      <point x="114" y="596"/>
      <point x="129" y="697"/>
      <point x="228" y="697" type="curve" smooth="yes"/>
      <point x="279" y="697"/>
      <point x="323" y="667"/>
      <point x="323" y="610" type="curve" smooth="yes"/>
      <point x="323" y="472"/>
      <point x="228" y="574"/>
      <point x="228" y="426" type="curve" smooth="yes"/>
      <point x="228" y="333"/>
      <point x="305" y="326"/>
      <point x="366" y="271" type="curve" smooth="yes"/>
      <point x="402" y="238"/>
      <point x="417" y="201"/>
      <point x="417" y="154" type="curve" smooth="yes"/>
      <point x="417" y="64"/>
      <point x="361" y="30"/>
      <point x="238" y="30" type="curve" smooth="yes"/>
    </contour>
  </outline>
</glyph>
<glyph name="ae" format="1">
  <advance width="823"/>
  <unicode hex="00E6"/>
  <outline>
    <contour>
      <point x="243" y="-9"/>
      <point x="284" y="4"/>
      <point x="313" y="24" type="curve" smooth="yes"/>
      <point x="371" y="65"/>
      <point x="363" y="119"/>
      <point x="372" y="132" type="curve"/>
      <point x="394" y="70"/>
      <point x="417" y="44"/>
      <point x="451" y="22" type="curve" smooth="yes"/>
      <point x="484" y="2"/>
      <point x="517" y="-9"/>
      <point x="573" y="-9" type="curve" smooth="yes"/>
      <point x="612" y="-9"/>
      <point x="641" y="-4"/>
      <point x="675" y="8" type="curve" smooth="yes"/>
      <point x="706" y="19"/>
      <point x="728" y="30"/>
      <point x="751" y="45" type="curve"/>
      <point x="732" y="76" type="line"/>
      <point x="710" y="65"/>
      <point x="683" y="53"/>
      <point x="659" y="44" type="curve" smooth="yes"/>
      <point x="630" y="34"/>
      <point x="605" y="30"/>
      <point x="574" y="30" type="curve" smooth="yes"/>
      <point x="516" y="30"/>
      <point x="478" y="46"/>
      <point x="450" y="72" type="curve"/>
      <point x="417" y="105"/>
      <point x="402" y="150"/>
      <point x="396" y="205" type="curve"/>
      <point x="524" y="205" type="line" smooth="yes"/>
      <point x="552" y="205"/>
      <point x="583" y="208"/>
      <point x="607" y="213" type="curve" smooth="yes"/>
      <point x="660" y="224"/>
      <point x="701" y="248"/>
      <point x="723" y="285" type="curve" smooth="yes"/>
      <point x="735" y="305"/>
      <point x="742" y="327"/>
      <point x="742" y="355" type="curve" smooth="yes"/>
      <point x="742" y="402"/>
      <point x="723" y="438"/>
      <point x="690" y="465" type="curve" smooth="yes"/>
      <point x="657" y="492"/>
      <point x="611" y="505"/>
      <point x="563" y="505" type="curve" smooth="yes"/>
      <point x="520" y="505"/>
      <point x="492" y="495"/>
      <point x="464" y="476" type="curve" smooth="yes"/>
      <point x="434" y="455"/>
      <point x="409" y="428"/>
      <point x="387" y="380" type="curve"/>
      <point x="380" y="422"/>
      <point x="366" y="453"/>
      <point x="337" y="476" type="curve"/>
      <point x="315" y="495"/>
      <point x="289" y="505"/>
      <point x="239" y="505" type="curve" smooth="yes"/>
      <point x="197" y="505"/>
      <point x="170" y="497"/>
      <point x="142" y="486" type="curve" smooth="yes"/>
      <point x="111" y="474"/>
      <point x="89" y="461"/>
      <point x="70" y="445" type="curve"/>
      <point x="90" y="414" type="line"/>
      <point x="110" y="429"/>
      <point x="135" y="442"/>
      <point x="155" y="449" type="curve"/>
      <point x="173" y="457"/>
      <point x="208" y="466"/>
      <point x="242" y="466" type="curve" smooth="yes"/>
      <point x="272" y="466"/>
      <point x="303" y="458"/>
      <point x="324" y="435" type="curve" smooth="yes"/>
      <point x="343" y="414"/>
      <point x="352" y="383"/>
      <point x="352" y="337" type="curve" smooth="yes"/>
      <point x="352" y="272" type="line"/>
      <point x="246" y="272" type="line" smooth="yes"/>
      <point x="183" y="272"/>
      <point x="92" y="258"/>
      <point x="55" y="197" type="curve"/>
      <point x="45" y="182"/>
      <point x="38" y="160"/>
      <point x="38" y="128" type="curve" smooth="yes"/>
      <point x="38" y="81"/>
      <point x="54" y="48"/>
      <point x="81" y="26" type="curve" smooth="yes"/>
      <point x="110" y="2"/>
      <point x="151" y="-9"/>
      <point x="196" y="-9" type="curve" smooth="yes"/>
    </contour>
    <contour>
      <point x="141" y="30"/>
      <point x="82" y="46"/>
      <point x="82" y="126" type="curve" smooth="yes"/>
      <point x="82" y="166"/>
      <point x="98" y="199"/>
      <point x="136" y="217" type="curve" smooth="yes"/>
      <point x="166" y="230"/>
      <point x="208" y="235"/>
      <point x="246" y="235" type="curve" smooth="yes"/>
      <point x="352" y="235" type="line"/>
      <point x="352" y="175" type="line" smooth="yes"/>
      <point x="352" y="133"/>
      <point x="336" y="93"/>
      <point x="306" y="67" type="curve" smooth="yes"/>
      <point x="275" y="41"/>
      <point x="232" y="30"/>
      <point x="190" y="30" type="curve" smooth="yes"/>
    </contour>
    <contour>
      <point x="392" y="297"/>
      <point x="408" y="356"/>
      <point x="440" y="401" type="curve" smooth="yes"/>
      <point x="466" y="438"/>
      <point x="508" y="469"/>
      <point x="569" y="469" type="curve" smooth="yes"/>
      <point x="632" y="469"/>
      <point x="698" y="436"/>
      <point x="698" y="356" type="curve" smooth="yes"/>
      <point x="698" y="330"/>
      <point x="690" y="301"/>
      <point x="666" y="280" type="curve" smooth="yes"/>
      <point x="633" y="252"/>
      <point x="575" y="244"/>
      <point x="524" y="244" type="curve" smooth="yes"/>
      <point x="394" y="244" type="line"/>
    </contour>
    <contour>
      <point x="396" y="506" type="move" name="top"/>
    </contour>
  </outline>
</glyph>
<glyph name="eth" format="2">
	<advance width="521"/>
	<unicode hex="00F0"/>
	<outline>
		<contour>
			<point x="251" y="-15" type="curve"/>
			<point x="251" y="-15" type="line"/>
			<point x="381" y="-18"/>
			<point x="462" y="88"/>
			<point x="462" y="263" type="curve"/>
			<point x="462" y="384"/>
			<point x="423" y="515"/>
			<point x="365" y="596" type="curve"/>
			<point x="474" y="658" type="line"/>
			<point x="453" y="695" type="line"/>
			<point x="339" y="629" type="line"/>
			<point x="303" y="671"/>
			<point x="261" y="704"/>
			<point x="213" y="726" type="curve"/>
			<point x="194" y="687" type="line"/>
			<point x="233" y="668"/>
			<point x="269" y="642"/>
			<point x="301" y="607" type="curve"/>
			<point x="197" y="547" type="line"/>
			<point x="218" y="510" type="line"/>
			<point x="328" y="574" type="line"/>
			<point x="365" y="524"/>
			<point x="395" y="446"/>
			<point x="409" y="385" type="curve"/>
			<point x="366" y="437"/>
			<point x="309" y="460"/>
			<point x="255" y="460" type="curve"/>
			<point x="126" y="460"/>
			<point x="44" y="351"/>
			<point x="44" y="221" type="curve"/>
			<point x="44" y="100"/>
			<point x="115" y="-12"/>
		</contour>
		<contour>
			<point x="255" y="23" type="curve"/>
			<point x="255" y="23" type="line"/>
			<point x="143" y="23"/>
			<point x="87" y="126"/>
			<point x="87" y="224" type="curve"/>
			<point x="87" y="335"/>
			<point x="157" y="422"/>
			<point x="253" y="422" type="curve"/>
			<point x="300" y="422"/>
			<point x="343" y="401"/>
			<point x="373" y="375" type="curve"/>
			<point x="412" y="342"/>
			<point x="423" y="305"/>
			<point x="420" y="240" type="curve"/>
			<point x="414" y="121"/>
			<point x="365" y="23"/>
		</contour>
	</outline>
</glyph>
<glyph name="oslash" format="1">
  <advance width="601"/>
  <unicode hex="00F8"/>
  <outline>
    <contour>
      <point x="162" y="21" type="line"/>
      <point x="199" y="0"/>
      <point x="240" y="-10"/>
      <point x="284" y="-10" type="curve" smooth="yes"/>
      <point x="408" y="-10"/>
      <point x="532" y="76"/>
      <point x="532" y="250" type="curve" smooth="yes"/>
      <point x="532" y="333"/>
      <point x="504" y="404"/>
      <point x="441" y="453" type="curve"/>
      <point x="468" y="491" type="line"/>
      <point x="431" y="514" type="line"/>
      <point x="408" y="475" type="line"/>
      <point x="373" y="495"/>
      <point x="328" y="505"/>
      <point x="285" y="505" type="curve" smooth="yes"/>
      <point x="136" y="505"/>
      <point x="39" y="393"/>
      <point x="39" y="245" type="curve" smooth="yes"/>
      <point x="39" y="165"/>
      <point x="67" y="89"/>
      <point x="128" y="42" type="curve"/>
      <point x="102" y="5" type="line"/>
      <point x="139" y="-18" type="line"/>
    </contour>
    <contour>
      <point x="104" y="115"/>
      <point x="83" y="175"/>
      <point x="83" y="244" type="curve" smooth="yes"/>
      <point x="83" y="379"/>
      <point x="166" y="466"/>
      <point x="294" y="466" type="curve" smooth="yes"/>
      <point x="340" y="466"/>
      <point x="367" y="454"/>
      <point x="385" y="438" type="curve"/>
      <point x="147" y="76" type="line"/>
    </contour>
    <contour>
      <point x="252" y="29"/>
      <point x="217" y="36"/>
      <point x="184" y="51" type="curve"/>
      <point x="423" y="420" type="line"/>
      <point x="466" y="383"/>
      <point x="488" y="325"/>
      <point x="488" y="256" type="curve" smooth="yes"/>
      <point x="488" y="109"/>
      <point x="391" y="29"/>
      <point x="285" y="29" type="curve" smooth="yes"/>
    </contour>
    <contour>
      <point x="279" y="504" type="move" name="top"/>
    </contour>
  </outline>
</glyph>
<glyph name="thorn" format="2">
	<advance width="541"/>
	<unicode hex="00FE"/>
	<anchor x="283" y="500" name="top"/>
	<anchor x="263" y="0" name="bottom"/>
	<outline>
		<contour>
			<point x="84" y="727" type="line"/>
			<point x="84" y="-243" type="line"/>
			<point x="123" y="-243" type="line"/>
			<point x="123" y="4" type="line"/>
			<point x="159" y="-1"/>
			<point x="219" y="-8"/>
			<point x="252" y="-8" type="curve"/>
			<point x="407" y="-8"/>
			<point x="493" y="101"/>
			<point x="493" y="251" type="curve"/>
			<point x="493" y="389"/>
			<point x="423" y="506"/>
			<point x="283" y="506" type="curve"/>
			<point x="219" y="506"/>
			<point x="153" y="482"/>
			<point x="118" y="403" type="curve"/>
			<point x="120" y="477"/>
			<point x="123" y="616"/>
			<point x="123" y="727" type="curve"/>
		</contour>
		<contour>
			<point x="246" y="30" type="curve"/>
			<point x="246" y="30" type="line"/>
			<point x="231" y="30"/>
			<point x="212" y="31"/>
			<point x="123" y="40" type="curve"/>
			<point x="123" y="330" type="line"/>
			<point x="133" y="415"/>
			<point x="209" y="468"/>
			<point x="283" y="468" type="curve"/>
			<point x="394" y="468"/>
			<point x="451" y="358"/>
			<point x="451" y="245" type="curve"/>
			<point x="451" y="122"/>
			<point x="385" y="30"/>
		</contour>
	</outline>
</glyph>
<glyph name="Hbar" format="1">
  <advance width="704"/>
  <unicode hex="0126"/>
  <outline>
    <contour>
      <point x="635" y="512" type="line"/>
      <point x="635" y="551" type="line"/>
      <point x="111" y="551" type="line"/>
      <point x="111" y="512" type="line"/>
    </contour>
    <component base="H" yOffset="-6"/>
  </outline>
</glyph>
<glyph name="idotless" format="2">
	<advance width="201"/>
	<unicode hex="0131"/>
	<anchor x="201" y="7" name="ogonek"/>
	<anchor x="83" y="504" name="top"/>
	<outline>
		<contour>
			<point x="147" y="-9" type="curve" smooth="yes"/>
			<point x="174" y="-9"/>
			<point x="196" y="2"/>
			<point x="212" y="23" type="curve"/>
			<point x="177" y="46" type="line"/>
			<point x="168" y="36"/>
			<point x="155" y="33"/>
			<point x="147" y="33" type="curve" smooth="yes"/>
			<point x="127" y="33"/>
			<point x="104" y="51"/>
			<point x="104" y="76" type="curve" smooth="yes"/>
			<point x="104" y="497" type="line"/>
			<point x="62" y="497" type="line"/>
			<point x="62" y="76" type="line" smooth="yes"/>
			<point x="62" y="28"/>
			<point x="98" y="-9"/>
		</contour>
	</outline>
</glyph>
<glyph name="kgreenlandic" format="1">
  <advance width="521"/>
  <unicode hex="0138"/>
  <outline>
    <contour>
      <point x="94" y="2" type="line"/>
      <point x="94" y="206" type="line"/>
      <point x="279" y="206" type="line"/>
      <point x="379" y="42" type="line" smooth="yes"/>
      <point x="394" y="16"/>
      <point x="419" y="2"/>
      <point x="449" y="2" type="curve" smooth="yes"/>
      <point x="492" y="2"/>
      <point x="527" y="32"/>
      <point x="533" y="76" type="curve"/>
      <point x="490" y="78" type="line"/>
      <point x="486" y="62"/>
      <point x="472" y="46"/>
      <point x="449" y="46" type="curve" smooth="yes"/>
      <point x="437" y="46"/>
      <point x="426" y="52"/>
      <point x="418" y="60" type="curve"/>
      <point x="320" y="217" type="line"/>
      <point x="333" y="224"/>
      <point x="351" y="235"/>
      <point x="363" y="244" type="curve"/>
      <point x="405" y="278"/>
      <point x="418" y="324"/>
      <point x="418" y="365" type="curve" smooth="yes"/>
      <point x="418" y="450"/>
      <point x="360" y="506"/>
      <point x="264" y="506" type="curve" smooth="yes"/>
      <point x="180" y="506"/>
      <point x="126" y="463"/>
      <point x="94" y="378" type="curve"/>
      <point x="94" y="508" type="line"/>
      <point x="52" y="508" type="line"/>
      <point x="52" y="2" type="line"/>
    </contour>
    <contour>
      <point x="96" y="275"/>
      <point x="99" y="302"/>
      <point x="108" y="333" type="curve" smooth="yes"/>
      <point x="132" y="413"/>
      <point x="187" y="470"/>
      <point x="262" y="470" type="curve" smooth="yes"/>
      <point x="322" y="470"/>
      <point x="380" y="433"/>
      <point x="380" y="363" type="curve" smooth="yes"/>
      <point x="380" y="292"/>
      <point x="323" y="245"/>
      <point x="222" y="245" type="curve" smooth="yes"/>
      <point x="96" y="245" type="line"/>
    </contour>
  </outline>
</glyph>
<glyph name="lslash" format="2">
	<advance width="270"/>
	<unicode hex="0142"/>
	<outline>
		<contour>
			<point x="28" y="378" type="line"/>
			<point x="28" y="330" type="line"/>
			<point x="207" y="442" type="line"/>
			<point x="207" y="490" type="line"/>
		</contour>
		<component base="l" xOffset="18"/>
	</outline>
</glyph>
<glyph name="Eng" format="2">
	<advance width="781"/>
	<unicode hex="014A"/>
	<anchor x="905" y="504" name="top"/>
	<outline>
		<contour>
			<point x="610" y="-204" type="curve" smooth="yes"/>
			<point x="660" y="-204"/>
			<point x="695" y="-167"/>
			<point x="695" y="-119" type="curve" smooth="yes"/>
			<point x="695" y="558" type="line"/>
			<point x="653" y="558" type="line"/>
			<point x="653" y="-119" type="line" smooth="yes"/>
			<point x="653" y="-143"/>
			<point x="635" y="-162"/>
			<point x="610" y="-162" type="curve" smooth="yes"/>
			<point x="599" y="-162"/>
			<point x="588" y="-158"/>
			<point x="580" y="-149" type="curve"/>
			<point x="545" y="-172" type="line"/>
			<point x="562" y="-194"/>
			<point x="584" y="-204"/>
		</contour>
		<component base="N"/>
	</outline>
</glyph>
<glyph name="eng" format="2">
	<advance width="546"/>
	<unicode hex="014B"/>
	<outline>
		<contour>
			<point x="77" y="500" type="curve"/>
			<point x="52" y="475" type="line"/>
			<point x="77" y="447"/>
			<point x="90" y="406"/>
			<point x="90" y="354" type="curve"/>
			<point x="90" y="1" type="line"/>
			<point x="131" y="1" type="line"/>
			<point x="131" y="358" type="line"/>
			<point x="178" y="421"/>
			<point x="227" y="466"/>
			<point x="307" y="466" type="curve"/>
			<point x="387" y="466"/>
			<point x="427" y="423"/>
			<point x="427" y="337" type="curve"/>
			<point x="427" y="-23" type="line" smooth="yes"/>
			<point x="427" y="-50"/>
			<point x="403" y="-66"/>
			<point x="383" y="-66" type="curve"/>
			<point x="373" y="-66"/>
			<point x="362" y="-62"/>
			<point x="353" y="-53" type="curve"/>
			<point x="319" y="-76" type="line"/>
			<point x="336" y="-98"/>
			<point x="356" y="-108"/>
			<point x="384" y="-108" type="curve"/>
			<point x="436" y="-108"/>
			<point x="469" y="-70"/>
			<point x="469" y="-24" type="curve"/>
			<point x="469" y="363" type="line"/>
			<point x="463" y="462"/>
			<point x="409" y="505"/>
			<point x="312" y="505" type="curve"/>
			<point x="237" y="505"/>
			<point x="178" y="476"/>
			<point x="128" y="396" type="curve"/>
			<point x="123" y="438"/>
			<point x="110" y="475"/>
		</contour>
	</outline>
</glyph>
<glyph name="oe" format="1">
  <advance width="952"/>
  <unicode hex="0153"/>
  <outline>
    <contour>
      <point x="383" y="-9"/>
      <point x="463" y="35"/>
      <point x="503" y="138" type="curve"/>
      <point x="529" y="45"/>
      <point x="592" y="-9"/>
      <point x="705" y="-9" type="curve" smooth="yes"/>
      <point x="769" y="-9"/>
      <point x="828" y="8"/>
      <point x="883" y="45" type="curve"/>
      <point x="864" y="76" type="line"/>
      <point x="814" y="50"/>
      <point x="766" y="30"/>
      <point x="703" y="30" type="curve" smooth="yes"/>
      <point x="599" y="30"/>
      <point x="539" y="88"/>
      <point x="529" y="205" type="curve"/>
      <point x="656" y="205" type="line" smooth="yes"/>
      <point x="769" y="205"/>
      <point x="873" y="244"/>
      <point x="873" y="355" type="curve" smooth="yes"/>
      <point x="873" y="452"/>
      <point x="796" y="505"/>
      <point x="700" y="505" type="curve" smooth="yes"/>
      <point x="597" y="505"/>
      <point x="534" y="441"/>
      <point x="507" y="349" type="curve"/>
      <point x="472" y="450"/>
      <point x="393" y="505"/>
      <point x="287" y="505" type="curve" smooth="yes"/>
      <point x="137" y="505"/>
      <point x="39" y="396"/>
      <point x="39" y="246" type="curve" smooth="yes"/>
      <point x="39" y="96"/>
      <point x="137" y="-9"/>
      <point x="286" y="-9" type="curve" smooth="yes"/>
    </contour>
    <contour>
      <point x="161" y="30"/>
      <point x="83" y="124"/>
      <point x="83" y="249" type="curve" smooth="yes"/>
      <point x="83" y="374"/>
      <point x="161" y="466"/>
      <point x="286" y="466" type="curve" smooth="yes"/>
      <point x="407" y="466"/>
      <point x="488" y="379"/>
      <point x="488" y="251" type="curve" smooth="yes"/>
      <point x="488" y="127"/>
      <point x="412" y="30"/>
      <point x="285" y="30" type="curve" smooth="yes"/>
    </contour>
    <contour>
      <point x="524" y="347"/>
      <point x="585" y="469"/>
      <point x="703" y="469" type="curve" smooth="yes"/>
      <point x="762" y="469"/>
      <point x="829" y="437"/>
      <point x="829" y="357" type="curve" smooth="yes"/>
      <point x="829" y="275"/>
      <point x="756" y="244"/>
      <point x="656" y="244" type="curve" smooth="yes"/>
      <point x="527" y="244" type="line"/>
    </contour>
    <contour>
      <point x="478" y="-6" type="move" name="top"/>
    </contour>
  </outline>
</glyph>
<glyph name="longs" format="2">
	<advance width="245"/>
	<unicode hex="017F"/>
	<anchor x="106" y="500" name="top"/>
	<anchor x="106" y="0" name="bottom"/>
	<outline>
		<contour>
			<point x="84" y="500" type="curve"/>
			<point x="84" y="-210" type="line"/>
			<point x="126" y="-210" type="line"/>
			<point x="126" y="503" type="line" smooth="yes"/>
			<point x="126" y="593"/>
			<point x="146" y="664"/>
			<point x="236" y="664" type="curve"/>
			<point x="265" y="664"/>
			<point x="294" y="656"/>
			<point x="314" y="631" type="curve"/>
			<point x="345" y="662" type="line"/>
			<point x="319" y="691"/>
			<point x="283" y="703"/>
			<point x="234" y="703" type="curve"/>
			<point x="126" y="703"/>
			<point x="84" y="620"/>
		</contour>
	</outline>
</glyph>
<glyph name="Schwa" format="2">
	<advance width="684"/>
	<unicode hex="018F"/>
	<anchor x="86" y="630" name="ogonek"/>
	<anchor x="326" y="712" name="bottom"/>
	<anchor x="323" y="-19" name="top"/>
	<outline>
		<contour>
			<point x="326" y="702" type="curve"/>
			<point x="326" y="702" type="line"/>
			<point x="238" y="702"/>
			<point x="155" y="674"/>
			<point x="86" y="630" type="curve"/>
			<point x="104" y="600" type="line"/>
			<point x="177" y="638"/>
			<point x="237" y="663"/>
			<point x="321" y="663" type="curve"/>
			<point x="556" y="663"/>
			<point x="576" y="443"/>
			<point x="576" y="365" type="curve"/>
			<point x="576" y="138"/>
			<point x="460" y="20"/>
			<point x="326" y="20" type="curve"/>
			<point x="201" y="20"/>
			<point x="99" y="123"/>
			<point x="99" y="265" type="curve"/>
			<point x="99" y="289"/>
			<point x="101" y="318"/>
			<point x="107" y="352" type="curve"/>
			<point x="64" y="352" type="line"/>
			<point x="61" y="322"/>
			<point x="59" y="295"/>
			<point x="59" y="269" type="curve"/>
			<point x="59" y="101"/>
			<point x="167" y="-14"/>
			<point x="325" y="-14" type="curve"/>
			<point x="517" y="-14"/>
			<point x="618" y="161"/>
			<point x="618" y="365" type="curve"/>
			<point x="618" y="566"/>
			<point x="517" y="702"/>
		</contour>
		<contour>
			<point x="591" y="312" type="line"/>
			<point x="591" y="352" type="line"/>
			<point x="90" y="352" type="line"/>
			<point x="90" y="312" type="line"/>
		</contour>
	</outline>
</glyph>
<glyph name="florin" format="2">
	<advance width="521"/>
	<unicode hex="0192"/>
	<outline>
		<contour>
			<point x="117" y="-250" type="curve"/>
			<point x="117" y="-250" type="line"/>
			<point x="151" y="-250"/>
			<point x="191" y="-243"/>
			<point x="217" y="-213" type="curve"/>
			<point x="245" y="-180"/>
			<point x="253" y="-126"/>
			<point x="253" y="-75" type="curve"/>
			<point x="253" y="368" type="line"/>
			<point x="429" y="368" type="line"/>
			<point x="429" y="407" type="line"/>
			<point x="253" y="407" type="line"/>
			<point x="253" y="506" type="line" smooth="yes"/>
			<point x="253" y="552"/>
			<point x="260" y="587"/>
			<point x="276" y="610" type="curve"/>
			<point x="290" y="630"/>
			<point x="315" y="644"/>
			<point x="344" y="644" type="curve"/>
			<point x="392" y="644"/>
			<point x="425" y="642"/>
			<point x="447" y="642" type="curve"/>
			<point x="447" y="677" type="line"/>
			<point x="473" y="677"/>
			<point x="396" y="680"/>
			<point x="334" y="682" type="curve"/>
			<point x="297" y="683"/>
			<point x="261" y="674"/>
			<point x="239" y="641" type="curve"/>
			<point x="212" y="601"/>
			<point x="210" y="527"/>
			<point x="210" y="478" type="curve"/>
			<point x="210" y="407" type="line"/>
			<point x="94" y="407" type="line"/>
			<point x="94" y="368" type="line"/>
			<point x="210" y="368" type="line"/>
			<point x="210" y="-75" type="line" smooth="yes"/>
			<point x="210" y="-125"/>
			<point x="201" y="-161"/>
			<point x="184" y="-182" type="curve"/>
			<point x="168" y="-202"/>
			<point x="144" y="-213"/>
			<point x="117" y="-212" type="curve"/>
			<point x="67" y="-211" type="line"/>
			<point x="67" y="-244" type="line"/>
			<point x="86" y="-248"/>
			<point x="94" y="-250"/>
		</contour>
	</outline>
</glyph>
<glyph name="Nhookleft" format="2">
	<advance width="761"/>
	<unicode hex="019D"/>
	<anchor x="394" y="684" name="top"/>
	<anchor x="395" y="0" name="bottom"/>
	<outline>
		<contour>
			<point x="40" y="-201" type="curve"/>
			<point x="40" y="-201" type="line"/>
			<point x="89" y="-201"/>
			<point x="149" y="-170"/>
			<point x="149" y="-97" type="curve"/>
			<point x="145" y="614" type="line"/>
			<point x="172" y="573" type="line"/>
			<point x="642" y="1" type="line"/>
			<point x="656" y="1" type="line"/>
			<point x="656" y="684" type="line"/>
			<point x="612" y="684" type="line"/>
			<point x="615" y="94" type="line"/>
			<point x="588" y="133" type="line"/>
			<point x="241" y="558" type="line"/>
			<point x="130" y="685" type="line"/>
			<point x="105" y="685" type="line"/>
			<point x="105" y="-97" type="line" smooth="yes"/>
			<point x="105" y="-126"/>
			<point x="78" y="-158"/>
			<point x="43" y="-158" type="curve"/>
			<point x="15" y="-158"/>
			<point x="-15" y="-135"/>
			<point x="-19" y="-103" type="curve"/>
			<point x="-62" y="-103" type="line"/>
			<point x="-59" y="-158"/>
			<point x="-12" y="-201"/>
		</contour>
	</outline>
</glyph>
<glyph name="jdotless" format="1">
  <advance width="183"/>
  <unicode hex="0237"/>
  <outline>
    <contour>
      <point x="78" y="-264"/>
      <point x="113" y="-227"/>
      <point x="113" y="-179" type="curve" smooth="yes"/>
      <point x="113" y="498" type="line"/>
      <point x="71" y="498" type="line"/>
      <point x="71" y="-179" type="line" smooth="yes"/>
      <point x="71" y="-203"/>
      <point x="53" y="-222"/>
      <point x="28" y="-222" type="curve" smooth="yes"/>
      <point x="17" y="-222"/>
      <point x="6" y="-218"/>
      <point x="-2" y="-209" type="curve"/>
      <point x="-37" y="-232" type="line"/>
      <point x="-20" y="-254"/>
      <point x="2" y="-264"/>
      <point x="28" y="-264" type="curve" smooth="yes"/>
    </contour>
    <contour>
      <point x="92" y="504" type="move" name="top"/>
    </contour>
  </outline>
</glyph>
<glyph name="apostrophemod" format="1">
  <advance width="194"/>
  <unicode hex="02BC"/>
  <outline>
    <contour>
      <point x="84" y="479"/>
      <point x="100" y="500"/>
      <point x="110" y="525" type="curve" smooth="yes"/>
      <point x="120" y="553"/>
      <point x="126" y="580"/>
      <point x="126" y="608" type="curve" smooth="yes"/>
      <point x="126" y="669" type="line" smooth="yes"/>
      <point x="126" y="684"/>
      <point x="115" y="696"/>
      <point x="100" y="696" type="curve" smooth="yes"/>
      <point x="84" y="696"/>
      <point x="75" y="684"/>
      <point x="75" y="669" type="curve" smooth="yes"/>
      <point x="75" y="608" type="line" smooth="yes"/>
      <point x="75" y="556"/>
      <point x="62" y="515"/>
      <point x="37" y="487" type="curve"/>
      <point x="62" y="462" type="line"/>
    </contour>
    <contour>
      <point x="97" y="603" type="move" name="_apostrophe"/>
    </contour>
  </outline>
</glyph>
<glyph name="circumflex" format="1">
  <advance width="408"/>
  <unicode hex="02C6"/>
  <outline>
    <contour>
      <point x="102" y="558" type="line"/>
      <point x="188" y="653" type="line"/>
      <point x="273" y="558" type="line"/>
      <point x="323" y="558" type="line"/>
      <point x="209" y="689" type="line"/>
      <point x="166" y="689" type="line"/>
      <point x="53" y="558" type="line"/>
    </contour>
    <contour>
      <point x="188" y="504" type="move" name="_top"/>
    </contour>
  </outline>
</glyph>
<glyph name="caron" format="2">
	<advance width="319"/>
	<unicode hex="02C7"/>
	<anchor x="160" y="504" name="_top"/>
	<outline>
		<contour>
			<point x="137" y="558" type="line"/>
			<point x="181" y="558" type="line"/>
			<point x="295" y="689" type="line"/>
			<point x="244" y="689" type="line"/>
			<point x="160" y="594" type="line"/>
			<point x="74" y="689" type="line"/>
			<point x="24" y="689" type="line"/>
		</contour>
	</outline>
</glyph>
<glyph name="breve" format="2">
	<advance width="361"/>
	<unicode hex="02D8"/>
	<anchor x="181" y="504" name="_top"/>
	<outline>
		<contour>
			<point x="181" y="558" type="curve" smooth="yes"/>
			<point x="264" y="558"/>
			<point x="312" y="600"/>
			<point x="317" y="683" type="curve"/>
			<point x="269" y="683" type="line"/>
			<point x="266" y="630"/>
			<point x="238" y="597"/>
			<point x="182" y="597" type="curve" smooth="yes"/>
			<point x="123" y="597"/>
			<point x="96" y="633"/>
			<point x="91" y="683" type="curve"/>
			<point x="43" y="683" type="line"/>
			<point x="48" y="607"/>
			<point x="92" y="558"/>
		</contour>
	</outline>
</glyph>
<glyph name="ring" format="2">
	<advance width="287"/>
	<unicode hex="02DA"/>
	<anchor x="144" y="504" name="_top"/>
	<outline>
		<contour>
			<point x="142" y="559" type="curve" smooth="yes"/>
			<point x="201" y="559"/>
			<point x="240" y="596"/>
			<point x="240" y="658" type="curve" smooth="yes"/>
			<point x="240" y="717"/>
			<point x="205" y="755"/>
			<point x="144" y="755" type="curve" smooth="yes"/>
			<point x="83" y="755"/>
			<point x="48" y="716"/>
			<point x="48" y="656" type="curve" smooth="yes"/>
			<point x="48" y="597"/>
			<point x="82" y="559"/>
		</contour>
		<contour>
			<point x="143" y="589" type="curve" smooth="yes"/>
			<point x="109" y="589"/>
			<point x="84" y="614"/>
			<point x="84" y="656" type="curve" smooth="yes"/>
			<point x="84" y="695"/>
			<point x="107" y="724"/>
			<point x="144" y="724" type="curve" smooth="yes"/>
			<point x="180" y="724"/>
			<point x="205" y="696"/>
			<point x="205" y="658" type="curve" smooth="yes"/>
			<point x="205" y="620"/>
			<point x="180" y="589"/>
		</contour>
	</outline>
</glyph>
<glyph name="ogonek" format="1">
  <advance width="254"/>
  <unicode hex="02DB"/>
  <outline>
    <contour>
      <point x="144" y="-207"/>
      <point x="177" y="-198"/>
      <point x="200" y="-182" type="curve"/>
      <point x="181" y="-149" type="line"/>
      <point x="159" y="-164"/>
      <point x="141" y="-167"/>
      <point x="132" y="-167" type="curve" smooth="yes"/>
      <point x="113" y="-167"/>
      <point x="81" y="-155"/>
      <point x="81" y="-119" type="curve" smooth="yes"/>
      <point x="81" y="-91"/>
      <point x="102" y="-65"/>
      <point x="154" y="-11" type="curve"/>
      <point x="114" y="-6" type="line"/>
      <point x="62" y="-54"/>
      <point x="37" y="-80"/>
      <point x="37" y="-123" type="curve" smooth="yes"/>
      <point x="37" y="-173"/>
      <point x="68" y="-207"/>
      <point x="118" y="-207" type="curve" smooth="yes"/>
    </contour>
    <contour>
      <point x="169" y="-5" type="move" name="_ogonek"/>
    </contour>
  </outline>
</glyph>
<glyph name="tilde" format="1">
  <advance width="492"/>
  <unicode hex="02DC"/>
  <outline>
    <contour>
      <point x="354" y="626"/>
      <point x="374" y="640"/>
      <point x="405" y="664" type="curve"/>
      <point x="380" y="695" type="line"/>
      <point x="357" y="677"/>
      <point x="333" y="664"/>
      <point x="306" y="664" type="curve" smooth="yes"/>
      <point x="258" y="664"/>
      <point x="221" y="700"/>
      <point x="163" y="700" type="curve" smooth="yes"/>
      <point x="136" y="700"/>
      <point x="106" y="693"/>
      <point x="64" y="660" type="curve"/>
      <point x="89" y="629" type="line"/>
      <point x="122" y="655"/>
      <point x="142" y="660"/>
      <point x="164" y="660" type="curve" smooth="yes"/>
      <point x="209" y="660"/>
      <point x="251" y="626"/>
      <point x="304" y="626" type="curve" smooth="yes"/>
    </contour>
    <contour>
      <point x="235" y="504" type="move" name="_top"/>
    </contour>
  </outline>
</glyph>
<glyph name="hungarumlaut" format="1">
  <advance width="479"/>
  <unicode hex="02DD"/>
  <outline>
    <contour>
      <point x="408" y="720" type="line"/>
      <point x="377" y="749" type="line"/>
      <point x="234" y="629" type="line"/>
      <point x="264" y="602" type="line"/>
    </contour>
    <contour>
      <point x="213" y="721" type="line"/>
      <point x="184" y="748" type="line"/>
      <point x="41" y="629" type="line"/>
      <point x="70" y="602" type="line"/>
    </contour>
    <contour>
      <point x="169" y="504" type="move" name="_top"/>
    </contour>
  </outline>
</glyph>
<glyph name="dotaccentcomb" format="1">
  <advance width="0"/>
  <unicode hex="0307"/>
  <outline>
    <component base="dotaccent" xOffset="-61"/>
    <contour>
      <point x="0" y="684" type="move" name="top"/>
    </contour>
  </outline>
</glyph>
<glyph name="hookabovecomb" format="2">
	<advance width="0"/>
	<unicode hex="0309"/>
	<anchor x="-144" y="500" name="_top"/>
	<outline>
		<contour>
			<point x="-168" y="569" type="curve"/>
			<point x="-121" y="569" type="line"/>
			<point x="-77" y="617"/>
			<point x="-60" y="645"/>
			<point x="-60" y="682" type="curve"/>
			<point x="-60" y="735"/>
			<point x="-91" y="769"/>
			<point x="-139" y="769" type="curve"/>
			<point x="-172" y="769"/>
			<point x="-199" y="753"/>
			<point x="-222" y="733" type="curve"/>
			<point x="-200" y="701" type="line"/>
			<point x="-178" y="722"/>
			<point x="-159" y="728"/>
			<point x="-146" y="728" type="curve"/>
			<point x="-133" y="728"/>
			<point x="-103" y="716"/>
			<point x="-103" y="680" type="curve"/>
			<point x="-103" y="654"/>
			<point x="-123" y="624"/>
		</contour>
	</outline>
</glyph>
<glyph name="ringcomb" format="1">
  <advance width="0"/>
  <unicode hex="030A"/>
  <outline>
    <component base="ring" xOffset="-135"/>
    <contour>
      <point x="0" y="754" type="move" name="top"/>
    </contour>
  </outline>
</glyph>
<glyph name="caroncomb" format="1">
  <advance width="0"/>
  <unicode hex="030C"/>
  <outline>
    <component base="caron" xOffset="-160"/>
    <contour>
      <point x="-1" y="689" type="move" name="top"/>
    </contour>
    <contour>
      <point x="-1" y="500" type="move" name="_top"/>
    </contour>
  </outline>
</glyph>
<glyph name="commaaccentcomb" format="1">
  <advance width="164"/>
  <unicode hex="0326"/>
  <outline>
    <contour>
      <point x="63" y="-290" type="line"/>
      <point x="110" y="-93" type="line"/>
      <point x="60" y="-93" type="line"/>
      <point x="22" y="-290" type="line"/>
    </contour>
    <contour>
      <point x="90" y="-6" type="move" name="_bottom"/>
    </contour>
  </outline>
</glyph>
<glyph name="ogonekcomb" format="1">
  <advance width="11"/>
  <unicode hex="0328"/>
  <outline>
    <component base="ogonek" xOffset="-10" yOffset="-6"/>
    <contour>
      <point x="169" y="-5" type="move" name="_ogonek"/>
    </contour>
  </outline>
</glyph>
<glyph name="strokelongcomb" format="2">
	<advance width="0"/>
	<unicode hex="0336"/>
	<anchor x="-281" y="252" name="_center"/>
	<outline>
		<contour>
			<point x="-486" y="272" type="line"/>
			<point x="-486" y="231" type="line"/>
			<point x="-80" y="231" type="line"/>
			<point x="-80" y="272" type="line"/>
		</contour>
	</outline>
</glyph>
<glyph name="slashshortcomb" format="2">
	<advance width="0"/>
	<unicode hex="0337"/>
	<anchor x="-150" y="401" name="_center"/>
	<outline>
		<contour>
			<point x="-265" y="361" type="line"/>
			<point x="-243" y="322" type="line"/>
			<point x="-37" y="441" type="line"/>
			<point x="-59" y="480" type="line"/>
		</contour>
	</outline>
</glyph>
<glyph name="slashlongcomb" format="2">
	<advance width="0"/>
	<unicode hex="0338"/>
	<anchor x="-176" y="262" name="_center"/>
	<outline>
		<contour>
			<point x="-62" y="594" type="line"/>
			<point x="-342" y="-72" type="line"/>
			<point x="-292" y="-72" type="line"/>
			<point x="-11" y="594" type="line"/>
		</contour>
	</outline>
</glyph>
<glyph name="gravetonecomb" format="1">
  <advance width="12"/>
  <unicode hex="0340"/>
  <outline>
    <component base="gravecomb" xOffset="-10" yOffset="-6"/>
    <contour>
      <point x="84" y="502" type="move" name="_top"/>
    </contour>
  </outline>
</glyph>
<glyph name="Alpha" format="1">
  <advance width="771"/>
  <unicode hex="0391"/>
  <outline>
    <component base="A"/>
    <contour>
      <point x="396" y="-6" type="move" name="top"/>
    </contour>
  </outline>
</glyph>
<glyph name="Epsilon" format="1">
  <advance width="641"/>
  <unicode hex="0395"/>
  <outline>
    <component base="E"/>
    <contour>
      <point x="330" y="-6" type="move" name="top"/>
    </contour>
  </outline>
</glyph>
<glyph name="pi" format="1">
  <advance width="511"/>
  <unicode hex="03C0"/>
  <outline>
    <contour>
      <point x="141" y="1" type="line"/>
      <point x="168" y="449" type="line"/>
      <point x="350" y="449" type="line"/>
      <point x="350" y="156" type="line" smooth="yes"/>
      <point x="350" y="124"/>
      <point x="352" y="98"/>
      <point x="358" y="77" type="curve" smooth="yes"/>
      <point x="363" y="57"/>
      <point x="371" y="42"/>
      <point x="383" y="31" type="curve" smooth="yes"/>
      <point x="395" y="20"/>
      <point x="409" y="13"/>
      <point x="429" y="8" type="curve" smooth="yes"/>
      <point x="447" y="4"/>
      <point x="469" y="2"/>
      <point x="495" y="1" type="curve"/>
      <point x="494" y="48" type="line"/>
      <point x="478" y="48"/>
      <point x="464" y="50"/>
      <point x="453" y="52" type="curve" smooth="yes"/>
      <point x="440" y="54"/>
      <point x="428" y="60"/>
      <point x="420" y="69" type="curve"/>
      <point x="412" y="77"/>
      <point x="406" y="89"/>
      <point x="403" y="102" type="curve"/>
      <point x="399" y="116"/>
      <point x="398" y="134"/>
      <point x="398" y="156" type="curve" smooth="yes"/>
      <point x="398" y="451" type="line"/>
      <point x="428" y="451"/>
      <point x="450" y="454"/>
      <point x="466" y="458" type="curve"/>
      <point x="478" y="462"/>
      <point x="487" y="465"/>
      <point x="494" y="469" type="curve"/>
      <point x="497" y="515" type="line"/>
      <point x="474" y="508"/>
      <point x="450" y="503"/>
      <point x="426" y="501" type="curve" smooth="yes"/>
      <point x="399" y="498"/>
      <point x="374" y="497"/>
      <point x="352" y="497" type="curve" smooth="yes"/>
      <point x="145" y="497" type="line"/>
      <point x="90" y="494" type="line"/>
      <point x="39" y="490" type="line" smooth="yes"/>
      <point x="23" y="489"/>
      <point x="9" y="487"/>
      <point x="-5" y="484" type="curve"/>
      <point x="-5" y="433" type="line"/>
      <point x="18" y="439" type="line"/>
      <point x="28" y="441"/>
      <point x="42" y="442"/>
      <point x="58" y="444" type="curve" smooth="yes"/>
      <point x="120" y="450" type="line"/>
      <point x="93" y="1" type="line"/>
    </contour>
  </outline>
</glyph>
<glyph name="Be-cy" format="2">
	<advance width="586"/>
	<unicode hex="0411"/>
	<outline>
		<contour>
			<point x="309" y="385" type="curve"/>
			<point x="309" y="385" type="line"/>
			<point x="145" y="385" type="line"/>
			<point x="145" y="345" type="line"/>
			<point x="305" y="345" type="line" smooth="yes"/>
			<point x="422" y="345"/>
			<point x="488" y="272"/>
			<point x="488" y="182" type="curve"/>
			<point x="488" y="82"/>
			<point x="407" y="30"/>
			<point x="291" y="30" type="curve"/>
			<point x="274" y="30"/>
			<point x="247" y="31"/>
			<point x="222" y="32" type="curve"/>
			<point x="147" y="35" type="line"/>
			<point x="147" y="664" type="line"/>
			<point x="105" y="664" type="line"/>
			<point x="105" y="1" type="line"/>
			<point x="149" y="-4" type="line" smooth="yes"/>
			<point x="186" y="-8"/>
			<point x="259" y="-9"/>
			<point x="281" y="-9" type="curve"/>
			<point x="329" y="-9"/>
			<point x="367" y="-5"/>
			<point x="398" y="5" type="curve"/>
			<point x="487" y="34"/>
			<point x="530" y="104"/>
			<point x="530" y="182" type="curve"/>
			<point x="530" y="298"/>
			<point x="426" y="385"/>
		</contour>
		<contour>
			<point x="105" y="646" type="line"/>
			<point x="501" y="646" type="line"/>
			<point x="500" y="686" type="line"/>
			<point x="105" y="686" type="line"/>
		</contour>
	</outline>
</glyph>
<glyph name="De-cy" format="2">
	<advance width="712"/>
	<unicode hex="0414"/>
	<outline>
		<contour>
			<point x="675" y="-168" type="line"/>
			<point x="676" y="40" type="line"/>
			<point x="590" y="40" type="line"/>
			<point x="591" y="684" type="line"/>
			<point x="289" y="684" type="line"/>
			<point x="289" y="461"/>
			<point x="203" y="249"/>
			<point x="87" y="41" type="curve"/>
			<point x="36" y="40" type="line"/>
			<point x="36" y="-168" type="line"/>
			<point x="78" y="-168" type="line"/>
			<point x="78" y="0" type="line"/>
			<point x="633" y="0" type="line"/>
			<point x="633" y="-168" type="line"/>
		</contour>
		<contour>
			<point x="331" y="644" type="curve"/>
			<point x="331" y="644" type="line"/>
			<point x="548" y="644" type="line"/>
			<point x="548" y="40" type="line"/>
			<point x="134" y="40" type="line"/>
			<point x="255" y="257"/>
			<point x="305" y="405"/>
		</contour>
	</outline>
</glyph>
<glyph name="Zhe-cy" format="2">
	<advance width="910"/>
	<unicode hex="0416"/>
	<anchor x="454" y="684" name="top"/>
	<anchor x="889" y="0" name="bottomright"/>
	<outline>
		<contour>
			<point x="432" y="347" type="curve"/>
			<point x="432" y="0" type="line"/>
			<point x="474" y="0" type="line"/>
			<point x="474" y="351" type="line"/>
			<point x="517" y="350" type="line" smooth="yes"/>
			<point x="599" y="348"/>
			<point x="648" y="336"/>
			<point x="697" y="275" type="curve"/>
			<point x="722" y="244"/>
			<point x="727" y="221"/>
			<point x="735" y="196" type="curve"/>
			<point x="760" y="119"/>
			<point x="788" y="22"/>
			<point x="845" y="-4" type="curve"/>
			<point x="865" y="31" type="line"/>
			<point x="830" y="48"/>
			<point x="802" y="122"/>
			<point x="786" y="171" type="curve"/>
			<point x="787" y="169"/>
			<point x="770" y="276"/>
			<point x="688" y="343" type="curve"/>
			<point x="663" y="363"/>
			<point x="652" y="364"/>
			<point x="637" y="369" type="curve"/>
			<point x="708" y="398"/>
			<point x="722" y="457"/>
			<point x="746" y="558" type="curve"/>
			<point x="760" y="619"/>
			<point x="761" y="644"/>
			<point x="798" y="644" type="curve"/>
			<point x="812" y="644"/>
			<point x="828" y="637"/>
			<point x="842" y="630" type="curve"/>
			<point x="861" y="666" type="line"/>
			<point x="843" y="675"/>
			<point x="821" y="682"/>
			<point x="798" y="682" type="curve"/>
			<point x="751" y="682"/>
			<point x="731" y="659"/>
			<point x="717" y="615" type="curve"/>
			<point x="706" y="579"/>
			<point x="694" y="505"/>
			<point x="677" y="462" type="curve"/>
			<point x="662" y="424"/>
			<point x="634" y="405"/>
			<point x="600" y="396" type="curve"/>
			<point x="577" y="390"/>
			<point x="532" y="388"/>
			<point x="474" y="388" type="curve"/>
			<point x="474" y="684" type="line"/>
			<point x="432" y="684" type="line"/>
			<point x="432" y="388" type="line"/>
			<point x="403" y="388"/>
			<point x="351" y="388"/>
			<point x="322" y="392" type="curve"/>
			<point x="238" y="404"/>
			<point x="219" y="485"/>
			<point x="206" y="554" type="curve"/>
			<point x="194" y="620"/>
			<point x="179" y="682"/>
			<point x="111" y="682" type="curve"/>
			<point x="88" y="682"/>
			<point x="62" y="675"/>
			<point x="47" y="666" type="curve"/>
			<point x="66" y="630" type="line"/>
			<point x="77" y="636"/>
			<point x="94" y="643"/>
			<point x="110" y="643" type="curve"/>
			<point x="134" y="643"/>
			<point x="140" y="635"/>
			<point x="151" y="606" type="curve"/>
			<point x="158" y="587"/>
			<point x="160" y="574"/>
			<point x="167" y="542" type="curve"/>
			<point x="181" y="478"/>
			<point x="194" y="409"/>
			<point x="264" y="370" type="curve"/>
			<point x="197" y="335"/>
			<point x="160" y="292"/>
			<point x="139" y="219" type="curve"/>
			<point x="120" y="154"/>
			<point x="79" y="45"/>
			<point x="45" y="30" type="curve"/>
			<point x="67" y="-5" type="line"/>
			<point x="124" y="22"/>
			<point x="149" y="119"/>
			<point x="174" y="197" type="curve"/>
			<point x="198" y="271"/>
			<point x="246" y="340"/>
			<point x="311" y="347" type="curve"/>
			<point x="330" y="349"/>
			<point x="413" y="347"/>
		</contour>
	</outline>
</glyph>
<glyph name="Ze-cy" format="2">
	<advance width="564"/>
	<unicode hex="0417"/>
	<anchor x="284" y="684" name="top"/>
	<anchor x="284" y="0" name="bottom"/>
	<outline>
		<contour>
			<point x="272" y="-14" type="curve"/>
			<point x="272" y="-14" type="line"/>
			<point x="413" y="-14"/>
			<point x="509" y="63"/>
			<point x="505" y="191" type="curve"/>
			<point x="501" y="328"/>
			<point x="389" y="384"/>
			<point x="332" y="390" type="curve"/>
			<point x="386" y="394"/>
			<point x="465" y="453"/>
			<point x="465" y="546" type="curve"/>
			<point x="465" y="637"/>
			<point x="388" y="699"/>
			<point x="248" y="699" type="curve"/>
			<point x="171" y="699"/>
			<point x="111" y="680"/>
			<point x="73" y="656" type="curve"/>
			<point x="83" y="618" type="line"/>
			<point x="119" y="643"/>
			<point x="180" y="659"/>
			<point x="248" y="659" type="curve"/>
			<point x="371" y="659"/>
			<point x="422" y="606"/>
			<point x="422" y="548" type="curve"/>
			<point x="422" y="483"/>
			<point x="359" y="410"/>
			<point x="277" y="410" type="curve"/>
			<point x="145" y="410" type="line"/>
			<point x="145" y="370" type="line"/>
			<point x="278" y="370" type="line"/>
			<point x="382" y="365"/>
			<point x="461" y="290"/>
			<point x="463" y="194" type="curve"/>
			<point x="466" y="101"/>
			<point x="398" y="26"/>
			<point x="272" y="26" type="curve"/>
			<point x="200" y="26"/>
			<point x="111" y="51"/>
			<point x="61" y="103" type="curve"/>
			<point x="41" y="68" type="line"/>
			<point x="93" y="15"/>
			<point x="186" y="-14"/>
		</contour>
	</outline>
</glyph>
<glyph name="Ka-cy" format="2">
	<advance width="653"/>
	<unicode hex="041A"/>
	<anchor x="329" y="684" name="top"/>
	<anchor x="634" y="0" name="bottomright"/>
	<outline>
		<contour>
			<point x="105" y="684" type="line"/>
			<point x="105" y="0" type="line"/>
			<point x="147" y="0" type="line"/>
			<point x="147" y="339" type="line"/>
			<point x="253" y="339" type="line" smooth="yes"/>
			<point x="303" y="339"/>
			<point x="383" y="303"/>
			<point x="424" y="249" type="curve"/>
			<point x="460" y="202"/>
			<point x="495" y="20"/>
			<point x="596" y="-15" type="curve"/>
			<point x="607" y="24" type="line"/>
			<point x="600" y="26"/>
			<point x="582" y="41"/>
			<point x="555" y="72" type="curve"/>
			<point x="481" y="155"/>
			<point x="514" y="287"/>
			<point x="332" y="364" type="curve"/>
			<point x="382" y="390"/>
			<point x="412" y="423"/>
			<point x="427" y="460" type="curve"/>
			<point x="466" y="557"/>
			<point x="466" y="610"/>
			<point x="484" y="639" type="curve"/>
			<point x="491" y="650"/>
			<point x="505" y="660"/>
			<point x="534" y="660" type="curve"/>
			<point x="553" y="660"/>
			<point x="575" y="654"/>
			<point x="592" y="647" type="curve"/>
			<point x="611" y="685" type="line"/>
			<point x="589" y="695"/>
			<point x="559" y="702"/>
			<point x="533" y="702" type="curve"/>
			<point x="477" y="702"/>
			<point x="450" y="677"/>
			<point x="437" y="641" type="curve"/>
			<point x="428" y="616"/>
			<point x="420" y="584"/>
			<point x="407" y="532" type="curve"/>
			<point x="370" y="386"/>
			<point x="295" y="379"/>
			<point x="147" y="378" type="curve"/>
			<point x="147" y="684" type="line"/>
		</contour>
	</outline>
</glyph>
<glyph name="El-cy" format="2">
	<advance width="716"/>
	<unicode hex="041B"/>
	<outline>
		<contour>
			<point x="112" y="-14" type="curve"/>
			<point x="112" y="-14" type="line"/>
			<point x="178" y="-14"/>
			<point x="204" y="27"/>
			<point x="224" y="88" type="curve"/>
			<point x="255" y="187"/>
			<point x="262" y="537"/>
			<point x="262" y="640" type="curve"/>
			<point x="567" y="640" type="line"/>
			<point x="567" y="-2" type="line"/>
			<point x="611" y="-2" type="line"/>
			<point x="611" y="684" type="line"/>
			<point x="220" y="684" type="line"/>
			<point x="220" y="538"/>
			<point x="215" y="345"/>
			<point x="201" y="212" type="curve"/>
			<point x="196" y="162"/>
			<point x="189" y="120"/>
			<point x="181" y="94" type="curve"/>
			<point x="168" y="53"/>
			<point x="151" y="28"/>
			<point x="114" y="28" type="curve"/>
			<point x="98" y="28"/>
			<point x="80" y="34"/>
			<point x="67" y="51" type="curve"/>
			<point x="34" y="26" type="line"/>
			<point x="53" y="1"/>
			<point x="80" y="-14"/>
		</contour>
	</outline>
</glyph>
<glyph name="Pe-cy" format="2">
	<advance width="681"/>
	<unicode hex="041F"/>
	<anchor x="655" y="0" name="bottomright"/>
	<outline>
		<contour>
			<point x="105" y="686" type="line"/>
			<point x="105" y="0" type="line"/>
			<point x="147" y="0" type="line"/>
			<point x="147" y="646" type="line"/>
			<point x="534" y="646" type="line"/>
			<point x="534" y="0" type="line"/>
			<point x="576" y="0" type="line"/>
			<point x="576" y="686" type="line"/>
		</contour>
	</outline>
</glyph>
<glyph name="U-cy" format="2">
	<advance width="671"/>
	<unicode hex="0423"/>
	<anchor x="315" y="684" name="top"/>
	<outline>
		<contour>
			<point x="205" y="-10" type="curve"/>
			<point x="205" y="-10" type="line"/>
			<point x="232" y="-10"/>
			<point x="256" y="-4"/>
			<point x="280" y="10" type="curve"/>
			<point x="315" y="30"/>
			<point x="356" y="90"/>
			<point x="374" y="129" type="curve"/>
			<point x="377" y="136"/>
			<point x="411" y="199"/>
			<point x="632" y="684" type="curve"/>
			<point x="586" y="684" type="line"/>
			<point x="381" y="240" type="line"/>
			<point x="172" y="646" type="line"/>
			<point x="149" y="691"/>
			<point x="109" y="707"/>
			<point x="66" y="684" type="curve"/>
			<point x="47" y="674"/>
			<point x="38" y="660"/>
			<point x="35" y="650" type="curve"/>
			<point x="70" y="634" type="line"/>
			<point x="72" y="638"/>
			<point x="77" y="644"/>
			<point x="85" y="649" type="curve"/>
			<point x="102" y="658"/>
			<point x="121" y="653"/>
			<point x="135" y="627" type="curve"/>
			<point x="135" y="627" type="line"/>
			<point x="358" y="193" type="line"/>
			<point x="314" y="100"/>
			<point x="277" y="31"/>
			<point x="203" y="31" type="curve"/>
			<point x="182" y="31"/>
			<point x="155" y="37"/>
			<point x="123" y="51" type="curve"/>
			<point x="105" y="14" type="line"/>
			<point x="136" y="0"/>
			<point x="172" y="-10"/>
		</contour>
	</outline>
</glyph>
<glyph name="Ef-cy" format="2">
	<advance width="790"/>
	<unicode hex="0424"/>
	<outline>
		<contour>
			<point x="374" y="43" type="curve"/>
			<point x="374" y="-32" type="line"/>
			<point x="416" y="-32" type="line"/>
			<point x="416" y="43" type="line"/>
			<point x="628" y="54"/>
			<point x="734" y="198"/>
			<point x="734" y="341" type="curve"/>
			<point x="734" y="485"/>
			<point x="628" y="628"/>
			<point x="416" y="639" type="curve"/>
			<point x="416" y="714" type="line"/>
			<point x="374" y="714" type="line"/>
			<point x="374" y="639" type="line"/>
			<point x="160" y="629"/>
			<point x="56" y="485"/>
			<point x="56" y="341" type="curve"/>
			<point x="56" y="198"/>
			<point x="162" y="53"/>
		</contour>
		<contour>
			<point x="374" y="593" type="curve"/>
			<point x="374" y="89" type="line"/>
			<point x="192" y="98"/>
			<point x="98" y="220"/>
			<point x="98" y="341" type="curve"/>
			<point x="98" y="463"/>
			<point x="192" y="584"/>
		</contour>
		<contour>
			<point x="416" y="88" type="curve"/>
			<point x="416" y="88" type="line"/>
			<point x="416" y="593" type="line"/>
			<point x="599" y="584"/>
			<point x="692" y="462"/>
			<point x="692" y="342" type="curve"/>
			<point x="692" y="220"/>
			<point x="598" y="99"/>
		</contour>
	</outline>
</glyph>
<glyph name="Tse-cy" format="2">
	<advance width="730"/>
	<unicode hex="0426"/>
	<outline>
		<contour>
			<point x="652" y="-1" type="line"/>
			<point x="652" y="-158" type="line"/>
			<point x="694" y="-158" type="line"/>
			<point x="694" y="39" type="line"/>
			<point x="592" y="39" type="line"/>
			<point x="592" y="684" type="line"/>
			<point x="550" y="684" type="line"/>
			<point x="550" y="39" type="line"/>
			<point x="176" y="39" type="line"/>
			<point x="176" y="569" type="line"/>
			<point x="176" y="604" type="line"/>
			<point x="176" y="670"/>
			<point x="139" y="701"/>
			<point x="89" y="701" type="curve"/>
			<point x="46" y="701"/>
			<point x="25" y="680"/>
			<point x="14" y="659" type="curve"/>
			<point x="45" y="636" type="line"/>
			<point x="48" y="641"/>
			<point x="58" y="661"/>
			<point x="87" y="661" type="curve"/>
			<point x="115" y="661"/>
			<point x="134" y="645"/>
			<point x="134" y="604" type="curve"/>
			<point x="134" y="569" type="line"/>
			<point x="134" y="569" type="line"/>
			<point x="135" y="-1" type="line"/>
		</contour>
	</outline>
</glyph>
<glyph name="Che-cy" format="2">
	<advance width="724"/>
	<unicode hex="0427"/>
	<anchor x="359" y="684" name="top"/>
	<anchor x="701" y="0" name="bottomright"/>
	<outline>
		<contour>
			<point x="577" y="370" type="curve"/>
			<point x="577" y="7" type="line"/>
			<point x="619" y="7" type="line"/>
			<point x="619" y="684" type="line"/>
			<point x="577" y="684" type="line"/>
			<point x="577" y="426" type="line"/>
			<point x="513" y="333"/>
			<point x="438" y="289"/>
			<point x="344" y="289" type="curve"/>
			<point x="242" y="289"/>
			<point x="189" y="340"/>
			<point x="189" y="439" type="curve"/>
			<point x="189" y="525"/>
			<point x="190" y="539"/>
			<point x="189" y="573" type="curve"/>
			<point x="187" y="608" type="line"/>
			<point x="184" y="674"/>
			<point x="146" y="703"/>
			<point x="96" y="701" type="curve"/>
			<point x="53" y="699"/>
			<point x="33" y="677"/>
			<point x="23" y="655" type="curve"/>
			<point x="55" y="634" type="line"/>
			<point x="58" y="639"/>
			<point x="67" y="659"/>
			<point x="96" y="661" type="curve"/>
			<point x="124" y="662"/>
			<point x="143" y="647"/>
			<point x="145" y="606" type="curve"/>
			<point x="147" y="571" type="line"/>
			<point x="147" y="571" type="line"/>
			<point x="148" y="541"/>
			<point x="146" y="494"/>
			<point x="146" y="465" type="curve"/>
			<point x="146" y="311"/>
			<point x="204" y="249"/>
			<point x="325" y="249" type="curve"/>
			<point x="431" y="249"/>
			<point x="525" y="296"/>
		</contour>
	</outline>
</glyph>
<glyph name="Sha-cy" format="2">
	<advance width="976"/>
	<unicode hex="0428"/>
	<anchor x="871" y="0" name="tail"/>
	<outline>
		<contour>
			<point x="135" y="-1" type="line"/>
			<point x="871" y="0" type="line"/>
			<point x="872" y="684" type="line"/>
			<point x="830" y="684" type="line"/>
			<point x="830" y="40" type="line"/>
			<point x="524" y="40" type="line"/>
			<point x="524" y="684" type="line"/>
			<point x="482" y="684" type="line"/>
			<point x="482" y="40" type="line"/>
			<point x="176" y="40" type="line"/>
			<point x="176" y="570" type="line"/>
			<point x="176" y="605" type="line"/>
			<point x="176" y="671"/>
			<point x="139" y="702"/>
			<point x="89" y="702" type="curve"/>
			<point x="46" y="702"/>
			<point x="25" y="681"/>
			<point x="14" y="660" type="curve"/>
			<point x="45" y="637" type="line"/>
			<point x="48" y="642"/>
			<point x="58" y="662"/>
			<point x="87" y="662" type="curve"/>
			<point x="115" y="662"/>
			<point x="134" y="646"/>
			<point x="134" y="605" type="curve"/>
			<point x="134" y="570" type="line"/>
			<point x="134" y="570" type="line"/>
		</contour>
	</outline>
</glyph>
<glyph name="Hardsign-cy" format="2">
	<advance width="706"/>
	<unicode hex="042A"/>
	<anchor x="350" y="684" name="top"/>
	<outline>
		<contour>
			<point x="37" y="644" type="line"/>
			<point x="256" y="644" type="line"/>
			<point x="255" y="684" type="line"/>
			<point x="37" y="684" type="line"/>
		</contour>
		<component base="Softsign-cy" xOffset="124"/>
	</outline>
</glyph>
